M48
;Layer_Color=9474304
;FILE_FORMAT=2:3
INCH,LZ
;TYPE=PLATED
T1F00S00C0.028
T2F00S00C0.035
T3F00S00C0.118
%
T01
X01982Y00177
X02147Y00092
X0254Y0029
X0257Y0036
X0273Y00135
X03065Y00075
X01557Y00107
X01388Y00162
X01333Y00082
X00917Y00232
X0075Y0061
T02
X03465Y001
Y002
Y003
Y0043
Y0053
X0328Y00305
Y00205
Y00105
X03065Y0028
Y0033
Y0038
X02845Y0049
X02745
X02645
Y0065
X02745
X02845
X028Y00205
X029
X0242Y0019
Y0009
Y0029
X0244Y0046
X0233
X0222Y0038
Y0033
Y0028
X0185Y0046
Y0074
X0233
X0244
X0174
Y0046
X01625Y0038
Y0033
Y0028
X0175Y0021
Y0011
X0115
Y0021
X01275Y0025
Y0035
Y0045
X01025Y0038
Y0033
Y0028
X0042Y0029
Y0039
Y0049
Y0066
Y0076
X00195
Y0066
Y0049
Y0039
Y0029
T03
X0345Y00725
X0015Y00125
M30
