%FSLAX23Y23*%
%MOIN*%
G70*
G01*
G75*
G04 Layer_Color=16711935*
%ADD10R,0.043X0.067*%
%ADD11R,0.039X0.059*%
%ADD12R,0.059X0.039*%
%ADD13R,0.067X0.043*%
%ADD14R,0.055X0.118*%
%ADD15R,0.118X0.055*%
%ADD16C,0.025*%
%ADD17C,0.010*%
%ADD18R,0.059X0.059*%
%ADD19C,0.059*%
%ADD20O,0.079X0.039*%
%ADD21O,0.079X0.039*%
%ADD22R,0.059X0.059*%
%ADD23C,0.138*%
%ADD24C,0.050*%
%ADD25C,0.010*%
%ADD26C,0.008*%
%ADD27C,0.008*%
%ADD28C,0.005*%
%ADD29C,0.006*%
%ADD30R,0.075X0.031*%
%ADD31R,0.051X0.075*%
%ADD32R,0.047X0.067*%
%ADD33R,0.067X0.047*%
%ADD34R,0.075X0.051*%
%ADD35R,0.063X0.126*%
%ADD36R,0.126X0.063*%
%ADD37R,0.067X0.067*%
%ADD38C,0.067*%
%ADD39O,0.087X0.047*%
%ADD40O,0.087X0.047*%
%ADD41R,0.067X0.067*%
%ADD42C,0.146*%
D37*
X2330Y740D02*
D03*
X2440Y460D02*
D03*
X1750Y210D02*
D03*
X1740Y740D02*
D03*
X1850Y460D02*
D03*
X1275Y250D02*
D03*
X1150Y210D02*
D03*
X195Y290D02*
D03*
X420D02*
D03*
Y760D02*
D03*
X195Y660D02*
D03*
X2420Y90D02*
D03*
X3280Y105D02*
D03*
X3465Y100D02*
D03*
Y430D02*
D03*
D38*
X2330Y460D02*
D03*
X2440Y740D02*
D03*
X1750Y110D02*
D03*
X1740Y460D02*
D03*
X1850Y740D02*
D03*
X1275Y350D02*
D03*
Y450D02*
D03*
X1150Y110D02*
D03*
X195Y390D02*
D03*
Y490D02*
D03*
X420Y390D02*
D03*
Y490D02*
D03*
Y660D02*
D03*
X195Y760D02*
D03*
X2800Y205D02*
D03*
X2420Y190D02*
D03*
Y290D02*
D03*
X2745Y650D02*
D03*
X2645D02*
D03*
X2745Y490D02*
D03*
X2645D02*
D03*
X3280Y205D02*
D03*
Y305D02*
D03*
X3465Y200D02*
D03*
Y300D02*
D03*
Y530D02*
D03*
D39*
X1025Y380D02*
D03*
Y280D02*
D03*
X1625Y380D02*
D03*
Y280D02*
D03*
X2220Y380D02*
D03*
Y280D02*
D03*
X3065Y380D02*
D03*
Y280D02*
D03*
D40*
X1025Y330D02*
D03*
X1625D02*
D03*
X2220D02*
D03*
X3065D02*
D03*
D41*
X2900Y205D02*
D03*
X2845Y650D02*
D03*
Y490D02*
D03*
D42*
X150Y125D02*
D03*
X3450Y725D02*
D03*
M02*
