%FSLAX23Y23*%
%MOIN*%
G70*
G01*
G75*
G04 Layer_Color=65535*
%ADD10R,0.043X0.067*%
%ADD11R,0.039X0.059*%
%ADD12R,0.059X0.039*%
%ADD13R,0.067X0.043*%
%ADD14R,0.055X0.118*%
%ADD15R,0.118X0.055*%
%ADD16C,0.025*%
%ADD17C,0.010*%
%ADD18R,0.059X0.059*%
%ADD19C,0.059*%
%ADD20O,0.079X0.039*%
%ADD21O,0.079X0.039*%
%ADD22R,0.059X0.059*%
%ADD23C,0.138*%
%ADD24C,0.050*%
%ADD25C,0.010*%
%ADD26C,0.008*%
%ADD27C,0.008*%
%ADD28C,0.005*%
%ADD29C,0.006*%
%ADD30R,0.075X0.031*%
G36*
X646Y15D02*
X633D01*
Y22D01*
X633Y22D01*
X633Y22D01*
X632Y22D01*
X632Y21D01*
X631Y20D01*
X631Y20D01*
X630Y19D01*
X629Y18D01*
X627Y17D01*
X625Y15D01*
X624Y15D01*
X623Y14D01*
X621Y14D01*
X620Y14D01*
X619D01*
X618Y14D01*
X618Y14D01*
X617Y14D01*
X615Y15D01*
X613Y16D01*
X612Y16D01*
X611Y17D01*
X610Y17D01*
X609Y18D01*
X608Y19D01*
X607Y20D01*
Y20D01*
X607Y21D01*
X607Y21D01*
X606Y22D01*
X606Y22D01*
X606Y23D01*
X605Y24D01*
X605Y25D01*
X604Y26D01*
X604Y28D01*
X604Y29D01*
X603Y31D01*
X603Y32D01*
X603Y34D01*
X603Y36D01*
X603Y38D01*
Y38D01*
Y39D01*
Y39D01*
X603Y40D01*
Y41D01*
X603Y42D01*
X603Y44D01*
X603Y45D01*
X604Y48D01*
X605Y51D01*
X606Y54D01*
X606Y56D01*
X607Y57D01*
X607Y57D01*
X607Y57D01*
X608Y58D01*
X608Y58D01*
X608Y59D01*
X609Y59D01*
X610Y60D01*
X611Y60D01*
X612Y62D01*
X615Y63D01*
X616Y63D01*
X617Y63D01*
X619Y64D01*
X620Y64D01*
X621D01*
X622Y64D01*
X622Y64D01*
X623Y63D01*
X625Y63D01*
X627Y62D01*
X628Y62D01*
X629Y61D01*
X630Y61D01*
X630Y60D01*
X631Y59D01*
X632Y58D01*
Y80D01*
X646D01*
Y15D01*
D02*
G37*
G36*
X337Y158D02*
X338Y158D01*
X339Y158D01*
X340Y158D01*
X341Y157D01*
X344Y156D01*
X345Y156D01*
X347Y155D01*
X348Y154D01*
X350Y153D01*
X351Y152D01*
X352Y151D01*
X353Y151D01*
X353Y151D01*
X353Y150D01*
X354Y150D01*
X354Y149D01*
X355Y148D01*
X355Y147D01*
X356Y146D01*
X357Y144D01*
X357Y142D01*
X358Y141D01*
X359Y139D01*
X359Y136D01*
X359Y134D01*
X360Y131D01*
X360Y128D01*
X326D01*
Y128D01*
Y128D01*
Y128D01*
Y127D01*
Y126D01*
Y126D01*
Y126D01*
Y125D01*
X326Y124D01*
X326Y123D01*
X327Y122D01*
X327Y120D01*
X328Y119D01*
X329Y118D01*
X329Y117D01*
X329Y117D01*
X330Y117D01*
X331Y116D01*
X332Y116D01*
X333Y115D01*
X335Y115D01*
X336Y115D01*
X336D01*
X337Y115D01*
X337D01*
X339Y115D01*
X340Y116D01*
X341Y116D01*
X342Y117D01*
X342Y117D01*
X343Y118D01*
X344Y119D01*
X344Y120D01*
X345Y122D01*
X345Y123D01*
X359Y122D01*
X359Y122D01*
X359Y121D01*
X359Y120D01*
X358Y119D01*
X357Y118D01*
X357Y116D01*
X355Y115D01*
X354Y113D01*
X353Y111D01*
X351Y110D01*
X349Y108D01*
X347Y107D01*
X344Y106D01*
X342Y105D01*
X339Y104D01*
X336Y104D01*
X334D01*
X334Y104D01*
X333Y104D01*
X331Y104D01*
X329Y105D01*
X327Y105D01*
X324Y106D01*
X322Y107D01*
X322D01*
X322Y107D01*
X321Y108D01*
X320Y108D01*
X319Y109D01*
X318Y111D01*
X316Y112D01*
X315Y114D01*
X313Y116D01*
Y116D01*
X313Y116D01*
X313Y117D01*
X313Y117D01*
X312Y118D01*
X312Y118D01*
X312Y120D01*
X311Y122D01*
X310Y125D01*
X310Y127D01*
X310Y130D01*
Y131D01*
Y131D01*
Y132D01*
X310Y133D01*
X310Y134D01*
X310Y135D01*
X310Y136D01*
X311Y138D01*
X311Y141D01*
X312Y142D01*
X313Y144D01*
X314Y146D01*
X314Y147D01*
X316Y149D01*
X317Y151D01*
X317Y151D01*
X317Y151D01*
X318Y151D01*
X318Y152D01*
X319Y152D01*
X320Y153D01*
X321Y154D01*
X322Y154D01*
X323Y155D01*
X324Y156D01*
X326Y156D01*
X328Y157D01*
X329Y158D01*
X331Y158D01*
X333Y158D01*
X335Y158D01*
X336D01*
X337Y158D01*
D02*
G37*
G36*
X330Y15D02*
X317D01*
Y22D01*
X317Y22D01*
X317Y22D01*
X317Y22D01*
X317Y21D01*
X316Y20D01*
X315Y20D01*
X315Y19D01*
X314Y18D01*
X312Y17D01*
X310Y15D01*
X308Y15D01*
X307Y14D01*
X306Y14D01*
X304Y14D01*
X303D01*
X303Y14D01*
X302Y14D01*
X301Y14D01*
X300Y15D01*
X298Y16D01*
X297Y16D01*
X296Y17D01*
X295Y17D01*
X294Y18D01*
X293Y19D01*
X292Y20D01*
Y20D01*
X291Y21D01*
X291Y21D01*
X291Y22D01*
X291Y22D01*
X290Y23D01*
X290Y24D01*
X289Y25D01*
X289Y26D01*
X289Y28D01*
X288Y29D01*
X288Y31D01*
X288Y32D01*
X287Y34D01*
X287Y36D01*
X287Y38D01*
Y38D01*
Y39D01*
Y39D01*
X287Y40D01*
Y41D01*
X287Y42D01*
X288Y44D01*
X288Y45D01*
X288Y48D01*
X289Y51D01*
X290Y54D01*
X291Y56D01*
X292Y57D01*
X292Y57D01*
X292Y57D01*
X292Y58D01*
X293Y58D01*
X293Y59D01*
X294Y59D01*
X294Y60D01*
X295Y60D01*
X297Y62D01*
X299Y63D01*
X301Y63D01*
X302Y63D01*
X303Y64D01*
X305Y64D01*
X306D01*
X306Y64D01*
X307Y64D01*
X308Y63D01*
X309Y63D01*
X311Y62D01*
X312Y62D01*
X313Y61D01*
X314Y61D01*
X315Y60D01*
X316Y59D01*
X317Y58D01*
Y80D01*
X330D01*
Y15D01*
D02*
G37*
G36*
X806Y34D02*
X783D01*
Y45D01*
X806D01*
Y34D01*
D02*
G37*
G36*
X450Y64D02*
X451Y64D01*
X452Y63D01*
X454Y63D01*
X455Y62D01*
X456Y62D01*
X457Y62D01*
X457Y61D01*
X458Y61D01*
X458Y60D01*
X459Y60D01*
X460Y59D01*
X461Y58D01*
X461Y57D01*
X461Y57D01*
X462Y56D01*
X462Y55D01*
X462Y54D01*
X462Y53D01*
X463Y51D01*
X463Y50D01*
Y49D01*
X463Y47D01*
Y46D01*
Y15D01*
X449D01*
Y41D01*
Y41D01*
Y42D01*
Y42D01*
Y42D01*
Y43D01*
Y44D01*
X449Y46D01*
X449Y47D01*
X448Y48D01*
X448Y49D01*
Y49D01*
X448Y49D01*
X448Y49D01*
X448Y50D01*
X448Y51D01*
X447Y51D01*
X447Y51D01*
X447Y52D01*
X446Y52D01*
X446Y52D01*
X446Y52D01*
X445Y52D01*
X444Y52D01*
X444Y53D01*
X442D01*
X442Y52D01*
X441Y52D01*
X441Y52D01*
X440Y52D01*
X439Y51D01*
X438Y51D01*
X438Y51D01*
X438Y50D01*
X437Y50D01*
X437Y49D01*
X437Y48D01*
X436Y48D01*
X436Y47D01*
X436Y46D01*
X436Y45D01*
X436Y44D01*
X436Y43D01*
Y41D01*
Y15D01*
X422D01*
Y41D01*
Y41D01*
Y42D01*
Y42D01*
Y42D01*
Y43D01*
X421Y44D01*
Y46D01*
X421Y47D01*
X421Y48D01*
X421Y49D01*
Y49D01*
X421Y49D01*
X421Y49D01*
X421Y50D01*
X420Y51D01*
X419Y51D01*
X419Y52D01*
X419Y52D01*
X418Y52D01*
X418Y52D01*
X418Y52D01*
X417Y52D01*
X416Y53D01*
X415D01*
X414Y52D01*
X413Y52D01*
X412Y52D01*
X411Y52D01*
X411Y51D01*
X410Y50D01*
X410Y50D01*
X410Y50D01*
X409Y49D01*
X409Y48D01*
X409Y47D01*
X409Y46D01*
X408Y44D01*
X408Y41D01*
Y15D01*
X395D01*
Y63D01*
X408D01*
Y56D01*
X408Y56D01*
X408Y56D01*
X409Y57D01*
X409Y57D01*
X409Y58D01*
X410Y59D01*
X411Y60D01*
X412Y60D01*
X413Y61D01*
X414Y62D01*
X415Y62D01*
X416Y63D01*
X418Y63D01*
X419Y64D01*
X421Y64D01*
X422D01*
X422Y64D01*
X423D01*
X424Y64D01*
X424Y63D01*
X426Y63D01*
X427Y62D01*
X428Y62D01*
X430Y61D01*
X431Y60D01*
X432Y59D01*
X433Y58D01*
X434Y57D01*
X435Y55D01*
Y56D01*
X435Y56D01*
X435Y56D01*
X435Y57D01*
X436Y57D01*
X436Y58D01*
X437Y59D01*
X438Y60D01*
X439Y60D01*
X440Y61D01*
X441Y62D01*
X442Y62D01*
X443Y63D01*
X445Y63D01*
X447Y64D01*
X448Y64D01*
X449D01*
X450Y64D01*
D02*
G37*
G36*
X435Y105D02*
X419D01*
Y157D01*
X435D01*
Y105D01*
D02*
G37*
G36*
X786Y107D02*
Y107D01*
X785Y107D01*
X785Y106D01*
X785Y106D01*
X785Y105D01*
X785Y104D01*
X784Y102D01*
X783Y101D01*
X782Y99D01*
X782Y97D01*
X781Y95D01*
X781Y95D01*
X781Y94D01*
X780Y94D01*
X779Y93D01*
X779Y92D01*
X778Y91D01*
X777Y90D01*
X775Y89D01*
X775Y89D01*
X775Y89D01*
X774Y88D01*
X773Y88D01*
X771Y88D01*
X770Y87D01*
X768Y87D01*
X765Y87D01*
X764D01*
X763Y87D01*
X762D01*
X761Y87D01*
X759Y87D01*
X758Y87D01*
Y99D01*
X758D01*
X759Y99D01*
X759Y99D01*
X760Y99D01*
X761Y99D01*
X763Y99D01*
X765Y99D01*
X766D01*
X767Y99D01*
X768Y99D01*
X769Y99D01*
X770Y99D01*
X771Y100D01*
X771Y100D01*
X772Y100D01*
X772Y101D01*
X772Y101D01*
X772Y102D01*
X773Y102D01*
X773Y103D01*
X773Y104D01*
X774Y105D01*
X755Y157D01*
X771D01*
X781Y126D01*
X791Y157D01*
X802D01*
X786Y107D01*
D02*
G37*
G36*
X270Y175D02*
X271Y175D01*
X272Y175D01*
X274Y175D01*
X277Y175D01*
X280Y174D01*
X283Y173D01*
X285Y173D01*
X286Y172D01*
X286D01*
X286Y172D01*
X287Y172D01*
X287Y171D01*
X288Y170D01*
X290Y169D01*
X292Y167D01*
X294Y165D01*
X296Y163D01*
X298Y160D01*
X298Y160D01*
X298Y160D01*
X298Y160D01*
X298Y159D01*
X299Y158D01*
X299Y157D01*
X300Y156D01*
X300Y155D01*
X301Y154D01*
X301Y152D01*
X302Y150D01*
X302Y149D01*
X302Y147D01*
X303Y145D01*
X303Y143D01*
Y140D01*
Y140D01*
Y140D01*
X303Y139D01*
Y138D01*
X303Y137D01*
X302Y135D01*
X302Y133D01*
X302Y132D01*
X301Y130D01*
X301Y128D01*
X300Y125D01*
X299Y123D01*
X298Y121D01*
X297Y119D01*
X295Y117D01*
X294Y115D01*
X294Y115D01*
X293Y115D01*
X293Y114D01*
X292Y114D01*
X291Y113D01*
X290Y112D01*
X289Y111D01*
X287Y110D01*
X286Y109D01*
X284Y108D01*
X282Y107D01*
X280Y107D01*
X277Y106D01*
X275Y105D01*
X272Y105D01*
X269Y105D01*
X245D01*
Y176D01*
X269D01*
X270Y175D01*
D02*
G37*
G36*
X588Y158D02*
X589Y158D01*
X590Y158D01*
X591Y158D01*
X592Y157D01*
X595Y156D01*
X596Y156D01*
X598Y155D01*
X599Y154D01*
X601Y153D01*
X602Y152D01*
X604Y151D01*
X604Y151D01*
X604Y151D01*
X604Y150D01*
X605Y150D01*
X605Y149D01*
X606Y148D01*
X606Y147D01*
X607Y146D01*
X608Y144D01*
X608Y142D01*
X609Y141D01*
X610Y139D01*
X610Y136D01*
X610Y134D01*
X611Y131D01*
X611Y128D01*
X577D01*
Y128D01*
Y128D01*
Y128D01*
Y127D01*
Y126D01*
Y126D01*
Y126D01*
Y125D01*
X577Y124D01*
X577Y123D01*
X578Y122D01*
X578Y120D01*
X579Y119D01*
X580Y118D01*
X580Y117D01*
X581Y117D01*
X581Y117D01*
X582Y116D01*
X583Y116D01*
X584Y115D01*
X586Y115D01*
X587Y115D01*
X587D01*
X588Y115D01*
X588D01*
X590Y115D01*
X591Y116D01*
X592Y116D01*
X593Y117D01*
X594Y117D01*
X594Y118D01*
X595Y119D01*
X596Y120D01*
X596Y122D01*
X596Y123D01*
X610Y122D01*
X610Y122D01*
X610Y121D01*
X610Y120D01*
X609Y119D01*
X609Y118D01*
X608Y116D01*
X607Y115D01*
X605Y113D01*
X604Y111D01*
X602Y110D01*
X600Y108D01*
X598Y107D01*
X596Y106D01*
X593Y105D01*
X590Y104D01*
X587Y104D01*
X585D01*
X585Y104D01*
X584Y104D01*
X582Y104D01*
X580Y105D01*
X578Y105D01*
X576Y106D01*
X573Y107D01*
X573D01*
X573Y107D01*
X572Y108D01*
X571Y108D01*
X570Y109D01*
X569Y111D01*
X567Y112D01*
X566Y114D01*
X564Y116D01*
Y116D01*
X564Y116D01*
X564Y117D01*
X564Y117D01*
X564Y118D01*
X563Y118D01*
X563Y120D01*
X562Y122D01*
X561Y125D01*
X561Y127D01*
X561Y130D01*
Y131D01*
Y131D01*
Y132D01*
X561Y133D01*
X561Y134D01*
X561Y135D01*
X561Y136D01*
X562Y138D01*
X563Y141D01*
X563Y142D01*
X564Y144D01*
X565Y146D01*
X566Y147D01*
X567Y149D01*
X568Y151D01*
X568Y151D01*
X568Y151D01*
X569Y151D01*
X569Y152D01*
X570Y152D01*
X571Y153D01*
X572Y154D01*
X573Y154D01*
X574Y155D01*
X575Y156D01*
X577Y156D01*
X579Y157D01*
X580Y158D01*
X582Y158D01*
X584Y158D01*
X586Y158D01*
X587D01*
X588Y158D01*
D02*
G37*
G36*
X719Y151D02*
X720Y151D01*
X720Y151D01*
X720Y152D01*
X721Y153D01*
X723Y154D01*
X724Y156D01*
X727Y157D01*
X728Y158D01*
X729Y158D01*
X731Y158D01*
X732Y158D01*
X733D01*
X734Y158D01*
X734Y158D01*
X735Y158D01*
X737Y157D01*
X740Y156D01*
X741Y156D01*
X742Y155D01*
X743Y154D01*
X744Y153D01*
X745Y152D01*
X746Y151D01*
X747Y151D01*
X747Y151D01*
X747Y150D01*
X747Y150D01*
X748Y149D01*
X748Y148D01*
X749Y147D01*
X749Y146D01*
X750Y144D01*
X750Y143D01*
X750Y141D01*
X751Y139D01*
X751Y138D01*
X751Y135D01*
X752Y133D01*
Y131D01*
Y131D01*
Y130D01*
Y130D01*
X752Y129D01*
Y128D01*
X751Y127D01*
X751Y125D01*
X751Y124D01*
X750Y121D01*
X749Y118D01*
X749Y116D01*
X748Y114D01*
X747Y113D01*
X746Y111D01*
X746Y111D01*
X746Y111D01*
X746Y111D01*
X745Y110D01*
X745Y110D01*
X744Y109D01*
X743Y108D01*
X742Y108D01*
X741Y107D01*
X740Y106D01*
X739Y106D01*
X737Y105D01*
X736Y105D01*
X734Y104D01*
X733Y104D01*
X731Y104D01*
X730D01*
X729Y104D01*
X728Y104D01*
X726Y104D01*
X725Y105D01*
X724Y105D01*
X722Y106D01*
X722Y106D01*
X722Y106D01*
X721Y107D01*
X720Y107D01*
X719Y108D01*
X718Y109D01*
X717Y111D01*
X716Y113D01*
X715Y113D01*
X715Y113D01*
X715Y112D01*
X715Y111D01*
X714Y110D01*
X714Y109D01*
X713Y107D01*
X713Y106D01*
X712Y105D01*
X704D01*
Y176D01*
X719D01*
Y151D01*
D02*
G37*
G36*
X528Y15D02*
X511D01*
X492Y80D01*
X508D01*
X521Y33D01*
X535Y80D01*
X547D01*
X528Y15D01*
D02*
G37*
G36*
X365Y64D02*
X366D01*
X367Y63D01*
X369Y63D01*
X370Y63D01*
X372Y63D01*
X372D01*
X373Y62D01*
X374Y62D01*
X375Y62D01*
X376Y61D01*
X377Y61D01*
X378Y60D01*
X379Y59D01*
X379Y59D01*
X379Y59D01*
X380Y58D01*
X380Y58D01*
X381Y57D01*
X381Y56D01*
X382Y55D01*
X382Y54D01*
Y54D01*
X382Y54D01*
X382Y53D01*
X383Y52D01*
X383Y51D01*
X383Y50D01*
X383Y48D01*
Y46D01*
Y24D01*
Y24D01*
Y24D01*
Y23D01*
Y23D01*
Y22D01*
X383Y20D01*
X383Y19D01*
X383Y18D01*
X384Y16D01*
X384Y15D01*
X370D01*
Y15D01*
X370Y16D01*
X370Y16D01*
X370Y17D01*
X370Y18D01*
X370Y19D01*
X369Y21D01*
Y22D01*
X369Y22D01*
X369Y22D01*
X368Y21D01*
X367Y20D01*
X366Y18D01*
X365Y17D01*
X364Y16D01*
X362Y16D01*
X362Y16D01*
X362Y15D01*
X361Y15D01*
X360Y15D01*
X359Y14D01*
X357Y14D01*
X356Y14D01*
X354Y14D01*
X354D01*
X353Y14D01*
X352D01*
X352Y14D01*
X350Y14D01*
X349Y15D01*
X347Y16D01*
X345Y16D01*
X343Y18D01*
X343Y18D01*
X343Y18D01*
X342Y19D01*
X341Y20D01*
X341Y22D01*
X340Y23D01*
X339Y25D01*
X339Y27D01*
Y27D01*
Y28D01*
Y28D01*
X339Y29D01*
X340Y30D01*
X340Y31D01*
X340Y33D01*
X341Y34D01*
X342Y36D01*
X342Y36D01*
X342Y36D01*
X343Y37D01*
X343Y38D01*
X345Y39D01*
X346Y40D01*
X347Y41D01*
X349Y42D01*
X349D01*
X350Y42D01*
X350Y42D01*
X350Y42D01*
X351Y42D01*
X352Y42D01*
X353Y42D01*
X354Y43D01*
X355Y43D01*
X356Y43D01*
X358Y44D01*
X360Y44D01*
X362Y44D01*
X364Y44D01*
X366Y45D01*
X369Y45D01*
Y47D01*
Y48D01*
Y48D01*
Y48D01*
X369Y49D01*
X368Y50D01*
X368Y51D01*
X368Y52D01*
X367Y52D01*
X367Y53D01*
X366Y53D01*
X365Y54D01*
X364Y54D01*
X363Y54D01*
X362Y54D01*
X361D01*
X361Y54D01*
X359Y54D01*
X358Y54D01*
X357Y53D01*
X356Y52D01*
X355Y52D01*
X355Y51D01*
X354Y50D01*
X354Y49D01*
X354Y48D01*
X341Y49D01*
Y49D01*
X341Y49D01*
X341Y50D01*
X341Y50D01*
X341Y51D01*
X341Y52D01*
X342Y53D01*
X343Y55D01*
X344Y57D01*
X345Y58D01*
X346Y59D01*
X347Y60D01*
X348Y60D01*
X348D01*
X349Y60D01*
X349Y61D01*
X349Y61D01*
X350Y61D01*
X351Y61D01*
X352Y62D01*
X353Y62D01*
X355Y63D01*
X357Y63D01*
X360Y64D01*
X363Y64D01*
X364D01*
X365Y64D01*
D02*
G37*
G36*
X575D02*
X576D01*
X578Y63D01*
X579Y63D01*
X581Y63D01*
X583Y63D01*
X583D01*
X583Y62D01*
X584Y62D01*
X585Y62D01*
X586Y61D01*
X587Y61D01*
X588Y60D01*
X589Y59D01*
X589Y59D01*
X590Y59D01*
X590Y58D01*
X591Y58D01*
X591Y57D01*
X592Y56D01*
X592Y55D01*
X593Y54D01*
Y54D01*
X593Y54D01*
X593Y53D01*
X593Y52D01*
X593Y51D01*
X593Y50D01*
X594Y48D01*
Y46D01*
Y24D01*
Y24D01*
Y24D01*
Y23D01*
Y23D01*
Y22D01*
X594Y20D01*
X594Y19D01*
X594Y18D01*
X594Y16D01*
X594Y15D01*
X581D01*
Y15D01*
X581Y16D01*
X580Y16D01*
X580Y17D01*
X580Y18D01*
X580Y19D01*
X580Y21D01*
Y22D01*
X580Y22D01*
X579Y22D01*
X579Y21D01*
X578Y20D01*
X577Y18D01*
X575Y17D01*
X574Y16D01*
X573Y16D01*
X573Y16D01*
X572Y15D01*
X571Y15D01*
X570Y15D01*
X569Y14D01*
X568Y14D01*
X566Y14D01*
X565Y14D01*
X564D01*
X564Y14D01*
X563D01*
X562Y14D01*
X561Y14D01*
X559Y15D01*
X557Y16D01*
X555Y16D01*
X554Y18D01*
X554Y18D01*
X553Y18D01*
X552Y19D01*
X552Y20D01*
X551Y22D01*
X550Y23D01*
X550Y25D01*
X550Y27D01*
Y27D01*
Y28D01*
Y28D01*
X550Y29D01*
X550Y30D01*
X550Y31D01*
X551Y33D01*
X551Y34D01*
X552Y36D01*
X552Y36D01*
X553Y36D01*
X553Y37D01*
X554Y38D01*
X555Y39D01*
X556Y40D01*
X558Y41D01*
X560Y42D01*
X560D01*
X560Y42D01*
X560Y42D01*
X561Y42D01*
X562Y42D01*
X562Y42D01*
X563Y42D01*
X564Y43D01*
X566Y43D01*
X567Y43D01*
X569Y44D01*
X570Y44D01*
X572Y44D01*
X574Y44D01*
X577Y45D01*
X579Y45D01*
Y47D01*
Y48D01*
Y48D01*
Y48D01*
X579Y49D01*
X579Y50D01*
X578Y51D01*
X578Y52D01*
X578Y52D01*
X577Y53D01*
X576Y53D01*
X576Y54D01*
X575Y54D01*
X574Y54D01*
X572Y54D01*
X572D01*
X571Y54D01*
X570Y54D01*
X569Y54D01*
X567Y53D01*
X566Y52D01*
X566Y52D01*
X565Y51D01*
X565Y50D01*
X564Y49D01*
X564Y48D01*
X551Y49D01*
Y49D01*
X551Y49D01*
X551Y50D01*
X551Y50D01*
X552Y51D01*
X552Y52D01*
X553Y53D01*
X554Y55D01*
X555Y57D01*
X556Y58D01*
X557Y59D01*
X558Y60D01*
X559Y60D01*
X559D01*
X559Y60D01*
X559Y61D01*
X560Y61D01*
X561Y61D01*
X561Y61D01*
X562Y62D01*
X563Y62D01*
X565Y63D01*
X568Y63D01*
X571Y64D01*
X573Y64D01*
X574D01*
X575Y64D01*
D02*
G37*
G36*
X283Y15D02*
X267D01*
X263Y28D01*
X242D01*
X238Y15D01*
X225D01*
X246Y80D01*
X263D01*
X283Y15D01*
D02*
G37*
G36*
X898Y64D02*
X899Y64D01*
X900Y63D01*
X902Y63D01*
X903Y63D01*
X904Y62D01*
X906Y62D01*
X907Y61D01*
X908Y61D01*
X910Y60D01*
X911Y59D01*
X912Y58D01*
X914Y57D01*
X914Y56D01*
X914Y56D01*
X914Y56D01*
X915Y55D01*
X915Y55D01*
X916Y54D01*
X916Y53D01*
X917Y52D01*
X917Y50D01*
X918Y49D01*
X918Y48D01*
X919Y46D01*
X919Y44D01*
X919Y43D01*
X920Y41D01*
X920Y39D01*
Y39D01*
Y38D01*
Y38D01*
X920Y37D01*
X920Y36D01*
X919Y35D01*
X919Y34D01*
X919Y33D01*
X918Y30D01*
X918Y28D01*
X917Y27D01*
X916Y25D01*
X916Y24D01*
X914Y22D01*
X913Y21D01*
X913Y21D01*
X913Y21D01*
X913Y20D01*
X912Y20D01*
X912Y19D01*
X911Y19D01*
X910Y18D01*
X909Y18D01*
X908Y17D01*
X906Y16D01*
X905Y16D01*
X904Y15D01*
X902Y15D01*
X900Y14D01*
X898Y14D01*
X896Y14D01*
X895D01*
X895Y14D01*
X894Y14D01*
X893Y14D01*
X892Y15D01*
X891Y15D01*
X888Y16D01*
X887Y16D01*
X885Y17D01*
X884Y18D01*
X883Y19D01*
X881Y20D01*
X880Y21D01*
X880Y21D01*
X880Y21D01*
X880Y22D01*
X879Y22D01*
X879Y23D01*
X878Y24D01*
X878Y25D01*
X877Y26D01*
X877Y27D01*
X876Y28D01*
X876Y30D01*
X875Y31D01*
X875Y33D01*
X874Y35D01*
X874Y37D01*
X874Y39D01*
Y39D01*
Y39D01*
Y40D01*
Y40D01*
X874Y41D01*
Y42D01*
X874Y43D01*
X875Y45D01*
X875Y48D01*
X876Y50D01*
X877Y52D01*
Y52D01*
X877Y52D01*
X877Y52D01*
X877Y53D01*
X878Y54D01*
X879Y55D01*
X880Y56D01*
X881Y58D01*
X883Y59D01*
X884Y60D01*
X884D01*
X885Y61D01*
X885Y61D01*
X885Y61D01*
X886Y61D01*
X888Y62D01*
X889Y63D01*
X892Y63D01*
X894Y64D01*
X897Y64D01*
X898D01*
X898Y64D01*
D02*
G37*
G36*
X945Y63D02*
X955D01*
Y52D01*
X945D01*
Y32D01*
Y31D01*
Y31D01*
X945Y30D01*
Y30D01*
X945Y28D01*
X945Y27D01*
X946Y27D01*
X946D01*
X946Y26D01*
X946Y26D01*
X947Y26D01*
X948Y26D01*
X948Y25D01*
X950Y25D01*
X951Y25D01*
X954D01*
X956Y25D01*
Y15D01*
X955D01*
X955Y15D01*
X954Y15D01*
X953Y15D01*
X952Y14D01*
X951Y14D01*
X949Y14D01*
X948Y14D01*
X946D01*
X945Y14D01*
X945D01*
X944Y14D01*
X942Y14D01*
X940Y15D01*
X938Y15D01*
X936Y16D01*
X935Y17D01*
X934Y17D01*
X934Y18D01*
X934Y18D01*
X933Y19D01*
X933Y19D01*
X932Y20D01*
X932Y21D01*
X932Y22D01*
X931Y23D01*
X931Y24D01*
X931Y25D01*
X931Y27D01*
X930Y28D01*
Y30D01*
Y52D01*
X923D01*
Y63D01*
X931D01*
X932Y77D01*
X945Y78D01*
Y63D01*
D02*
G37*
G36*
X844Y80D02*
X845D01*
X847Y79D01*
X849Y79D01*
X851Y79D01*
X853Y78D01*
X855Y78D01*
X855D01*
X855Y78D01*
X856Y77D01*
X856Y77D01*
X857Y76D01*
X859Y75D01*
X860Y74D01*
X861Y73D01*
X863Y71D01*
Y71D01*
X863Y71D01*
X863Y70D01*
X863Y70D01*
X864Y69D01*
X864Y68D01*
X865Y66D01*
X865Y64D01*
X866Y62D01*
X866Y60D01*
Y60D01*
Y60D01*
X866Y59D01*
X866Y58D01*
X866Y57D01*
X865Y56D01*
X865Y55D01*
X864Y54D01*
X864Y52D01*
X863Y51D01*
X862Y50D01*
X861Y48D01*
X860Y47D01*
X858Y46D01*
X857Y44D01*
X855Y43D01*
X867Y15D01*
X850D01*
X840Y41D01*
X829D01*
Y15D01*
X814D01*
Y80D01*
X843D01*
X844Y80D01*
D02*
G37*
G36*
X976Y56D02*
X977Y57D01*
X977Y57D01*
X977Y57D01*
X978Y58D01*
X978Y59D01*
X979Y59D01*
X979Y60D01*
X980Y61D01*
X981Y61D01*
X982Y62D01*
X984Y63D01*
X985Y63D01*
X986Y63D01*
X988Y64D01*
X989Y64D01*
X990D01*
X991Y64D01*
X992Y63D01*
X993Y63D01*
X995Y63D01*
X996Y62D01*
X998Y62D01*
X998Y62D01*
X998Y61D01*
X999Y61D01*
X999Y60D01*
X1000Y59D01*
X1001Y58D01*
X1002Y57D01*
X1002Y56D01*
X1003Y56D01*
X1003Y56D01*
X1003Y55D01*
X1003Y54D01*
X1003Y52D01*
X1004Y51D01*
X1004Y49D01*
X1004Y46D01*
Y15D01*
X990D01*
Y42D01*
Y42D01*
Y42D01*
Y43D01*
Y44D01*
Y45D01*
X990Y47D01*
X989Y48D01*
X989Y48D01*
Y49D01*
X989Y49D01*
X989Y49D01*
X989Y50D01*
X988Y51D01*
X988Y52D01*
X987Y52D01*
X987Y52D01*
X987Y52D01*
X987Y52D01*
X986Y53D01*
X985Y53D01*
X984D01*
X983Y53D01*
X983Y52D01*
X982Y52D01*
X981Y52D01*
X980Y51D01*
X979Y51D01*
X979Y51D01*
X979Y50D01*
X978Y50D01*
X978Y49D01*
X977Y48D01*
X977Y46D01*
X977Y45D01*
X976Y44D01*
X976Y43D01*
Y42D01*
Y15D01*
X963D01*
Y80D01*
X976D01*
Y56D01*
D02*
G37*
G36*
X758Y64D02*
X759D01*
X761Y63D01*
X762Y63D01*
X764Y63D01*
X766Y63D01*
X766D01*
X766Y62D01*
X767Y62D01*
X768Y62D01*
X769Y61D01*
X770Y61D01*
X771Y60D01*
X772Y59D01*
X772Y59D01*
X773Y59D01*
X773Y58D01*
X774Y58D01*
X774Y57D01*
X775Y56D01*
X775Y55D01*
X776Y54D01*
Y54D01*
X776Y54D01*
X776Y53D01*
X776Y52D01*
X776Y51D01*
X776Y50D01*
X777Y48D01*
Y46D01*
Y24D01*
Y24D01*
Y24D01*
Y23D01*
Y23D01*
Y22D01*
X777Y20D01*
X777Y19D01*
X777Y18D01*
X777Y16D01*
X777Y15D01*
X764D01*
Y15D01*
X764Y16D01*
X764Y16D01*
X763Y17D01*
X763Y18D01*
X763Y19D01*
X763Y21D01*
Y22D01*
X763Y22D01*
X762Y22D01*
X762Y21D01*
X761Y20D01*
X760Y18D01*
X758Y17D01*
X757Y16D01*
X756Y16D01*
X756Y16D01*
X755Y15D01*
X754Y15D01*
X753Y15D01*
X752Y14D01*
X751Y14D01*
X749Y14D01*
X748Y14D01*
X747D01*
X747Y14D01*
X746D01*
X745Y14D01*
X744Y14D01*
X742Y15D01*
X740Y16D01*
X738Y16D01*
X737Y18D01*
X737Y18D01*
X736Y18D01*
X736Y19D01*
X735Y20D01*
X734Y22D01*
X733Y23D01*
X733Y25D01*
X733Y27D01*
Y27D01*
Y28D01*
Y28D01*
X733Y29D01*
X733Y30D01*
X733Y31D01*
X734Y33D01*
X734Y34D01*
X735Y36D01*
X735Y36D01*
X736Y36D01*
X736Y37D01*
X737Y38D01*
X738Y39D01*
X739Y40D01*
X741Y41D01*
X743Y42D01*
X743D01*
X743Y42D01*
X743Y42D01*
X744Y42D01*
X745Y42D01*
X745Y42D01*
X746Y42D01*
X747Y43D01*
X749Y43D01*
X750Y43D01*
X752Y44D01*
X753Y44D01*
X755Y44D01*
X758Y44D01*
X760Y45D01*
X762Y45D01*
Y47D01*
Y48D01*
Y48D01*
Y48D01*
X762Y49D01*
X762Y50D01*
X761Y51D01*
X761Y52D01*
X761Y52D01*
X760Y53D01*
X759Y53D01*
X759Y54D01*
X758Y54D01*
X757Y54D01*
X755Y54D01*
X755D01*
X754Y54D01*
X753Y54D01*
X752Y54D01*
X750Y53D01*
X749Y52D01*
X749Y52D01*
X748Y51D01*
X748Y50D01*
X747Y49D01*
X747Y48D01*
X734Y49D01*
Y49D01*
X734Y49D01*
X734Y50D01*
X735Y50D01*
X735Y51D01*
X735Y52D01*
X736Y53D01*
X737Y55D01*
X738Y57D01*
X739Y58D01*
X740Y59D01*
X741Y60D01*
X742Y60D01*
X742D01*
X742Y60D01*
X742Y61D01*
X743Y61D01*
X744Y61D01*
X744Y61D01*
X745Y62D01*
X746Y62D01*
X748Y63D01*
X751Y63D01*
X754Y64D01*
X756Y64D01*
X757D01*
X758Y64D01*
D02*
G37*
G36*
X680D02*
X681D01*
X683Y63D01*
X684Y63D01*
X686Y63D01*
X687Y63D01*
X688D01*
X688Y62D01*
X689Y62D01*
X690Y62D01*
X691Y61D01*
X692Y61D01*
X693Y60D01*
X694Y59D01*
X694Y59D01*
X695Y59D01*
X695Y58D01*
X696Y58D01*
X696Y57D01*
X697Y56D01*
X697Y55D01*
X697Y54D01*
Y54D01*
X698Y54D01*
X698Y53D01*
X698Y52D01*
X698Y51D01*
X698Y50D01*
X698Y48D01*
Y46D01*
Y24D01*
Y24D01*
Y24D01*
Y23D01*
Y23D01*
Y22D01*
X698Y20D01*
X699Y19D01*
X699Y18D01*
X699Y16D01*
X699Y15D01*
X686D01*
Y15D01*
X685Y16D01*
X685Y16D01*
X685Y17D01*
X685Y18D01*
X685Y19D01*
X685Y21D01*
Y22D01*
X685Y22D01*
X684Y22D01*
X684Y21D01*
X683Y20D01*
X681Y18D01*
X680Y17D01*
X679Y16D01*
X678Y16D01*
X677Y16D01*
X677Y15D01*
X676Y15D01*
X675Y15D01*
X674Y14D01*
X673Y14D01*
X671Y14D01*
X670Y14D01*
X669D01*
X668Y14D01*
X668D01*
X667Y14D01*
X666Y14D01*
X664Y15D01*
X662Y16D01*
X660Y16D01*
X659Y18D01*
X658Y18D01*
X658Y18D01*
X657Y19D01*
X657Y20D01*
X656Y22D01*
X655Y23D01*
X655Y25D01*
X655Y27D01*
Y27D01*
Y28D01*
Y28D01*
X655Y29D01*
X655Y30D01*
X655Y31D01*
X656Y33D01*
X656Y34D01*
X657Y36D01*
X657Y36D01*
X657Y36D01*
X658Y37D01*
X659Y38D01*
X660Y39D01*
X661Y40D01*
X663Y41D01*
X665Y42D01*
X665D01*
X665Y42D01*
X665Y42D01*
X666Y42D01*
X666Y42D01*
X667Y42D01*
X668Y42D01*
X669Y43D01*
X670Y43D01*
X672Y43D01*
X673Y44D01*
X675Y44D01*
X677Y44D01*
X679Y44D01*
X682Y45D01*
X684Y45D01*
Y47D01*
Y48D01*
Y48D01*
Y48D01*
X684Y49D01*
X684Y50D01*
X683Y51D01*
X683Y52D01*
X682Y52D01*
X682Y53D01*
X681Y53D01*
X680Y54D01*
X680Y54D01*
X678Y54D01*
X677Y54D01*
X676D01*
X676Y54D01*
X675Y54D01*
X673Y54D01*
X672Y53D01*
X671Y52D01*
X671Y52D01*
X670Y51D01*
X670Y50D01*
X669Y49D01*
X669Y48D01*
X656Y49D01*
Y49D01*
X656Y49D01*
X656Y50D01*
X656Y50D01*
X657Y51D01*
X657Y52D01*
X657Y53D01*
X658Y55D01*
X660Y57D01*
X661Y58D01*
X662Y59D01*
X663Y60D01*
X664Y60D01*
X664D01*
X664Y60D01*
X664Y61D01*
X665Y61D01*
X665Y61D01*
X666Y61D01*
X667Y62D01*
X668Y62D01*
X670Y63D01*
X673Y63D01*
X675Y64D01*
X678Y64D01*
X679D01*
X680Y64D01*
D02*
G37*
G36*
X724Y15D02*
X710D01*
Y80D01*
X724D01*
Y15D01*
D02*
G37*
G36*
X2580Y837D02*
X2581D01*
X2585Y837D01*
X2589Y837D01*
X2593Y836D01*
X2596Y835D01*
X2600Y834D01*
X2600D01*
X2600Y834D01*
X2601Y834D01*
X2603Y833D01*
X2605Y831D01*
X2607Y830D01*
X2610Y828D01*
X2612Y825D01*
X2615Y822D01*
Y822D01*
X2615Y822D01*
X2615Y821D01*
X2616Y821D01*
X2617Y819D01*
X2618Y817D01*
X2619Y813D01*
X2620Y810D01*
X2621Y806D01*
X2621Y801D01*
Y801D01*
Y801D01*
Y800D01*
X2621Y798D01*
X2621Y796D01*
X2620Y793D01*
X2620Y791D01*
X2619Y788D01*
X2618Y784D01*
X2617Y784D01*
X2617Y783D01*
X2616Y781D01*
X2615Y780D01*
X2614Y778D01*
X2612Y775D01*
X2610Y773D01*
X2608Y771D01*
X2608Y771D01*
X2607Y771D01*
X2606Y770D01*
X2604Y769D01*
X2602Y768D01*
X2600Y767D01*
X2598Y766D01*
X2596Y765D01*
X2596D01*
X2595Y765D01*
X2593Y765D01*
X2591Y764D01*
X2589Y764D01*
X2585Y764D01*
X2582Y764D01*
X2558D01*
Y720D01*
X2530D01*
Y838D01*
X2579D01*
X2580Y837D01*
D02*
G37*
G36*
X2661Y720D02*
X2635D01*
Y807D01*
X2661D01*
Y720D01*
D02*
G37*
G36*
X3204Y808D02*
X3206Y808D01*
X3208Y808D01*
X3210Y808D01*
X3212Y807D01*
X3214Y806D01*
X3217Y806D01*
X3220Y804D01*
X3222Y803D01*
X3225Y802D01*
X3227Y800D01*
X3229Y798D01*
X3232Y796D01*
X3232Y795D01*
X3232Y795D01*
X3233Y794D01*
X3234Y793D01*
X3234Y792D01*
X3235Y790D01*
X3236Y789D01*
X3237Y787D01*
X3238Y784D01*
X3239Y782D01*
X3240Y779D01*
X3241Y776D01*
X3242Y773D01*
X3242Y770D01*
X3243Y767D01*
X3243Y763D01*
Y763D01*
Y762D01*
Y761D01*
X3243Y760D01*
X3243Y758D01*
X3242Y756D01*
X3242Y754D01*
X3242Y752D01*
X3240Y747D01*
X3239Y744D01*
X3238Y741D01*
X3237Y739D01*
X3235Y736D01*
X3233Y733D01*
X3231Y731D01*
X3231Y731D01*
X3231Y730D01*
X3230Y730D01*
X3229Y729D01*
X3228Y728D01*
X3227Y727D01*
X3225Y726D01*
X3223Y725D01*
X3221Y723D01*
X3219Y722D01*
X3216Y721D01*
X3214Y720D01*
X3211Y719D01*
X3207Y719D01*
X3204Y718D01*
X3201Y718D01*
X3199D01*
X3197Y718D01*
X3196Y719D01*
X3194Y719D01*
X3192Y719D01*
X3190Y720D01*
X3185Y721D01*
X3183Y722D01*
X3180Y724D01*
X3178Y725D01*
X3175Y727D01*
X3173Y729D01*
X3171Y731D01*
X3171Y731D01*
X3170Y731D01*
X3170Y732D01*
X3169Y733D01*
X3168Y734D01*
X3167Y736D01*
X3167Y738D01*
X3165Y740D01*
X3164Y742D01*
X3163Y744D01*
X3162Y747D01*
X3162Y750D01*
X3161Y753D01*
X3160Y756D01*
X3160Y760D01*
X3160Y763D01*
Y764D01*
Y764D01*
Y765D01*
Y766D01*
X3160Y767D01*
Y768D01*
X3160Y772D01*
X3161Y775D01*
X3162Y779D01*
X3163Y783D01*
X3165Y787D01*
Y787D01*
X3165Y787D01*
X3165Y788D01*
X3166Y789D01*
X3167Y790D01*
X3168Y793D01*
X3170Y795D01*
X3173Y798D01*
X3175Y800D01*
X3179Y803D01*
X3179D01*
X3179Y803D01*
X3180Y803D01*
X3180Y803D01*
X3182Y804D01*
X3185Y806D01*
X3188Y807D01*
X3192Y808D01*
X3196Y808D01*
X3201Y809D01*
X3203D01*
X3204Y808D01*
D02*
G37*
G36*
X435Y161D02*
X419D01*
Y177D01*
X435D01*
Y161D01*
D02*
G37*
G36*
X2873Y808D02*
X2874Y808D01*
X2876Y808D01*
X2878Y808D01*
X2881Y807D01*
X2883Y806D01*
X2886Y806D01*
X2888Y804D01*
X2891Y803D01*
X2893Y802D01*
X2896Y800D01*
X2898Y798D01*
X2900Y796D01*
X2900Y795D01*
X2901Y795D01*
X2901Y794D01*
X2902Y793D01*
X2903Y792D01*
X2904Y790D01*
X2905Y789D01*
X2906Y787D01*
X2907Y784D01*
X2908Y782D01*
X2909Y779D01*
X2910Y776D01*
X2910Y773D01*
X2911Y770D01*
X2911Y767D01*
X2911Y763D01*
Y763D01*
Y762D01*
Y761D01*
X2911Y760D01*
X2911Y758D01*
X2911Y756D01*
X2911Y754D01*
X2910Y752D01*
X2909Y747D01*
X2908Y744D01*
X2906Y741D01*
X2905Y739D01*
X2904Y736D01*
X2902Y733D01*
X2900Y731D01*
X2900Y731D01*
X2899Y730D01*
X2899Y730D01*
X2898Y729D01*
X2896Y728D01*
X2895Y727D01*
X2894Y726D01*
X2892Y725D01*
X2890Y723D01*
X2887Y722D01*
X2885Y721D01*
X2882Y720D01*
X2879Y719D01*
X2876Y719D01*
X2873Y718D01*
X2869Y718D01*
X2867D01*
X2866Y718D01*
X2864Y719D01*
X2863Y719D01*
X2861Y719D01*
X2859Y720D01*
X2854Y721D01*
X2851Y722D01*
X2849Y724D01*
X2846Y725D01*
X2844Y727D01*
X2842Y729D01*
X2839Y731D01*
X2839Y731D01*
X2839Y731D01*
X2838Y732D01*
X2838Y733D01*
X2837Y734D01*
X2836Y736D01*
X2835Y738D01*
X2834Y740D01*
X2833Y742D01*
X2832Y744D01*
X2831Y747D01*
X2830Y750D01*
X2829Y753D01*
X2829Y756D01*
X2829Y760D01*
X2828Y763D01*
Y764D01*
Y764D01*
Y765D01*
Y766D01*
X2829Y767D01*
Y768D01*
X2829Y772D01*
X2830Y775D01*
X2830Y779D01*
X2832Y783D01*
X2833Y787D01*
Y787D01*
X2834Y787D01*
X2834Y788D01*
X2834Y789D01*
X2835Y790D01*
X2837Y793D01*
X2839Y795D01*
X2841Y798D01*
X2844Y800D01*
X2847Y803D01*
X2847D01*
X2847Y803D01*
X2848Y803D01*
X2849Y803D01*
X2851Y804D01*
X2853Y806D01*
X2856Y807D01*
X2860Y808D01*
X2864Y808D01*
X2869Y809D01*
X2871D01*
X2873Y808D01*
D02*
G37*
G36*
X3144Y720D02*
X3118D01*
Y838D01*
X3144D01*
Y720D01*
D02*
G37*
G36*
X3002D02*
X2978D01*
Y734D01*
X2978Y733D01*
X2978Y733D01*
X2977Y732D01*
X2976Y731D01*
X2975Y730D01*
X2974Y729D01*
X2973Y727D01*
X2972Y726D01*
X2968Y723D01*
X2964Y721D01*
X2962Y720D01*
X2959Y719D01*
X2957Y718D01*
X2954Y718D01*
X2953D01*
X2951Y718D01*
X2950Y719D01*
X2949Y719D01*
X2946Y720D01*
X2942Y721D01*
X2940Y722D01*
X2938Y723D01*
X2936Y724D01*
X2934Y726D01*
X2933Y728D01*
X2931Y730D01*
Y730D01*
X2931Y730D01*
X2930Y731D01*
X2930Y732D01*
X2929Y733D01*
X2929Y735D01*
X2928Y736D01*
X2927Y738D01*
X2926Y741D01*
X2926Y743D01*
X2925Y746D01*
X2924Y749D01*
X2924Y752D01*
X2923Y755D01*
X2923Y759D01*
X2923Y762D01*
Y763D01*
Y763D01*
Y764D01*
X2923Y766D01*
Y768D01*
X2923Y770D01*
X2924Y772D01*
X2924Y775D01*
X2925Y780D01*
X2926Y786D01*
X2929Y791D01*
X2930Y794D01*
X2931Y796D01*
X2931Y796D01*
X2932Y797D01*
X2932Y797D01*
X2933Y798D01*
X2934Y799D01*
X2935Y800D01*
X2936Y801D01*
X2937Y803D01*
X2941Y805D01*
X2945Y807D01*
X2947Y808D01*
X2950Y808D01*
X2953Y808D01*
X2955Y809D01*
X2957D01*
X2958Y808D01*
X2959Y808D01*
X2960Y808D01*
X2963Y807D01*
X2967Y806D01*
X2969Y805D01*
X2970Y804D01*
X2972Y803D01*
X2974Y801D01*
X2975Y800D01*
X2977Y798D01*
Y838D01*
X3002D01*
Y720D01*
D02*
G37*
G36*
X2661Y814D02*
X2635D01*
Y840D01*
X2661D01*
Y814D01*
D02*
G37*
G36*
X3293Y808D02*
X3294Y808D01*
X3297Y808D01*
X3301Y807D01*
X3304Y806D01*
X3308Y805D01*
X3311Y803D01*
X3311D01*
X3312Y803D01*
X3313Y802D01*
X3314Y801D01*
X3316Y799D01*
X3318Y796D01*
X3320Y793D01*
X3322Y790D01*
X3324Y786D01*
X3305Y781D01*
Y781D01*
X3305Y781D01*
X3305Y782D01*
X3305Y783D01*
X3304Y785D01*
X3302Y787D01*
X3300Y789D01*
X3298Y790D01*
X3297Y791D01*
X3295Y792D01*
X3293Y792D01*
X3291Y793D01*
X3288Y793D01*
X3287D01*
X3286Y793D01*
X3284Y792D01*
X3282Y792D01*
X3280Y791D01*
X3278Y789D01*
X3277Y788D01*
X3276Y787D01*
X3276Y786D01*
X3276Y785D01*
Y785D01*
Y784D01*
X3276Y784D01*
X3276Y783D01*
X3277Y781D01*
X3277Y781D01*
X3278Y780D01*
X3278D01*
X3278Y779D01*
X3279Y779D01*
X3280Y779D01*
X3282Y778D01*
X3284Y778D01*
X3287Y777D01*
X3290Y777D01*
X3291D01*
X3292Y776D01*
X3293Y776D01*
X3294Y776D01*
X3295Y776D01*
X3299Y775D01*
X3302Y775D01*
X3306Y774D01*
X3309Y773D01*
X3312Y772D01*
X3312Y772D01*
X3313Y771D01*
X3315Y771D01*
X3316Y770D01*
X3318Y769D01*
X3320Y767D01*
X3322Y766D01*
X3324Y763D01*
X3324Y763D01*
X3324Y762D01*
X3325Y761D01*
X3326Y759D01*
X3326Y757D01*
X3327Y755D01*
X3328Y752D01*
X3328Y748D01*
Y748D01*
Y748D01*
Y747D01*
X3328Y746D01*
X3327Y745D01*
X3327Y744D01*
X3326Y741D01*
X3325Y737D01*
X3323Y734D01*
X3322Y732D01*
X3321Y730D01*
X3319Y728D01*
X3317Y726D01*
X3317D01*
X3317Y726D01*
X3316Y726D01*
X3316Y725D01*
X3314Y725D01*
X3313Y724D01*
X3312Y723D01*
X3310Y722D01*
X3308Y721D01*
X3306Y721D01*
X3304Y720D01*
X3301Y719D01*
X3299Y719D01*
X3296Y719D01*
X3292Y718D01*
X3289Y718D01*
X3288D01*
X3286Y718D01*
X3284Y719D01*
X3281Y719D01*
X3278Y719D01*
X3275Y720D01*
X3272Y721D01*
X3268Y723D01*
X3265Y724D01*
X3262Y726D01*
X3258Y729D01*
X3255Y732D01*
X3253Y735D01*
X3251Y739D01*
X3249Y744D01*
X3271Y747D01*
Y747D01*
X3271Y746D01*
X3271Y746D01*
X3272Y745D01*
X3273Y743D01*
X3273Y742D01*
X3274Y741D01*
X3275Y740D01*
X3277Y739D01*
X3278Y738D01*
X3280Y737D01*
X3282Y736D01*
X3285Y736D01*
X3287Y736D01*
X3290Y735D01*
X3291D01*
X3292Y736D01*
X3294Y736D01*
X3296Y736D01*
X3297Y736D01*
X3299Y737D01*
X3301Y738D01*
X3301Y738D01*
X3302Y738D01*
X3302Y739D01*
X3303Y739D01*
X3304Y740D01*
X3305Y741D01*
X3305Y742D01*
X3305Y744D01*
Y744D01*
X3305Y745D01*
X3305Y746D01*
X3304Y747D01*
X3303Y748D01*
X3301Y749D01*
X3300Y750D01*
X3299Y750D01*
X3297Y751D01*
X3296Y751D01*
X3295D01*
X3294Y751D01*
X3293Y751D01*
X3291Y751D01*
X3289Y752D01*
X3287Y752D01*
X3284Y753D01*
X3281Y753D01*
X3276Y755D01*
X3270Y756D01*
X3267Y757D01*
X3265Y759D01*
X3263Y760D01*
X3261Y761D01*
X3261Y761D01*
X3260Y762D01*
X3258Y764D01*
X3257Y766D01*
X3255Y768D01*
X3254Y772D01*
X3253Y776D01*
X3253Y778D01*
X3253Y780D01*
Y780D01*
Y781D01*
Y781D01*
X3253Y782D01*
X3253Y783D01*
X3253Y784D01*
X3254Y787D01*
X3255Y791D01*
X3257Y794D01*
X3258Y796D01*
X3259Y797D01*
X3261Y799D01*
X3262Y801D01*
X3263Y801D01*
X3263Y801D01*
X3263Y801D01*
X3264Y802D01*
X3265Y802D01*
X3266Y803D01*
X3268Y804D01*
X3269Y805D01*
X3271Y805D01*
X3273Y806D01*
X3275Y807D01*
X3278Y807D01*
X3280Y808D01*
X3283Y808D01*
X3286Y809D01*
X3292D01*
X3293Y808D01*
D02*
G37*
G36*
X3097Y720D02*
X3073D01*
Y734D01*
X3073Y734D01*
X3073Y733D01*
X3072Y732D01*
X3071Y731D01*
X3070Y729D01*
X3069Y728D01*
X3068Y726D01*
X3066Y725D01*
X3064Y723D01*
X3062Y722D01*
X3060Y721D01*
X3057Y720D01*
X3054Y719D01*
X3051Y718D01*
X3048Y718D01*
X3046D01*
X3044Y718D01*
X3042Y719D01*
X3040Y719D01*
X3037Y720D01*
X3035Y721D01*
X3032Y722D01*
X3032Y722D01*
X3031Y722D01*
X3031Y723D01*
X3030Y724D01*
X3028Y726D01*
X3027Y727D01*
X3026Y729D01*
X3025Y732D01*
Y732D01*
X3025Y733D01*
X3024Y734D01*
X3024Y736D01*
X3023Y739D01*
X3023Y742D01*
X3023Y746D01*
X3023Y750D01*
Y807D01*
X3048D01*
Y750D01*
Y750D01*
Y749D01*
Y749D01*
X3048Y748D01*
X3048Y746D01*
X3049Y744D01*
X3050Y742D01*
X3052Y740D01*
X3053Y739D01*
X3054Y739D01*
X3055Y739D01*
X3057Y738D01*
X3058D01*
X3059Y739D01*
X3060Y739D01*
X3061Y739D01*
X3063Y739D01*
X3064Y740D01*
X3066Y741D01*
X3066Y741D01*
X3066Y742D01*
X3067Y742D01*
X3068Y743D01*
X3069Y745D01*
X3070Y746D01*
X3070Y747D01*
Y747D01*
X3070Y748D01*
X3071Y749D01*
X3071Y750D01*
X3071Y751D01*
X3071Y753D01*
X3071Y755D01*
Y758D01*
Y807D01*
X3097D01*
Y720D01*
D02*
G37*
G36*
X2811D02*
X2783D01*
Y816D01*
X2754Y720D01*
X2735D01*
X2706Y816D01*
Y720D01*
X2683D01*
Y838D01*
X2726D01*
X2746Y767D01*
X2768Y838D01*
X2811D01*
Y720D01*
D02*
G37*
G36*
X536Y158D02*
X537D01*
X537Y158D01*
X539Y158D01*
X541Y157D01*
X543Y156D01*
X545Y155D01*
X547Y154D01*
X547Y154D01*
X547Y154D01*
X547Y153D01*
X548Y153D01*
X548Y152D01*
X549Y152D01*
X549Y151D01*
X549Y150D01*
X550Y149D01*
X550Y147D01*
X551Y146D01*
X551Y144D01*
X551Y142D01*
X551Y141D01*
Y138D01*
Y105D01*
X536D01*
Y134D01*
Y134D01*
Y134D01*
Y135D01*
Y136D01*
Y137D01*
X536Y138D01*
X536Y140D01*
X535Y141D01*
X535Y141D01*
Y142D01*
X535Y142D01*
X535Y142D01*
X535Y143D01*
X534Y144D01*
X533Y145D01*
X533Y145D01*
X533Y145D01*
X533Y145D01*
X532Y146D01*
X532Y146D01*
X531Y146D01*
X530Y146D01*
X529Y146D01*
X529D01*
X529Y146D01*
X528Y146D01*
X527Y146D01*
X526Y145D01*
X525Y145D01*
X525Y144D01*
X524Y143D01*
X523Y142D01*
X523Y141D01*
X522Y140D01*
X522Y138D01*
X521Y136D01*
X521Y134D01*
Y105D01*
X506D01*
Y157D01*
X520D01*
Y148D01*
X520Y149D01*
X521Y149D01*
X521Y149D01*
X522Y150D01*
X522Y152D01*
X523Y153D01*
X525Y154D01*
X526Y155D01*
X527Y156D01*
X527Y156D01*
X528Y157D01*
X529Y157D01*
X529Y157D01*
X531Y158D01*
X532Y158D01*
X533Y158D01*
X535Y158D01*
X535D01*
X536Y158D01*
D02*
G37*
G36*
X390D02*
X390Y158D01*
X392Y158D01*
X394Y157D01*
X397Y157D01*
X399Y156D01*
X401Y155D01*
X401D01*
X401Y155D01*
X401Y154D01*
X402Y153D01*
X404Y152D01*
X405Y151D01*
X406Y149D01*
X407Y147D01*
X408Y144D01*
X397Y142D01*
Y142D01*
X397Y142D01*
X397Y142D01*
X397Y143D01*
X396Y144D01*
X395Y145D01*
X394Y146D01*
X393Y147D01*
X392Y148D01*
X391Y148D01*
X390Y148D01*
X388Y149D01*
X387Y149D01*
X386D01*
X386Y149D01*
X384Y148D01*
X383Y148D01*
X382Y148D01*
X380Y147D01*
X380Y146D01*
X380Y145D01*
X379Y145D01*
X379Y144D01*
Y144D01*
Y144D01*
X379Y143D01*
X379Y143D01*
X380Y142D01*
X380Y141D01*
X381Y141D01*
X381D01*
X381Y141D01*
X381Y140D01*
X382Y140D01*
X383Y140D01*
X384Y140D01*
X386Y139D01*
X388Y139D01*
X388D01*
X389Y139D01*
X389Y139D01*
X390Y139D01*
X391Y139D01*
X393Y138D01*
X395Y138D01*
X397Y137D01*
X399Y137D01*
X401Y136D01*
X401Y136D01*
X402Y136D01*
X403Y136D01*
X404Y135D01*
X405Y134D01*
X406Y133D01*
X407Y132D01*
X408Y131D01*
X408Y131D01*
X408Y130D01*
X409Y130D01*
X409Y129D01*
X410Y127D01*
X410Y126D01*
X410Y124D01*
X411Y122D01*
Y122D01*
Y122D01*
Y121D01*
X410Y121D01*
X410Y120D01*
X410Y119D01*
X410Y117D01*
X409Y115D01*
X408Y113D01*
X407Y112D01*
X406Y111D01*
X405Y110D01*
X404Y109D01*
X404D01*
X404Y109D01*
X404Y108D01*
X403Y108D01*
X403Y108D01*
X402Y107D01*
X401Y107D01*
X400Y106D01*
X399Y106D01*
X398Y105D01*
X396Y105D01*
X395Y105D01*
X393Y104D01*
X391Y104D01*
X389Y104D01*
X387Y104D01*
X386D01*
X385Y104D01*
X384Y104D01*
X383Y104D01*
X381Y105D01*
X379Y105D01*
X377Y106D01*
X375Y107D01*
X373Y108D01*
X371Y109D01*
X369Y110D01*
X367Y112D01*
X366Y114D01*
X364Y117D01*
X364Y119D01*
X376Y121D01*
Y121D01*
X377Y121D01*
X377Y121D01*
X377Y120D01*
X377Y119D01*
X378Y118D01*
X378Y118D01*
X379Y117D01*
X380Y116D01*
X381Y116D01*
X382Y115D01*
X383Y115D01*
X385Y115D01*
X386Y114D01*
X388Y114D01*
X389D01*
X389Y114D01*
X390Y114D01*
X391Y115D01*
X392Y115D01*
X393Y115D01*
X394Y116D01*
X395Y116D01*
X395Y116D01*
X395Y116D01*
X396Y117D01*
X396Y117D01*
X397Y118D01*
X397Y118D01*
X397Y119D01*
Y119D01*
X397Y120D01*
X397Y120D01*
X396Y121D01*
X396Y122D01*
X395Y123D01*
X394Y123D01*
X393Y123D01*
X392Y123D01*
X391Y123D01*
X391D01*
X391Y124D01*
X390Y124D01*
X389Y124D01*
X387Y124D01*
X386Y124D01*
X384Y125D01*
X383Y125D01*
X379Y126D01*
X376Y127D01*
X374Y127D01*
X373Y128D01*
X372Y129D01*
X370Y130D01*
X370Y130D01*
X370Y130D01*
X369Y131D01*
X368Y133D01*
X367Y134D01*
X366Y136D01*
X366Y138D01*
X366Y140D01*
X366Y141D01*
Y141D01*
Y141D01*
Y142D01*
X366Y142D01*
X366Y143D01*
X366Y144D01*
X366Y145D01*
X367Y147D01*
X368Y149D01*
X369Y150D01*
X369Y151D01*
X370Y152D01*
X371Y153D01*
X371Y153D01*
X372Y154D01*
X372Y154D01*
X372Y154D01*
X373Y154D01*
X374Y155D01*
X375Y155D01*
X376Y156D01*
X377Y156D01*
X378Y157D01*
X379Y157D01*
X381Y157D01*
X382Y158D01*
X384Y158D01*
X386Y158D01*
X389D01*
X390Y158D01*
D02*
G37*
G36*
X665Y105D02*
X651D01*
Y113D01*
X651Y113D01*
X650Y113D01*
X650Y112D01*
X650Y112D01*
X649Y111D01*
X649Y110D01*
X648Y109D01*
X647Y109D01*
X645Y107D01*
X642Y105D01*
X641Y105D01*
X639Y104D01*
X638Y104D01*
X636Y104D01*
X635D01*
X635Y104D01*
X634Y104D01*
X633Y104D01*
X631Y105D01*
X629Y106D01*
X628Y106D01*
X627Y107D01*
X626Y108D01*
X625Y109D01*
X624Y110D01*
X623Y111D01*
Y111D01*
X622Y111D01*
X622Y112D01*
X622Y112D01*
X621Y113D01*
X621Y114D01*
X621Y115D01*
X620Y116D01*
X620Y117D01*
X619Y119D01*
X619Y120D01*
X618Y122D01*
X618Y124D01*
X618Y126D01*
X618Y128D01*
X618Y130D01*
Y131D01*
Y131D01*
Y132D01*
X618Y133D01*
Y134D01*
X618Y135D01*
X618Y136D01*
X618Y138D01*
X619Y141D01*
X620Y145D01*
X621Y148D01*
X622Y149D01*
X623Y151D01*
X623Y151D01*
X623Y151D01*
X623Y151D01*
X624Y152D01*
X624Y153D01*
X625Y153D01*
X625Y154D01*
X626Y155D01*
X628Y156D01*
X631Y157D01*
X632Y158D01*
X634Y158D01*
X635Y158D01*
X637Y158D01*
X638D01*
X638Y158D01*
X639Y158D01*
X640Y158D01*
X642Y157D01*
X644Y157D01*
X645Y156D01*
X646Y155D01*
X647Y155D01*
X648Y154D01*
X649Y153D01*
X650Y152D01*
Y176D01*
X665D01*
Y105D01*
D02*
G37*
G36*
X498Y166D02*
X500Y166D01*
Y156D01*
X499D01*
X499Y156D01*
X499Y156D01*
X498Y156D01*
X497Y156D01*
X495Y156D01*
X495D01*
X495Y156D01*
X494Y156D01*
X493Y156D01*
X492Y155D01*
X491Y155D01*
X490Y153D01*
X489Y152D01*
X490Y152D01*
X490Y151D01*
X491Y150D01*
X492Y149D01*
X492Y148D01*
X493Y146D01*
X493Y144D01*
X494Y142D01*
Y142D01*
Y142D01*
Y141D01*
X494Y141D01*
X493Y140D01*
X493Y139D01*
X493Y138D01*
X492Y136D01*
X491Y134D01*
X490Y133D01*
X490Y132D01*
X489Y131D01*
X487Y130D01*
X487D01*
X487Y130D01*
X487Y130D01*
X486Y130D01*
X486Y129D01*
X485Y129D01*
X484Y128D01*
X483Y128D01*
X482Y128D01*
X480Y127D01*
X479Y127D01*
X477Y127D01*
X476Y126D01*
X474Y126D01*
X472Y126D01*
X468D01*
X467Y126D01*
X466Y126D01*
X465Y126D01*
X462Y127D01*
X461Y127D01*
X461Y126D01*
X461Y126D01*
X460Y126D01*
X460Y125D01*
X459Y124D01*
X459Y124D01*
X459Y123D01*
Y123D01*
Y122D01*
X459Y122D01*
X459Y121D01*
X460Y121D01*
X460Y120D01*
X460Y120D01*
X461Y119D01*
X461D01*
X462Y119D01*
X462Y119D01*
X463Y119D01*
X464Y119D01*
X465Y118D01*
X466Y118D01*
X467Y118D01*
X468Y118D01*
X469Y118D01*
X470D01*
X472Y118D01*
X472D01*
X473Y118D01*
X474D01*
X475Y118D01*
X476D01*
X478Y117D01*
X481Y117D01*
X484Y117D01*
X485Y117D01*
X486Y117D01*
X488Y117D01*
X488Y116D01*
X489D01*
X489Y116D01*
X490Y116D01*
X491Y115D01*
X492Y115D01*
X494Y114D01*
X495Y113D01*
X496Y112D01*
X496Y112D01*
X497Y112D01*
X497Y111D01*
X498Y110D01*
X498Y109D01*
X499Y107D01*
X499Y106D01*
X499Y104D01*
Y104D01*
Y103D01*
Y103D01*
X499Y103D01*
X499Y102D01*
X499Y101D01*
X498Y100D01*
X498Y98D01*
X497Y97D01*
X496Y96D01*
X496Y95D01*
X495Y94D01*
X494Y93D01*
X493Y92D01*
X492D01*
X492Y91D01*
X492Y91D01*
X491Y91D01*
X490Y91D01*
X490Y90D01*
X488Y90D01*
X487Y89D01*
X486Y89D01*
X484Y88D01*
X482Y88D01*
X480Y87D01*
X477Y87D01*
X475Y87D01*
X472Y87D01*
X469Y87D01*
X468D01*
X466Y87D01*
X465D01*
X464Y87D01*
X462Y87D01*
X460Y87D01*
X457Y88D01*
X453Y88D01*
X452Y89D01*
X450Y89D01*
X449Y90D01*
X448Y90D01*
X447D01*
X447Y90D01*
X447Y91D01*
X446Y91D01*
X445Y93D01*
X444Y94D01*
X443Y95D01*
X442Y97D01*
X442Y98D01*
X442Y99D01*
Y99D01*
Y99D01*
X442Y100D01*
Y100D01*
X443Y101D01*
X443Y103D01*
X444Y103D01*
X444Y104D01*
X445Y105D01*
X446Y106D01*
X447Y106D01*
X448Y107D01*
X449Y108D01*
X451Y108D01*
X451D01*
X451Y108D01*
X450Y108D01*
X450Y109D01*
X449Y109D01*
X448Y111D01*
X447Y112D01*
X445Y113D01*
X445Y114D01*
X445Y115D01*
X445Y116D01*
X444Y117D01*
Y118D01*
Y118D01*
X445Y118D01*
X445Y119D01*
X445Y119D01*
X445Y120D01*
X445Y121D01*
X446Y122D01*
X446Y123D01*
X447Y124D01*
X448Y125D01*
X449Y126D01*
X450Y126D01*
X451Y127D01*
X453Y128D01*
X455Y129D01*
X455D01*
X454Y129D01*
X454Y130D01*
X453Y130D01*
X452Y131D01*
X450Y132D01*
X449Y134D01*
X448Y135D01*
X447Y136D01*
X447Y137D01*
X446Y139D01*
X446Y140D01*
X446Y142D01*
Y142D01*
Y142D01*
Y143D01*
X446Y143D01*
X446Y144D01*
X446Y144D01*
X446Y146D01*
X447Y148D01*
X448Y149D01*
X448Y150D01*
X449Y151D01*
X450Y152D01*
X451Y153D01*
X452Y154D01*
X452D01*
X452Y154D01*
X453Y154D01*
X453Y154D01*
X454Y155D01*
X455Y155D01*
X456Y156D01*
X457Y156D01*
X458Y156D01*
X459Y157D01*
X461Y157D01*
X462Y158D01*
X464Y158D01*
X466Y158D01*
X468Y158D01*
X471D01*
X471Y158D01*
X472D01*
X474Y158D01*
X476Y158D01*
X478Y157D01*
X481Y157D01*
X483Y156D01*
Y156D01*
X484Y157D01*
X484Y157D01*
X484Y158D01*
X484Y160D01*
X485Y161D01*
X485Y162D01*
X486Y163D01*
X486Y163D01*
X486Y164D01*
X487Y164D01*
X488Y165D01*
X489Y165D01*
X491Y166D01*
X493Y166D01*
X494Y166D01*
X497D01*
X498Y166D01*
D02*
G37*
%LPC*%
G36*
X2964Y791D02*
X2964D01*
X2963Y791D01*
X2962Y791D01*
X2961Y790D01*
X2960Y789D01*
X2958Y788D01*
X2957Y787D01*
X2956Y786D01*
X2954Y784D01*
X2953Y781D01*
X2952Y779D01*
X2951Y775D01*
X2950Y771D01*
X2950Y767D01*
X2949Y762D01*
Y761D01*
Y761D01*
X2950Y759D01*
Y758D01*
X2950Y756D01*
X2950Y754D01*
X2951Y749D01*
X2952Y747D01*
X2953Y744D01*
X2954Y742D01*
X2955Y740D01*
X2957Y739D01*
X2959Y737D01*
X2961Y737D01*
X2963Y736D01*
X2964D01*
X2965Y736D01*
X2966Y737D01*
X2968Y737D01*
X2970Y738D01*
X2971Y739D01*
X2973Y741D01*
X2973Y741D01*
X2973Y742D01*
X2974Y743D01*
X2975Y744D01*
X2976Y746D01*
X2976Y749D01*
X2977Y751D01*
X2977Y754D01*
Y770D01*
Y771D01*
Y771D01*
Y772D01*
X2977Y773D01*
X2976Y775D01*
X2976Y777D01*
X2975Y781D01*
X2974Y784D01*
X2973Y786D01*
X2971Y788D01*
X2970Y789D01*
X2968Y790D01*
X2966Y791D01*
X2964Y791D01*
D02*
G37*
G36*
X728Y148D02*
X727D01*
X726Y148D01*
X725Y147D01*
X724Y147D01*
X723Y147D01*
X722Y146D01*
X722Y145D01*
X721Y145D01*
X721Y144D01*
X721Y143D01*
X721Y142D01*
X720Y141D01*
X720Y139D01*
X720Y138D01*
X719Y136D01*
Y126D01*
Y125D01*
Y125D01*
Y125D01*
X720Y124D01*
X720Y122D01*
X720Y121D01*
X720Y120D01*
X721Y118D01*
X722Y117D01*
X722Y117D01*
X722Y117D01*
X723Y116D01*
X723Y116D01*
X724Y115D01*
X725Y115D01*
X726Y115D01*
X727Y115D01*
X727D01*
X728Y115D01*
X728Y115D01*
X729Y115D01*
X730Y115D01*
X731Y116D01*
X732Y117D01*
X733Y118D01*
X733Y118D01*
X734Y119D01*
X734Y119D01*
X734Y120D01*
X735Y121D01*
X735Y122D01*
X735Y123D01*
X735Y124D01*
X735Y125D01*
X736Y126D01*
X736Y128D01*
X736Y129D01*
Y131D01*
Y131D01*
Y131D01*
Y132D01*
Y133D01*
X736Y134D01*
Y135D01*
X736Y137D01*
X735Y139D01*
X735Y142D01*
X735Y143D01*
X734Y144D01*
X734Y144D01*
X733Y145D01*
X733Y145D01*
X733Y145D01*
X732Y146D01*
X732Y146D01*
X731Y147D01*
X730Y147D01*
X729Y148D01*
X728Y148D01*
D02*
G37*
G36*
X3202Y792D02*
X3200D01*
X3199Y791D01*
X3197Y791D01*
X3196Y790D01*
X3194Y789D01*
X3192Y788D01*
X3190Y786D01*
X3190Y786D01*
X3190Y785D01*
X3189Y783D01*
X3189Y782D01*
X3189Y781D01*
X3188Y780D01*
X3188Y778D01*
X3188Y776D01*
X3187Y774D01*
X3187Y772D01*
X3187Y769D01*
X3187Y767D01*
Y764D01*
Y763D01*
Y763D01*
Y762D01*
Y761D01*
X3187Y760D01*
Y759D01*
X3187Y755D01*
X3188Y752D01*
X3188Y748D01*
X3189Y744D01*
X3190Y743D01*
X3190Y742D01*
X3190Y741D01*
X3191Y741D01*
X3192Y740D01*
X3193Y738D01*
X3195Y737D01*
X3196Y736D01*
X3199Y735D01*
X3201Y735D01*
X3202D01*
X3202Y735D01*
X3204Y735D01*
X3205Y736D01*
X3207Y736D01*
X3209Y737D01*
X3210Y739D01*
X3212Y741D01*
X3212Y741D01*
X3212Y742D01*
X3213Y743D01*
X3214Y744D01*
X3214Y745D01*
X3214Y747D01*
X3215Y748D01*
X3215Y750D01*
X3215Y752D01*
X3216Y754D01*
X3216Y757D01*
X3216Y759D01*
Y762D01*
Y763D01*
Y763D01*
Y764D01*
Y765D01*
X3216Y767D01*
Y768D01*
X3216Y772D01*
X3215Y776D01*
X3214Y779D01*
X3214Y783D01*
X3213Y784D01*
X3212Y786D01*
X3212Y786D01*
X3212Y787D01*
X3211Y788D01*
X3210Y789D01*
X3208Y790D01*
X3206Y791D01*
X3204Y792D01*
X3202Y792D01*
D02*
G37*
G36*
X2870D02*
X2869D01*
X2867Y791D01*
X2866Y791D01*
X2864Y790D01*
X2862Y789D01*
X2860Y788D01*
X2859Y786D01*
X2859Y786D01*
X2858Y785D01*
X2858Y783D01*
X2857Y782D01*
X2857Y781D01*
X2857Y780D01*
X2857Y778D01*
X2856Y776D01*
X2856Y774D01*
X2856Y772D01*
X2856Y769D01*
X2855Y767D01*
Y764D01*
Y763D01*
Y763D01*
Y762D01*
Y761D01*
X2856Y760D01*
Y759D01*
X2856Y755D01*
X2856Y752D01*
X2857Y748D01*
X2858Y744D01*
X2858Y743D01*
X2859Y742D01*
X2859Y741D01*
X2859Y741D01*
X2860Y740D01*
X2862Y738D01*
X2863Y737D01*
X2865Y736D01*
X2867Y735D01*
X2870Y735D01*
X2870D01*
X2871Y735D01*
X2872Y735D01*
X2874Y736D01*
X2875Y736D01*
X2877Y737D01*
X2879Y739D01*
X2880Y741D01*
X2881Y741D01*
X2881Y742D01*
X2882Y743D01*
X2882Y744D01*
X2882Y745D01*
X2883Y747D01*
X2883Y748D01*
X2884Y750D01*
X2884Y752D01*
X2884Y754D01*
X2884Y757D01*
X2884Y759D01*
Y762D01*
Y763D01*
Y763D01*
Y764D01*
Y765D01*
X2884Y767D01*
Y768D01*
X2884Y772D01*
X2884Y776D01*
X2883Y779D01*
X2882Y783D01*
X2882Y784D01*
X2881Y786D01*
X2881Y786D01*
X2880Y787D01*
X2879Y788D01*
X2878Y789D01*
X2877Y790D01*
X2875Y791D01*
X2873Y792D01*
X2870Y792D01*
D02*
G37*
G36*
X587Y148D02*
X586D01*
X586Y148D01*
X585D01*
X584Y148D01*
X583Y147D01*
X582Y147D01*
X581Y146D01*
X581Y145D01*
X580Y145D01*
X579Y144D01*
X578Y142D01*
X578Y141D01*
X577Y139D01*
X577Y137D01*
X596D01*
Y137D01*
Y138D01*
X596Y138D01*
X595Y139D01*
X595Y140D01*
X595Y141D01*
X594Y143D01*
X594Y144D01*
X593Y145D01*
X592Y146D01*
X592Y146D01*
X591Y147D01*
X589Y148D01*
X588Y148D01*
X587Y148D01*
D02*
G37*
G36*
X2575Y816D02*
X2557D01*
Y785D01*
X2576D01*
X2578Y785D01*
X2580Y786D01*
X2583Y786D01*
X2585Y787D01*
X2587Y788D01*
X2589Y790D01*
X2589Y790D01*
X2590Y791D01*
X2590Y791D01*
X2591Y793D01*
X2592Y794D01*
X2593Y796D01*
X2593Y798D01*
X2593Y801D01*
Y801D01*
Y802D01*
X2593Y803D01*
X2593Y805D01*
X2592Y806D01*
X2591Y808D01*
X2590Y810D01*
X2589Y812D01*
X2588Y812D01*
X2588Y813D01*
X2587Y813D01*
X2585Y814D01*
X2583Y815D01*
X2581Y816D01*
X2578Y816D01*
X2575Y816D01*
D02*
G37*
G36*
X336Y148D02*
X335D01*
X335Y148D01*
X334D01*
X333Y148D01*
X332Y147D01*
X331Y147D01*
X330Y146D01*
X330Y145D01*
X329Y145D01*
X328Y144D01*
X327Y142D01*
X327Y141D01*
X326Y139D01*
X326Y137D01*
X345D01*
Y137D01*
Y138D01*
X344Y138D01*
X344Y139D01*
X344Y140D01*
X344Y141D01*
X343Y143D01*
X343Y144D01*
X342Y145D01*
X341Y146D01*
X340Y146D01*
X340Y147D01*
X338Y148D01*
X337Y148D01*
X336Y148D01*
D02*
G37*
G36*
X470Y150D02*
X469D01*
X468Y150D01*
X467Y150D01*
X466Y149D01*
X465Y149D01*
X464Y148D01*
X463Y148D01*
X463Y148D01*
X463Y147D01*
X463Y147D01*
X462Y146D01*
X462Y145D01*
X461Y144D01*
X461Y143D01*
X461Y142D01*
Y142D01*
Y142D01*
X461Y141D01*
Y141D01*
X462Y140D01*
X462Y138D01*
X463Y137D01*
X463Y137D01*
X464Y136D01*
X465Y135D01*
X466Y135D01*
X467Y135D01*
X468Y134D01*
X470Y134D01*
X470D01*
X471Y134D01*
X472Y135D01*
X473Y135D01*
X474Y135D01*
X475Y136D01*
X476Y136D01*
X476Y137D01*
X476Y137D01*
X477Y137D01*
X477Y138D01*
X478Y139D01*
X478Y140D01*
X478Y141D01*
X478Y142D01*
Y142D01*
Y143D01*
X478Y143D01*
X478Y144D01*
X478Y145D01*
X478Y146D01*
X477Y147D01*
X476Y147D01*
X476Y148D01*
X476Y148D01*
X475Y148D01*
X475Y149D01*
X474Y149D01*
X472Y150D01*
X471Y150D01*
X470Y150D01*
D02*
G37*
G36*
X642Y148D02*
X642D01*
X642Y147D01*
X641Y147D01*
X640Y147D01*
X640Y147D01*
X639Y146D01*
X638Y145D01*
X637Y144D01*
X636Y143D01*
X636Y142D01*
X635Y140D01*
X634Y138D01*
X634Y136D01*
X634Y133D01*
X634Y130D01*
Y130D01*
Y129D01*
X634Y129D01*
Y128D01*
X634Y127D01*
X634Y125D01*
X635Y122D01*
X635Y121D01*
X636Y120D01*
X636Y118D01*
X637Y117D01*
X638Y116D01*
X639Y115D01*
X640Y115D01*
X642Y115D01*
X642D01*
X643Y115D01*
X644Y115D01*
X645Y115D01*
X646Y116D01*
X647Y117D01*
X648Y118D01*
X648Y118D01*
X648Y118D01*
X648Y119D01*
X649Y120D01*
X649Y121D01*
X650Y122D01*
X650Y124D01*
X650Y125D01*
Y135D01*
Y135D01*
Y136D01*
Y136D01*
X650Y137D01*
X650Y138D01*
X650Y139D01*
X649Y141D01*
X648Y144D01*
X648Y145D01*
X647Y146D01*
X646Y146D01*
X645Y147D01*
X644Y147D01*
X642Y148D01*
D02*
G37*
G36*
X268Y163D02*
X261D01*
Y118D01*
X269D01*
X269Y118D01*
X270Y118D01*
X271Y119D01*
X273Y119D01*
X275Y120D01*
X276Y120D01*
X277Y121D01*
X278Y122D01*
X280Y123D01*
X280Y124D01*
X281Y125D01*
Y125D01*
X282Y125D01*
X282Y126D01*
X282Y126D01*
X282Y127D01*
X283Y128D01*
X283Y128D01*
X284Y129D01*
X284Y132D01*
X285Y134D01*
X286Y137D01*
X286Y141D01*
Y141D01*
Y141D01*
Y141D01*
Y142D01*
X286Y143D01*
X285Y145D01*
X285Y147D01*
X285Y149D01*
X284Y151D01*
X283Y153D01*
Y153D01*
X283Y153D01*
X283Y154D01*
X282Y155D01*
X282Y156D01*
X281Y157D01*
X280Y158D01*
X278Y159D01*
X277Y160D01*
X277Y160D01*
X276Y161D01*
X276Y161D01*
X275Y161D01*
X273Y162D01*
X272Y162D01*
X270Y162D01*
X268Y163D01*
D02*
G37*
G36*
X625Y54D02*
X625D01*
X625Y54D01*
X624Y54D01*
X623Y53D01*
X623Y53D01*
X622Y53D01*
X621Y52D01*
X620Y51D01*
X620Y50D01*
X619Y49D01*
X618Y47D01*
X618Y45D01*
X617Y43D01*
X617Y41D01*
X617Y38D01*
Y38D01*
Y37D01*
X617Y37D01*
Y36D01*
X617Y35D01*
X618Y34D01*
X618Y31D01*
X618Y30D01*
X619Y28D01*
X620Y27D01*
X620Y26D01*
X621Y25D01*
X622Y25D01*
X623Y24D01*
X625Y24D01*
X625D01*
X626Y24D01*
X626Y24D01*
X627Y25D01*
X628Y25D01*
X629Y26D01*
X630Y27D01*
X630Y27D01*
X630Y27D01*
X631Y28D01*
X631Y28D01*
X631Y29D01*
X632Y31D01*
X632Y32D01*
X632Y34D01*
Y43D01*
Y43D01*
Y43D01*
Y44D01*
X632Y44D01*
X632Y45D01*
X632Y46D01*
X631Y48D01*
X630Y50D01*
X630Y51D01*
X629Y52D01*
X629Y53D01*
X628Y53D01*
X626Y54D01*
X625Y54D01*
D02*
G37*
G36*
X310D02*
X310D01*
X309Y54D01*
X309Y54D01*
X308Y53D01*
X307Y53D01*
X307Y53D01*
X306Y52D01*
X305Y51D01*
X304Y50D01*
X304Y49D01*
X303Y47D01*
X302Y45D01*
X302Y43D01*
X302Y41D01*
X302Y38D01*
Y38D01*
Y37D01*
X302Y37D01*
Y36D01*
X302Y35D01*
X302Y34D01*
X303Y31D01*
X303Y30D01*
X304Y28D01*
X304Y27D01*
X305Y26D01*
X306Y25D01*
X307Y25D01*
X308Y24D01*
X309Y24D01*
X310D01*
X310Y24D01*
X311Y24D01*
X312Y25D01*
X313Y25D01*
X314Y26D01*
X315Y27D01*
X315Y27D01*
X315Y27D01*
X315Y28D01*
X316Y28D01*
X316Y29D01*
X317Y31D01*
X317Y32D01*
X317Y34D01*
Y43D01*
Y43D01*
Y43D01*
Y44D01*
X317Y44D01*
X317Y45D01*
X316Y46D01*
X316Y48D01*
X315Y50D01*
X315Y51D01*
X314Y52D01*
X313Y53D01*
X312Y53D01*
X311Y54D01*
X310Y54D01*
D02*
G37*
G36*
X253Y63D02*
X246Y40D01*
X260D01*
X253Y63D01*
D02*
G37*
G36*
X460Y105D02*
X459D01*
X458Y105D01*
X458Y105D01*
X457Y104D01*
X457Y104D01*
X456Y103D01*
X456Y102D01*
X456Y102D01*
X455Y101D01*
Y101D01*
X456Y101D01*
X456Y100D01*
X456Y99D01*
X457Y99D01*
X457Y98D01*
X458Y97D01*
X460Y97D01*
X460D01*
X461Y97D01*
X462Y97D01*
X463Y96D01*
X464Y96D01*
X466Y96D01*
X468Y96D01*
X472D01*
X473Y96D01*
X475D01*
X477Y96D01*
X478Y96D01*
X480Y97D01*
X482Y97D01*
X482Y97D01*
X482Y97D01*
X483Y98D01*
X483Y98D01*
X484Y99D01*
X484Y99D01*
X485Y100D01*
X485Y101D01*
Y101D01*
Y101D01*
X485Y102D01*
X484Y102D01*
X484Y103D01*
X484Y103D01*
X483Y104D01*
X482Y104D01*
X482D01*
X482Y104D01*
X481Y104D01*
X481Y104D01*
X480Y105D01*
X479Y105D01*
X478D01*
X477Y105D01*
X476Y105D01*
X475Y105D01*
X473D01*
X472Y105D01*
X468D01*
X465Y105D01*
X462D01*
X461Y105D01*
X461D01*
X460Y105D01*
X460Y105D01*
D02*
G37*
G36*
X840Y68D02*
X829D01*
Y52D01*
X840D01*
X841Y52D01*
X843Y52D01*
X844Y52D01*
X845Y52D01*
X845D01*
X845Y52D01*
X846Y52D01*
X846Y53D01*
X847Y53D01*
X847Y54D01*
X848Y54D01*
X849Y55D01*
X849Y55D01*
X849Y55D01*
X849Y56D01*
X849Y56D01*
X850Y57D01*
X850Y58D01*
X850Y59D01*
X850Y60D01*
Y60D01*
Y61D01*
X850Y61D01*
X850Y62D01*
X850Y62D01*
X850Y63D01*
X849Y64D01*
X849Y65D01*
X849Y65D01*
X848Y65D01*
X848Y66D01*
X848Y66D01*
X846Y67D01*
X846Y67D01*
X845Y68D01*
X845D01*
X845Y68D01*
X844Y68D01*
X844Y68D01*
X843D01*
X841Y68D01*
X840Y68D01*
D02*
G37*
G36*
X579Y38D02*
X579D01*
X579Y38D01*
X578Y38D01*
X577Y38D01*
X576Y37D01*
X575Y37D01*
X572Y36D01*
X569Y35D01*
X568Y34D01*
X567Y33D01*
X566Y33D01*
X565Y31D01*
X565Y30D01*
X565Y29D01*
Y29D01*
Y28D01*
X565Y28D01*
X565Y27D01*
X565Y27D01*
X565Y26D01*
X566Y25D01*
X566Y24D01*
X566Y24D01*
X566Y24D01*
X567Y24D01*
X567Y24D01*
X568Y23D01*
X569Y23D01*
X569Y23D01*
X571Y23D01*
X571D01*
X571Y23D01*
X572Y23D01*
X573Y23D01*
X574Y23D01*
X575Y24D01*
X576Y25D01*
X577Y26D01*
X577Y26D01*
X577Y26D01*
X578Y27D01*
X578Y28D01*
X579Y29D01*
X579Y30D01*
X579Y32D01*
X579Y34D01*
Y38D01*
D02*
G37*
G36*
X369D02*
X369D01*
X368Y38D01*
X368Y38D01*
X367Y38D01*
X365Y37D01*
X364Y37D01*
X362Y36D01*
X359Y35D01*
X358Y34D01*
X356Y33D01*
X355Y33D01*
X355Y31D01*
X354Y30D01*
X354Y29D01*
Y29D01*
Y28D01*
X354Y28D01*
X354Y27D01*
X354Y27D01*
X355Y26D01*
X355Y25D01*
X356Y24D01*
X356Y24D01*
X356Y24D01*
X356Y24D01*
X357Y24D01*
X357Y23D01*
X358Y23D01*
X359Y23D01*
X360Y23D01*
X360D01*
X361Y23D01*
X361Y23D01*
X362Y23D01*
X363Y23D01*
X364Y24D01*
X365Y25D01*
X366Y26D01*
X366Y26D01*
X367Y26D01*
X367Y27D01*
X368Y28D01*
X368Y29D01*
X368Y30D01*
X369Y32D01*
X369Y34D01*
Y38D01*
D02*
G37*
G36*
X684D02*
X684D01*
X684Y38D01*
X683Y38D01*
X682Y38D01*
X681Y37D01*
X680Y37D01*
X677Y36D01*
X674Y35D01*
X673Y34D01*
X672Y33D01*
X671Y33D01*
X670Y31D01*
X670Y30D01*
X669Y29D01*
Y29D01*
Y28D01*
X670Y28D01*
X670Y27D01*
X670Y27D01*
X670Y26D01*
X670Y25D01*
X671Y24D01*
X671Y24D01*
X671Y24D01*
X672Y24D01*
X672Y24D01*
X673Y23D01*
X674Y23D01*
X674Y23D01*
X675Y23D01*
X676D01*
X676Y23D01*
X677Y23D01*
X678Y23D01*
X679Y23D01*
X680Y24D01*
X681Y25D01*
X682Y26D01*
X682Y26D01*
X682Y26D01*
X682Y27D01*
X683Y28D01*
X683Y29D01*
X684Y30D01*
X684Y32D01*
X684Y34D01*
Y38D01*
D02*
G37*
G36*
X897Y54D02*
X896D01*
X896Y54D01*
X895Y54D01*
X894Y54D01*
X893Y53D01*
X892Y52D01*
X891Y51D01*
X891Y51D01*
X891Y51D01*
X890Y50D01*
X890Y49D01*
X890Y49D01*
X890Y48D01*
X890Y47D01*
X889Y46D01*
X889Y45D01*
X889Y44D01*
X889Y42D01*
X889Y41D01*
Y39D01*
Y39D01*
Y39D01*
Y38D01*
Y38D01*
X889Y37D01*
Y36D01*
X889Y34D01*
X889Y32D01*
X890Y30D01*
X890Y28D01*
X890Y28D01*
X891Y27D01*
X891Y27D01*
X891Y26D01*
X892Y26D01*
X892Y25D01*
X893Y24D01*
X894Y24D01*
X895Y23D01*
X897Y23D01*
X897D01*
X897Y23D01*
X898Y23D01*
X899Y24D01*
X900Y24D01*
X901Y25D01*
X902Y25D01*
X903Y26D01*
X903Y27D01*
X903Y27D01*
X903Y28D01*
X904Y28D01*
X904Y29D01*
X904Y30D01*
X904Y31D01*
X904Y32D01*
X905Y33D01*
X905Y34D01*
X905Y35D01*
X905Y37D01*
Y38D01*
Y38D01*
Y39D01*
Y39D01*
Y40D01*
X905Y41D01*
Y41D01*
X905Y44D01*
X904Y46D01*
X904Y48D01*
X904Y50D01*
X903Y50D01*
X903Y51D01*
X903Y51D01*
X902Y52D01*
X902Y52D01*
X901Y53D01*
X901Y53D01*
X900Y54D01*
X898Y54D01*
X897Y54D01*
D02*
G37*
G36*
X762Y38D02*
X762D01*
X762Y38D01*
X761Y38D01*
X760Y38D01*
X759Y37D01*
X758Y37D01*
X755Y36D01*
X752Y35D01*
X751Y34D01*
X750Y33D01*
X749Y33D01*
X748Y31D01*
X748Y30D01*
X748Y29D01*
Y29D01*
Y28D01*
X748Y28D01*
X748Y27D01*
X748Y27D01*
X748Y26D01*
X749Y25D01*
X749Y24D01*
X749Y24D01*
X749Y24D01*
X750Y24D01*
X750Y24D01*
X751Y23D01*
X752Y23D01*
X753Y23D01*
X754Y23D01*
X754D01*
X754Y23D01*
X755Y23D01*
X756Y23D01*
X757Y23D01*
X758Y24D01*
X759Y25D01*
X760Y26D01*
X760Y26D01*
X760Y26D01*
X761Y27D01*
X761Y28D01*
X762Y29D01*
X762Y30D01*
X762Y32D01*
X762Y34D01*
Y38D01*
D02*
G37*
%LPD*%
D17*
X579Y242D02*
X646D01*
X606Y478D02*
X646D01*
X579Y451D02*
X606Y478D01*
X579Y242D02*
Y451D01*
X724Y478D02*
X764D01*
X791Y451D01*
Y242D02*
Y451D01*
X724Y242D02*
X791D01*
X579Y567D02*
X646D01*
X606Y803D02*
X646D01*
X579Y776D02*
X606Y803D01*
X579Y567D02*
Y776D01*
X724Y803D02*
X764D01*
X791Y776D01*
Y567D02*
Y776D01*
X724Y567D02*
X791D01*
X3179Y422D02*
X3246D01*
X3206Y658D02*
X3246D01*
X3179Y631D02*
X3206Y658D01*
X3179Y422D02*
Y631D01*
X3324Y658D02*
X3364D01*
X3391Y631D01*
Y422D02*
Y631D01*
X3324Y422D02*
X3391D01*
X1417Y749D02*
Y816D01*
X1653Y749D02*
Y789D01*
X1626Y816D02*
X1653Y789D01*
X1417Y816D02*
X1626D01*
X1653Y631D02*
Y671D01*
X1626Y604D02*
X1653Y631D01*
X1417Y604D02*
X1626D01*
X1417D02*
Y671D01*
X2007Y749D02*
Y816D01*
X2243Y749D02*
Y789D01*
X2216Y816D02*
X2243Y789D01*
X2007Y816D02*
X2216D01*
X2243Y631D02*
Y671D01*
X2216Y604D02*
X2243Y631D01*
X2007Y604D02*
X2216D01*
X2007D02*
Y671D01*
D25*
X1083Y219D02*
G03*
X1083Y219I-5J0D01*
G01*
X1683D02*
G03*
X1683Y219I-5J0D01*
G01*
X2278D02*
G03*
X2278Y219I-5J0D01*
G01*
X3123D02*
G03*
X3123Y219I-5J0D01*
G01*
D26*
X1084Y408D02*
G03*
X1084Y252I-59J-78D01*
G01*
X1684Y408D02*
G03*
X1684Y252I-59J-78D01*
G01*
X2279Y408D02*
G03*
X2279Y252I-59J-78D01*
G01*
X3124Y408D02*
G03*
X3124Y252I-59J-78D01*
G01*
X2293Y523D02*
X2367D01*
X2293D02*
Y677D01*
X2367Y523D02*
Y677D01*
X2403D02*
X2477D01*
Y523D02*
Y677D01*
X2403Y523D02*
Y677D01*
X2074Y515D02*
X2106D01*
X2074Y575D02*
X2106D01*
X1700Y60D02*
X1800D01*
X1700D02*
Y260D01*
X1800D01*
Y60D02*
Y260D01*
X1703Y523D02*
X1777D01*
X1703D02*
Y677D01*
X1777Y523D02*
Y677D01*
X1813D02*
X1887D01*
Y523D02*
Y677D01*
X1813Y523D02*
Y677D01*
X1834Y300D02*
X1866D01*
X1834Y360D02*
X1866D01*
X894Y505D02*
X926D01*
X894Y565D02*
X926D01*
X1084Y252D02*
Y408D01*
X1104Y505D02*
X1136D01*
X1104Y565D02*
X1136D01*
X1325Y200D02*
Y500D01*
X1225D02*
X1325D01*
X1225Y200D02*
Y500D01*
Y200D02*
X1325D01*
X1100Y60D02*
X1200D01*
X1100D02*
Y260D01*
X1200D01*
Y60D02*
Y260D01*
X1405Y339D02*
Y371D01*
X1345Y339D02*
Y371D01*
X245Y240D02*
Y540D01*
X145D02*
X245D01*
X145Y240D02*
Y540D01*
Y240D02*
X245D01*
X470D02*
Y540D01*
X370D02*
X470D01*
X370Y240D02*
Y540D01*
Y240D02*
X470D01*
X1684Y252D02*
Y408D01*
X1489Y515D02*
X1521D01*
X1489Y575D02*
X1521D01*
X2279Y252D02*
Y408D01*
X470Y610D02*
Y810D01*
X370D02*
X470D01*
X370Y610D02*
Y810D01*
Y610D02*
X470D01*
X145Y810D02*
X245D01*
Y610D02*
Y810D01*
X145Y610D02*
X245D01*
X145D02*
Y810D01*
X2634Y175D02*
X2666D01*
X2634Y235D02*
X2666D01*
X2750Y155D02*
Y255D01*
X2950D01*
Y155D02*
Y255D01*
X2750Y155D02*
X2950D01*
X2819Y115D02*
X2851D01*
X2819Y55D02*
X2851D01*
X2470Y40D02*
Y340D01*
X2370D02*
X2470D01*
X2370Y40D02*
Y340D01*
Y40D02*
X2470D01*
X2595Y700D02*
X2895D01*
X2595Y600D02*
Y700D01*
Y600D02*
X2895D01*
Y700D01*
X2595Y540D02*
X2895D01*
X2595Y440D02*
Y540D01*
Y440D02*
X2895D01*
Y540D01*
X3124Y252D02*
Y408D01*
X3330Y55D02*
Y355D01*
X3230D02*
X3330D01*
X3230Y55D02*
Y355D01*
Y55D02*
X3330D01*
X3515Y50D02*
Y350D01*
X3415D02*
X3515D01*
X3415Y50D02*
Y350D01*
Y50D02*
X3515D01*
X3415Y580D02*
X3515D01*
Y380D02*
Y580D01*
X3415Y380D02*
X3515D01*
X3415D02*
Y580D01*
X2935Y554D02*
Y586D01*
X2995Y554D02*
Y586D01*
X2634Y260D02*
X2666D01*
X2634Y320D02*
X2666D01*
D27*
X2066Y490D02*
X2094D01*
X2066Y440D02*
X2094D01*
X2550Y486D02*
Y514D01*
X2500Y486D02*
Y514D01*
X1996Y355D02*
X2024D01*
X1996Y305D02*
X2024D01*
X886Y480D02*
X914D01*
X886Y430D02*
X914D01*
X990Y641D02*
Y669D01*
X1040Y641D02*
Y669D01*
X1050Y136D02*
Y164D01*
X1000Y136D02*
Y164D01*
X885Y261D02*
Y289D01*
X835Y261D02*
Y289D01*
X1295Y111D02*
Y139D01*
X1245Y111D02*
Y139D01*
X1480Y336D02*
Y364D01*
X1430Y336D02*
Y364D01*
X1480Y191D02*
Y219D01*
X1430Y191D02*
Y219D01*
X1650Y136D02*
Y164D01*
X1600Y136D02*
Y164D01*
X1481Y490D02*
X1509D01*
X1481Y440D02*
X1509D01*
X2080Y206D02*
Y234D01*
X2030Y206D02*
Y234D01*
X2245Y121D02*
Y149D01*
X2195Y121D02*
Y149D01*
X1975Y536D02*
Y564D01*
X1925Y536D02*
Y564D01*
X555Y356D02*
Y384D01*
X505Y356D02*
Y384D01*
X330Y701D02*
Y729D01*
X280Y701D02*
Y729D01*
X2626Y110D02*
X2654D01*
X2626Y60D02*
X2654D01*
X2656Y365D02*
X2684D01*
X2656Y415D02*
X2684D01*
X3025Y106D02*
Y134D01*
X2975Y106D02*
Y134D01*
X3185Y106D02*
Y134D01*
X3135Y106D02*
Y134D01*
X2545Y111D02*
Y139D01*
X2495Y111D02*
Y139D01*
X3155Y546D02*
Y574D01*
X3105Y546D02*
Y574D01*
X3075Y546D02*
Y574D01*
X3025Y546D02*
Y574D01*
D28*
X2550Y390D02*
Y420D01*
X2565D01*
X2570Y415D01*
Y405D01*
X2565Y400D01*
X2550D01*
X2560D02*
X2570Y390D01*
X2600Y420D02*
X2580D01*
Y405D01*
X2590Y410D01*
X2595D01*
X2600Y405D01*
Y395D01*
X2595Y390D01*
X2585D01*
X2580Y395D01*
X275Y615D02*
Y645D01*
X290D01*
X295Y640D01*
Y630D01*
X290Y625D01*
X275D01*
X285D02*
X295Y615D01*
X325D02*
X305D01*
X325Y635D01*
Y640D01*
X320Y645D01*
X310D01*
X305Y640D01*
X335Y645D02*
X355D01*
Y640D01*
X335Y620D01*
Y615D01*
X1235Y20D02*
Y50D01*
X1250D01*
X1255Y45D01*
Y35D01*
X1250Y30D01*
X1235D01*
X1245D02*
X1255Y20D01*
X1285D02*
X1265D01*
X1285Y40D01*
Y45D01*
X1280Y50D01*
X1270D01*
X1265Y45D01*
X1295D02*
X1300Y50D01*
X1310D01*
X1315Y45D01*
Y40D01*
X1310Y35D01*
X1305D01*
X1310D01*
X1315Y30D01*
Y25D01*
X1310Y20D01*
X1300D01*
X1295Y25D01*
X990Y90D02*
X960D01*
Y105D01*
X965Y110D01*
X975D01*
X980Y105D01*
Y90D01*
Y100D02*
X990Y110D01*
Y140D02*
Y120D01*
X970Y140D01*
X965D01*
X960Y135D01*
Y125D01*
X965Y120D01*
X990Y170D02*
Y150D01*
X970Y170D01*
X965D01*
X960Y165D01*
Y155D01*
X965Y150D01*
X1595Y45D02*
Y75D01*
X1610D01*
X1615Y70D01*
Y60D01*
X1610Y55D01*
X1595D01*
X1605D02*
X1615Y45D01*
X1645D02*
X1625D01*
X1645Y65D01*
Y70D01*
X1640Y75D01*
X1630D01*
X1625Y70D01*
X1655Y45D02*
X1665D01*
X1660D01*
Y75D01*
X1655Y70D01*
X1495Y155D02*
Y185D01*
X1510D01*
X1515Y180D01*
Y170D01*
X1510Y165D01*
X1495D01*
X1505D02*
X1515Y155D01*
X1545D02*
X1525D01*
X1545Y175D01*
Y180D01*
X1540Y185D01*
X1530D01*
X1525Y180D01*
X1555D02*
X1560Y185D01*
X1570D01*
X1575Y180D01*
Y160D01*
X1570Y155D01*
X1560D01*
X1555Y160D01*
Y180D01*
X1520Y285D02*
X1490D01*
Y300D01*
X1495Y305D01*
X1505D01*
X1510Y300D01*
Y285D01*
Y295D02*
X1520Y305D01*
Y315D02*
Y325D01*
Y320D01*
X1490D01*
X1495Y315D01*
X1515Y340D02*
X1520Y345D01*
Y355D01*
X1515Y360D01*
X1495D01*
X1490Y355D01*
Y345D01*
X1495Y340D01*
X1500D01*
X1505Y345D01*
Y360D01*
X1910Y450D02*
Y480D01*
X1925D01*
X1930Y475D01*
Y465D01*
X1925Y460D01*
X1910D01*
X1920D02*
X1930Y450D01*
X1940D02*
X1950D01*
X1945D01*
Y480D01*
X1940Y475D01*
X1965D02*
X1970Y480D01*
X1980D01*
X1985Y475D01*
Y470D01*
X1980Y465D01*
X1985Y460D01*
Y455D01*
X1980Y450D01*
X1970D01*
X1965Y455D01*
Y460D01*
X1970Y465D01*
X1965Y470D01*
Y475D01*
X1970Y465D02*
X1980D01*
X1615Y465D02*
Y495D01*
X1630D01*
X1635Y490D01*
Y480D01*
X1630Y475D01*
X1615D01*
X1625D02*
X1635Y465D01*
X1645D02*
X1655D01*
X1650D01*
Y495D01*
X1645Y490D01*
X1670Y495D02*
X1690D01*
Y490D01*
X1670Y470D01*
Y465D01*
X2025Y115D02*
Y145D01*
X2040D01*
X2045Y140D01*
Y130D01*
X2040Y125D01*
X2025D01*
X2035D02*
X2045Y115D01*
X2055D02*
X2065D01*
X2060D01*
Y145D01*
X2055Y140D01*
X2100Y145D02*
X2090Y140D01*
X2080Y130D01*
Y120D01*
X2085Y115D01*
X2095D01*
X2100Y120D01*
Y125D01*
X2095Y130D01*
X2080D01*
X2165Y450D02*
Y480D01*
X2180D01*
X2185Y475D01*
Y465D01*
X2180Y460D01*
X2165D01*
X2175D02*
X2185Y450D01*
X2195D02*
X2205D01*
X2200D01*
Y480D01*
X2195Y475D01*
X2240Y480D02*
X2220D01*
Y465D01*
X2230Y470D01*
X2235D01*
X2240Y465D01*
Y455D01*
X2235Y450D01*
X2225D01*
X2220Y455D01*
X830Y345D02*
Y375D01*
X845D01*
X850Y370D01*
Y360D01*
X845Y355D01*
X830D01*
X840D02*
X850Y345D01*
X860D02*
X870D01*
X865D01*
Y375D01*
X860Y370D01*
X900Y345D02*
Y375D01*
X885Y360D01*
X905D01*
X1050Y595D02*
Y625D01*
X1065D01*
X1070Y620D01*
Y610D01*
X1065Y605D01*
X1050D01*
X1060D02*
X1070Y595D01*
X1080D02*
X1090D01*
X1085D01*
Y625D01*
X1080Y620D01*
X1105D02*
X1110Y625D01*
X1120D01*
X1125Y620D01*
Y615D01*
X1120Y610D01*
X1115D01*
X1120D01*
X1125Y605D01*
Y600D01*
X1120Y595D01*
X1110D01*
X1105Y600D01*
X1948Y389D02*
Y419D01*
X1963D01*
X1968Y414D01*
Y404D01*
X1963Y399D01*
X1948D01*
X1958D02*
X1968Y389D01*
X1978D02*
X1988D01*
X1983D01*
Y419D01*
X1978Y414D01*
X2023Y389D02*
X2003D01*
X2023Y409D01*
Y414D01*
X2018Y419D01*
X2008D01*
X2003Y414D01*
X2496Y592D02*
Y622D01*
X2511D01*
X2516Y617D01*
Y607D01*
X2511Y602D01*
X2496D01*
X2506D02*
X2516Y592D01*
X2526D02*
X2536D01*
X2531D01*
Y622D01*
X2526Y617D01*
X2551Y592D02*
X2561D01*
X2556D01*
Y622D01*
X2551Y617D01*
X2190Y30D02*
Y60D01*
X2205D01*
X2210Y55D01*
Y45D01*
X2205Y40D01*
X2190D01*
X2200D02*
X2210Y30D01*
X2220D02*
X2230D01*
X2225D01*
Y60D01*
X2220Y55D01*
X2245D02*
X2250Y60D01*
X2260D01*
X2265Y55D01*
Y35D01*
X2260Y30D01*
X2250D01*
X2245Y35D01*
Y55D01*
X980Y455D02*
Y485D01*
X995D01*
X1000Y480D01*
Y470D01*
X995Y465D01*
X980D01*
X990D02*
X1000Y455D01*
X1010Y460D02*
X1015Y455D01*
X1025D01*
X1030Y460D01*
Y480D01*
X1025Y485D01*
X1015D01*
X1010Y480D01*
Y475D01*
X1015Y470D01*
X1030D01*
X2575Y15D02*
Y45D01*
X2590D01*
X2595Y40D01*
Y30D01*
X2590Y25D01*
X2575D01*
X2585D02*
X2595Y15D01*
X2605Y40D02*
X2610Y45D01*
X2620D01*
X2625Y40D01*
Y35D01*
X2620Y30D01*
X2625Y25D01*
Y20D01*
X2620Y15D01*
X2610D01*
X2605Y20D01*
Y25D01*
X2610Y30D01*
X2605Y35D01*
Y40D01*
X2610Y30D02*
X2620D01*
X3020Y630D02*
Y660D01*
X3035D01*
X3040Y655D01*
Y645D01*
X3035Y640D01*
X3020D01*
X3030D02*
X3040Y630D01*
X3050Y660D02*
X3070D01*
Y655D01*
X3050Y635D01*
Y630D01*
X3100Y635D02*
Y665D01*
X3115D01*
X3120Y660D01*
Y650D01*
X3115Y645D01*
X3100D01*
X3110D02*
X3120Y635D01*
X3150Y665D02*
X3140Y660D01*
X3130Y650D01*
Y640D01*
X3135Y635D01*
X3145D01*
X3150Y640D01*
Y645D01*
X3145Y650D01*
X3130D01*
X3145Y195D02*
Y225D01*
X3160D01*
X3165Y220D01*
Y210D01*
X3160Y205D01*
X3145D01*
X3155D02*
X3165Y195D01*
X3190D02*
Y225D01*
X3175Y210D01*
X3195D01*
X2975Y15D02*
Y45D01*
X2990D01*
X2995Y40D01*
Y30D01*
X2990Y25D01*
X2975D01*
X2985D02*
X2995Y15D01*
X3005Y40D02*
X3010Y45D01*
X3020D01*
X3025Y40D01*
Y35D01*
X3020Y30D01*
X3015D01*
X3020D01*
X3025Y25D01*
Y20D01*
X3020Y15D01*
X3010D01*
X3005Y20D01*
X500Y445D02*
Y475D01*
X515D01*
X520Y470D01*
Y460D01*
X515Y455D01*
X500D01*
X510D02*
X520Y445D01*
X550D02*
X530D01*
X550Y465D01*
Y470D01*
X545Y475D01*
X535D01*
X530Y470D01*
X750Y840D02*
X745Y845D01*
X735D01*
X730Y840D01*
Y820D01*
X735Y815D01*
X745D01*
X750Y820D01*
X760Y815D02*
X770D01*
X765D01*
Y845D01*
X760Y840D01*
X800Y815D02*
Y845D01*
X785Y830D01*
X805D01*
X1955Y815D02*
X1950Y820D01*
X1940D01*
X1935Y815D01*
Y795D01*
X1940Y790D01*
X1950D01*
X1955Y795D01*
X1965Y820D02*
X1985D01*
Y815D01*
X1965Y795D01*
Y790D01*
X1370Y815D02*
X1365Y820D01*
X1355D01*
X1350Y815D01*
Y795D01*
X1355Y790D01*
X1365D01*
X1370Y795D01*
X1400Y820D02*
X1390Y815D01*
X1380Y805D01*
Y795D01*
X1385Y790D01*
X1395D01*
X1400Y795D01*
Y800D01*
X1395Y805D01*
X1380D01*
X3215Y695D02*
X3210Y700D01*
X3200D01*
X3195Y695D01*
Y675D01*
X3200Y670D01*
X3210D01*
X3215Y675D01*
X3245Y670D02*
X3225D01*
X3245Y690D01*
Y695D01*
X3240Y700D01*
X3230D01*
X3225Y695D01*
X600Y520D02*
X595Y525D01*
X585D01*
X580Y520D01*
Y500D01*
X585Y495D01*
X595D01*
X600Y500D01*
X610Y495D02*
X620D01*
X615D01*
Y525D01*
X610Y520D01*
X3345Y55D02*
X3365D01*
X3375Y65D01*
X3365Y75D01*
X3345D01*
Y100D02*
Y90D01*
X3350Y85D01*
X3370D01*
X3375Y90D01*
Y100D01*
X3370Y105D01*
X3350D01*
X3345Y100D01*
Y115D02*
X3375D01*
Y135D01*
X3345Y145D02*
X3370D01*
X3375Y150D01*
Y160D01*
X3370Y165D01*
X3345D01*
X3375Y175D02*
X3345D01*
X3355Y185D01*
X3345Y195D01*
X3375D01*
X3345Y225D02*
Y205D01*
X3375D01*
Y225D01*
X3360Y205D02*
Y215D01*
X2785Y425D02*
X2805D01*
X2795D01*
Y395D01*
X2830Y425D02*
X2820D01*
X2815Y420D01*
Y400D01*
X2820Y395D01*
X2830D01*
X2835Y400D01*
Y420D01*
X2830Y425D01*
X2845Y395D02*
Y425D01*
X2865Y395D01*
Y425D01*
X2895D02*
X2875D01*
Y395D01*
X2895D01*
X2875Y410D02*
X2885D01*
X2725Y585D02*
X2745D01*
X2735D01*
Y555D01*
X2755D02*
Y585D01*
X2775Y555D01*
Y585D01*
X2785Y550D02*
X2805D01*
X2835Y580D02*
X2830Y585D01*
X2820D01*
X2815Y580D01*
Y575D01*
X2820Y570D01*
X2830D01*
X2835Y565D01*
Y560D01*
X2830Y555D01*
X2820D01*
X2815Y560D01*
X2845Y585D02*
Y555D01*
X2855Y565D01*
X2865Y555D01*
Y585D01*
X2895Y555D02*
X2875D01*
X2895Y575D01*
Y580D01*
X2890Y585D01*
X2880D01*
X2875Y580D01*
X2315Y35D02*
Y55D01*
Y45D01*
X2345D01*
Y65D02*
X2315D01*
X2345Y85D01*
X2315D01*
X2350Y95D02*
Y115D01*
X2320Y145D02*
X2315Y140D01*
Y130D01*
X2320Y125D01*
X2325D01*
X2330Y130D01*
Y140D01*
X2335Y145D01*
X2340D01*
X2345Y140D01*
Y130D01*
X2340Y125D01*
X2315Y155D02*
X2345D01*
X2335Y165D01*
X2345Y175D01*
X2315D01*
X2345Y185D02*
Y195D01*
Y190D01*
X2315D01*
X2320Y185D01*
X3535Y70D02*
X3530Y65D01*
Y55D01*
X3535Y50D01*
X3540D01*
X3545Y55D01*
Y65D01*
X3550Y70D01*
X3555D01*
X3560Y65D01*
Y55D01*
X3555Y50D01*
X3530Y80D02*
X3560D01*
X3550Y90D01*
X3560Y100D01*
X3530D01*
X3565Y110D02*
Y130D01*
X3560Y140D02*
X3530D01*
Y155D01*
X3535Y160D01*
X3545D01*
X3550Y155D01*
Y140D01*
X3560Y190D02*
Y170D01*
X3540Y190D01*
X3535D01*
X3530Y185D01*
Y175D01*
X3535Y170D01*
X330Y260D02*
X325Y255D01*
Y245D01*
X330Y240D01*
X335D01*
X340Y245D01*
Y255D01*
X345Y260D01*
X350D01*
X355Y255D01*
Y245D01*
X350Y240D01*
X325Y270D02*
X355D01*
X345Y280D01*
X355Y290D01*
X325D01*
X360Y300D02*
Y320D01*
X355Y330D02*
X325D01*
Y345D01*
X330Y350D01*
X340D01*
X345Y345D01*
Y330D01*
X355Y360D02*
Y370D01*
Y365D01*
X325D01*
X330Y360D01*
X1185Y315D02*
X1180Y310D01*
Y300D01*
X1185Y295D01*
X1190D01*
X1195Y300D01*
Y310D01*
X1200Y315D01*
X1205D01*
X1210Y310D01*
Y300D01*
X1205Y295D01*
X1180Y325D02*
X1205D01*
X1210Y330D01*
Y340D01*
X1205Y345D01*
X1180D01*
X1185Y375D02*
X1180Y370D01*
Y360D01*
X1185Y355D01*
X1190D01*
X1195Y360D01*
Y370D01*
X1200Y375D01*
X1205D01*
X1210Y370D01*
Y360D01*
X1205Y355D01*
X1180Y385D02*
Y405D01*
Y395D01*
X1210D01*
Y415D02*
X1190D01*
X1180Y425D01*
X1190Y435D01*
X1210D01*
X1195D01*
Y415D01*
X1180Y445D02*
Y455D01*
Y450D01*
X1210D01*
Y445D01*
Y455D01*
Y470D02*
X1180D01*
X1210Y490D01*
X1180D01*
X1115Y380D02*
Y400D01*
X1110Y405D01*
X1100D01*
X1095Y400D01*
Y380D01*
X1100Y375D01*
X1110D01*
X1105Y385D02*
X1115Y375D01*
X1110D02*
X1115Y380D01*
X1140Y375D02*
Y405D01*
X1125Y390D01*
X1145D01*
X1715Y380D02*
Y400D01*
X1710Y405D01*
X1700D01*
X1695Y400D01*
Y380D01*
X1700Y375D01*
X1710D01*
X1705Y385D02*
X1715Y375D01*
X1710D02*
X1715Y380D01*
X1725Y400D02*
X1730Y405D01*
X1740D01*
X1745Y400D01*
Y395D01*
X1740Y390D01*
X1735D01*
X1740D01*
X1745Y385D01*
Y380D01*
X1740Y375D01*
X1730D01*
X1725Y380D01*
X2310D02*
Y400D01*
X2305Y405D01*
X2295D01*
X2290Y400D01*
Y380D01*
X2295Y375D01*
X2305D01*
X2300Y385D02*
X2310Y375D01*
X2305D02*
X2310Y380D01*
X2340Y375D02*
X2320D01*
X2340Y395D01*
Y400D01*
X2335Y405D01*
X2325D01*
X2320Y400D01*
X3155Y380D02*
Y400D01*
X3150Y405D01*
X3140D01*
X3135Y400D01*
Y380D01*
X3140Y375D01*
X3150D01*
X3145Y385D02*
X3155Y375D01*
X3150D02*
X3155Y380D01*
X3165Y375D02*
X3175D01*
X3170D01*
Y405D01*
X3165Y400D01*
X3525Y395D02*
Y385D01*
X3530Y380D01*
X3550D01*
X3555Y385D01*
Y395D01*
X3550Y400D01*
X3530D01*
X3525Y395D01*
Y410D02*
X3550D01*
X3555Y415D01*
Y425D01*
X3550Y430D01*
X3525D01*
Y440D02*
Y460D01*
Y450D01*
X3555D01*
X3560Y470D02*
Y490D01*
X3525Y520D02*
Y510D01*
Y515D01*
X3550D01*
X3555Y510D01*
Y505D01*
X3550Y500D01*
X3555Y530D02*
X3535D01*
X3525Y540D01*
X3535Y550D01*
X3555D01*
X3540D01*
Y530D01*
X3530Y580D02*
X3525Y575D01*
Y565D01*
X3530Y560D01*
X3550D01*
X3555Y565D01*
Y575D01*
X3550Y580D01*
X3525Y590D02*
X3555D01*
X3545D01*
X3525Y610D01*
X3540Y595D01*
X3555Y610D01*
X2840Y270D02*
Y300D01*
X2850Y290D01*
X2860Y300D01*
Y270D01*
X2870Y300D02*
X2880D01*
X2875D01*
Y270D01*
X2870D01*
X2880D01*
X2895Y300D02*
Y270D01*
X2910D01*
X2915Y275D01*
Y295D01*
X2910Y300D01*
X2895D01*
X2945Y295D02*
X2940Y300D01*
X2930D01*
X2925Y295D01*
Y290D01*
X2930Y285D01*
X2940D01*
X2945Y280D01*
Y275D01*
X2940Y270D01*
X2930D01*
X2925Y275D01*
X100Y235D02*
Y245D01*
Y240D01*
X130D01*
Y235D01*
Y245D01*
Y260D02*
X100D01*
X130Y280D01*
X100D01*
X135Y290D02*
Y310D01*
X100Y340D02*
Y330D01*
Y335D01*
X125D01*
X130Y330D01*
Y325D01*
X125Y320D01*
X130Y350D02*
X110D01*
X100Y360D01*
X110Y370D01*
X130D01*
X115D01*
Y350D01*
X105Y400D02*
X100Y395D01*
Y385D01*
X105Y380D01*
X125D01*
X130Y385D01*
Y395D01*
X125Y400D01*
X100Y410D02*
X130D01*
X120D01*
X100Y430D01*
X115Y415D01*
X130Y430D01*
X1815Y75D02*
Y55D01*
X1845D01*
Y75D01*
X1830Y55D02*
Y65D01*
X1845Y85D02*
X1815D01*
X1825Y95D01*
X1815Y105D01*
X1845D01*
X1850Y115D02*
Y135D01*
X1820Y165D02*
X1815Y160D01*
Y150D01*
X1820Y145D01*
X1825D01*
X1830Y150D01*
Y160D01*
X1835Y165D01*
X1840D01*
X1845Y160D01*
Y150D01*
X1840Y145D01*
X1815Y175D02*
X1845D01*
X1835Y185D01*
X1845Y195D01*
X1815D01*
X1845Y225D02*
Y205D01*
X1825Y225D01*
X1820D01*
X1815Y220D01*
Y210D01*
X1820Y205D01*
X1065Y45D02*
X1045D01*
Y15D01*
X1065D01*
X1045Y30D02*
X1055D01*
X1075Y15D02*
Y45D01*
X1085Y35D01*
X1095Y45D01*
Y15D01*
X1105Y10D02*
X1125D01*
X1155Y40D02*
X1150Y45D01*
X1140D01*
X1135Y40D01*
Y35D01*
X1140Y30D01*
X1150D01*
X1155Y25D01*
Y20D01*
X1150Y15D01*
X1140D01*
X1135Y20D01*
X1165Y45D02*
Y15D01*
X1175Y25D01*
X1185Y15D01*
Y45D01*
X1195Y15D02*
X1205D01*
X1200D01*
Y45D01*
X1195Y40D01*
X100Y610D02*
X130D01*
Y625D01*
X125Y630D01*
X105D01*
X100Y625D01*
Y610D01*
X105Y660D02*
X100Y655D01*
Y645D01*
X105Y640D01*
X125D01*
X130Y645D01*
Y655D01*
X125Y660D01*
X135Y670D02*
Y690D01*
X100Y720D02*
Y710D01*
Y715D01*
X125D01*
X130Y710D01*
Y705D01*
X125Y700D01*
X130Y730D02*
X110D01*
X100Y740D01*
X110Y750D01*
X130D01*
X115D01*
Y730D01*
X105Y780D02*
X100Y775D01*
Y765D01*
X105Y760D01*
X125D01*
X130Y765D01*
Y775D01*
X125Y780D01*
X100Y790D02*
X130D01*
X120D01*
X100Y810D01*
X115Y795D01*
X130Y810D01*
X1814Y828D02*
Y798D01*
X1829D01*
X1834Y803D01*
Y823D01*
X1829Y828D01*
X1814D01*
X1859Y798D02*
Y828D01*
X1844Y813D01*
X1864D01*
X1705Y830D02*
Y800D01*
X1720D01*
X1725Y805D01*
Y825D01*
X1720Y830D01*
X1705D01*
X1735Y825D02*
X1740Y830D01*
X1750D01*
X1755Y825D01*
Y820D01*
X1750Y815D01*
X1745D01*
X1750D01*
X1755Y810D01*
Y805D01*
X1750Y800D01*
X1740D01*
X1735Y805D01*
X2415Y820D02*
Y790D01*
X2430D01*
X2435Y795D01*
Y815D01*
X2430Y820D01*
X2415D01*
X2465Y790D02*
X2445D01*
X2465Y810D01*
Y815D01*
X2460Y820D01*
X2450D01*
X2445Y815D01*
X2305Y820D02*
Y790D01*
X2320D01*
X2325Y795D01*
Y815D01*
X2320Y820D01*
X2305D01*
X2335Y790D02*
X2345D01*
X2340D01*
Y820D01*
X2335Y815D01*
X2595Y155D02*
X2590Y160D01*
X2580D01*
X2575Y155D01*
Y135D01*
X2580Y130D01*
X2590D01*
X2595Y135D01*
X2605Y130D02*
X2615D01*
X2610D01*
Y160D01*
X2605Y155D01*
X2650Y160D02*
X2630D01*
Y145D01*
X2640Y150D01*
X2645D01*
X2650Y145D01*
Y135D01*
X2645Y130D01*
X2635D01*
X2630Y135D01*
X1794Y419D02*
X1789Y424D01*
X1779D01*
X1774Y419D01*
Y399D01*
X1779Y394D01*
X1789D01*
X1794Y399D01*
X1804Y394D02*
X1814D01*
X1809D01*
Y424D01*
X1804Y419D01*
X1829D02*
X1834Y424D01*
X1844D01*
X1849Y419D01*
Y414D01*
X1844Y409D01*
X1839D01*
X1844D01*
X1849Y404D01*
Y399D01*
X1844Y394D01*
X1834D01*
X1829Y399D01*
X1615Y570D02*
X1610Y575D01*
X1600D01*
X1595Y570D01*
Y550D01*
X1600Y545D01*
X1610D01*
X1615Y550D01*
X1625Y545D02*
X1635D01*
X1630D01*
Y575D01*
X1625Y570D01*
X1670Y545D02*
X1650D01*
X1670Y565D01*
Y570D01*
X1665Y575D01*
X1655D01*
X1650Y570D01*
X2220Y545D02*
X2215Y550D01*
X2205D01*
X2200Y545D01*
Y525D01*
X2205Y520D01*
X2215D01*
X2220Y525D01*
X2230Y520D02*
X2240D01*
X2235D01*
Y550D01*
X2230Y545D01*
X2255Y520D02*
X2265D01*
X2260D01*
Y550D01*
X2255Y545D01*
X855Y605D02*
X850Y610D01*
X840D01*
X835Y605D01*
Y585D01*
X840Y580D01*
X850D01*
X855Y585D01*
X865Y580D02*
X875D01*
X870D01*
Y610D01*
X865Y605D01*
X890D02*
X895Y610D01*
X905D01*
X910Y605D01*
Y585D01*
X905Y580D01*
X895D01*
X890Y585D01*
Y605D01*
X2755Y295D02*
X2750Y300D01*
X2740D01*
X2735Y295D01*
Y275D01*
X2740Y270D01*
X2750D01*
X2755Y275D01*
X2765D02*
X2770Y270D01*
X2780D01*
X2785Y275D01*
Y295D01*
X2780Y300D01*
X2770D01*
X2765Y295D01*
Y290D01*
X2770Y285D01*
X2785D01*
X2880Y35D02*
X2875Y40D01*
X2865D01*
X2860Y35D01*
Y15D01*
X2865Y10D01*
X2875D01*
X2880Y15D01*
X2890Y35D02*
X2895Y40D01*
X2905D01*
X2910Y35D01*
Y30D01*
X2905Y25D01*
X2910Y20D01*
Y15D01*
X2905Y10D01*
X2895D01*
X2890Y15D01*
Y20D01*
X2895Y25D01*
X2890Y30D01*
Y35D01*
X2895Y25D02*
X2905D01*
X1360Y260D02*
X1355Y265D01*
X1345D01*
X1340Y260D01*
Y240D01*
X1345Y235D01*
X1355D01*
X1360Y240D01*
X1390Y265D02*
X1370D01*
Y250D01*
X1380Y255D01*
X1385D01*
X1390Y250D01*
Y240D01*
X1385Y235D01*
X1375D01*
X1370Y240D01*
X1220Y560D02*
X1215Y565D01*
X1205D01*
X1200Y560D01*
Y540D01*
X1205Y535D01*
X1215D01*
X1220Y540D01*
X1245Y535D02*
Y565D01*
X1230Y550D01*
X1250D01*
X2950Y685D02*
X2945Y690D01*
X2935D01*
X2930Y685D01*
Y665D01*
X2935Y660D01*
X2945D01*
X2950Y665D01*
X2960Y685D02*
X2965Y690D01*
X2975D01*
X2980Y685D01*
Y680D01*
X2975Y675D01*
X2970D01*
X2975D01*
X2980Y670D01*
Y665D01*
X2975Y660D01*
X2965D01*
X2960Y665D01*
X485Y610D02*
X515D01*
Y625D01*
X510Y630D01*
X505D01*
X500Y625D01*
Y610D01*
Y625D01*
X495Y630D01*
X490D01*
X485Y625D01*
Y610D01*
X515Y640D02*
X495D01*
X485Y650D01*
X495Y660D01*
X515D01*
X500D01*
Y640D01*
X485Y670D02*
Y690D01*
Y680D01*
X515D01*
X485Y700D02*
Y720D01*
Y710D01*
X515D01*
X485Y750D02*
Y730D01*
X515D01*
Y750D01*
X500Y730D02*
Y740D01*
X515Y760D02*
X485D01*
Y775D01*
X490Y780D01*
X500D01*
X505Y775D01*
Y760D01*
Y770D02*
X515Y780D01*
X485Y790D02*
X490D01*
X500Y800D01*
X490Y810D01*
X485D01*
X500Y800D02*
X515D01*
X2495Y200D02*
Y230D01*
X2510D01*
X2515Y225D01*
Y215D01*
X2510Y210D01*
X2495D01*
X2505D02*
X2515Y200D01*
X2525D02*
X2535D01*
X2530D01*
Y230D01*
X2525Y225D01*
D29*
X420Y854D02*
Y824D01*
X435Y839D02*
X405D01*
D30*
X2330Y665D02*
D03*
X2440Y535D02*
D03*
X1740Y665D02*
D03*
X1850Y535D02*
D03*
M02*
