%FSLAX25Y25*%
%MOIN*%
G70*
G01*
G75*
G04 Layer_Color=65535*
%ADD10R,0.04331X0.06693*%
%ADD11R,0.06693X0.04331*%
%ADD12R,0.05906X0.03937*%
%ADD13R,0.11811X0.05512*%
%ADD14R,0.05512X0.11811*%
%ADD15R,0.03937X0.05906*%
%ADD16C,0.02500*%
%ADD17C,0.01000*%
%ADD18C,0.13780*%
%ADD19C,0.05906*%
%ADD20R,0.05906X0.05906*%
%ADD21O,0.07874X0.03937*%
%ADD22O,0.07874X0.03937*%
%ADD23R,0.05906X0.05906*%
%ADD24C,0.05000*%
%ADD25C,0.00787*%
%ADD26C,0.00984*%
%ADD27C,0.00800*%
%ADD28C,0.00500*%
%ADD29C,0.00591*%
%ADD30R,0.07480X0.03150*%
G36*
X43476Y10500D02*
X41932D01*
Y15722D01*
X43476D01*
Y10500D01*
D02*
G37*
G36*
X78550Y10711D02*
Y10700D01*
X78539Y10678D01*
X78528Y10633D01*
X78506Y10578D01*
X78483Y10511D01*
X78450Y10433D01*
X78395Y10244D01*
X78317Y10056D01*
X78239Y9856D01*
X78161Y9667D01*
X78083Y9511D01*
X78072Y9500D01*
X78050Y9444D01*
X78006Y9378D01*
X77939Y9300D01*
X77861Y9200D01*
X77772Y9100D01*
X77661Y9000D01*
X77528Y8911D01*
X77517Y8900D01*
X77461Y8878D01*
X77384Y8833D01*
X77261Y8800D01*
X77117Y8756D01*
X76950Y8711D01*
X76750Y8689D01*
X76517Y8678D01*
X76395D01*
X76306Y8689D01*
X76195D01*
X76073Y8711D01*
X75928Y8722D01*
X75784Y8745D01*
Y9922D01*
X75806D01*
X75850Y9911D01*
X75928Y9900D01*
X76028Y9889D01*
X76139Y9878D01*
X76262Y9867D01*
X76528Y9856D01*
X76606D01*
X76684Y9867D01*
X76773Y9878D01*
X76872Y9900D01*
X76984Y9933D01*
X77073Y9978D01*
X77139Y10033D01*
X77150Y10045D01*
X77161Y10067D01*
X77195Y10100D01*
X77228Y10156D01*
X77261Y10222D01*
X77306Y10300D01*
X77339Y10389D01*
X77372Y10500D01*
X75484Y15722D01*
X77106D01*
X78106Y12611D01*
X79072Y15722D01*
X80194D01*
X78550Y10711D01*
D02*
G37*
G36*
X26966Y17544D02*
X27100Y17533D01*
X27233Y17522D01*
X27389Y17510D01*
X27711Y17466D01*
X28033Y17399D01*
X28344Y17310D01*
X28477Y17255D01*
X28611Y17188D01*
X28622D01*
X28644Y17166D01*
X28677Y17155D01*
X28722Y17122D01*
X28844Y17033D01*
X29000Y16910D01*
X29177Y16744D01*
X29366Y16544D01*
X29566Y16310D01*
X29766Y16033D01*
X29777Y16022D01*
X29788Y15999D01*
X29811Y15955D01*
X29844Y15888D01*
X29888Y15811D01*
X29933Y15722D01*
X29977Y15611D01*
X30022Y15488D01*
X30066Y15355D01*
X30111Y15200D01*
X30155Y15033D01*
X30199Y14866D01*
X30233Y14677D01*
X30255Y14477D01*
X30277Y14266D01*
Y14044D01*
Y14022D01*
Y13977D01*
X30266Y13900D01*
Y13789D01*
X30255Y13655D01*
X30233Y13511D01*
X30199Y13344D01*
X30166Y13155D01*
X30122Y12966D01*
X30055Y12755D01*
X29988Y12544D01*
X29899Y12333D01*
X29800Y12122D01*
X29677Y11911D01*
X29533Y11711D01*
X29377Y11511D01*
X29366Y11500D01*
X29333Y11467D01*
X29288Y11422D01*
X29211Y11355D01*
X29122Y11278D01*
X29011Y11189D01*
X28888Y11100D01*
X28733Y11011D01*
X28566Y10911D01*
X28389Y10822D01*
X28188Y10733D01*
X27966Y10655D01*
X27733Y10589D01*
X27477Y10544D01*
X27211Y10511D01*
X26922Y10500D01*
X24500D01*
Y17555D01*
X26866D01*
X26966Y17544D01*
D02*
G37*
G36*
X58785Y15811D02*
X58874Y15800D01*
X58974Y15788D01*
X59085Y15766D01*
X59219Y15733D01*
X59485Y15644D01*
X59630Y15588D01*
X59774Y15522D01*
X59919Y15444D01*
X60074Y15344D01*
X60219Y15233D01*
X60352Y15111D01*
X60363Y15100D01*
X60385Y15077D01*
X60419Y15033D01*
X60463Y14977D01*
X60519Y14900D01*
X60585Y14800D01*
X60641Y14688D01*
X60719Y14566D01*
X60785Y14411D01*
X60841Y14244D01*
X60908Y14055D01*
X60963Y13855D01*
X61007Y13633D01*
X61041Y13389D01*
X61063Y13122D01*
X61074Y12844D01*
X57708D01*
Y12833D01*
Y12822D01*
Y12755D01*
Y12678D01*
Y12600D01*
Y12589D01*
Y12578D01*
Y12511D01*
X57719Y12411D01*
X57741Y12289D01*
X57775Y12155D01*
X57830Y12011D01*
X57897Y11878D01*
X57997Y11755D01*
X58008Y11744D01*
X58052Y11711D01*
X58119Y11666D01*
X58197Y11622D01*
X58308Y11567D01*
X58419Y11522D01*
X58563Y11489D01*
X58708Y11478D01*
X58741D01*
X58785Y11489D01*
X58830D01*
X58963Y11522D01*
X59119Y11578D01*
X59197Y11622D01*
X59274Y11678D01*
X59352Y11744D01*
X59430Y11822D01*
X59496Y11922D01*
X59552Y12033D01*
X59608Y12155D01*
X59641Y12300D01*
X61041Y12189D01*
X61030Y12167D01*
X61007Y12111D01*
X60974Y12022D01*
X60919Y11911D01*
X60852Y11767D01*
X60763Y11622D01*
X60652Y11456D01*
X60519Y11289D01*
X60374Y11122D01*
X60196Y10955D01*
X60008Y10811D01*
X59785Y10667D01*
X59552Y10555D01*
X59274Y10467D01*
X58985Y10411D01*
X58663Y10389D01*
X58530D01*
X58463Y10400D01*
X58385Y10411D01*
X58208Y10433D01*
X57997Y10467D01*
X57775Y10522D01*
X57552Y10600D01*
X57330Y10700D01*
X57319D01*
X57308Y10711D01*
X57241Y10756D01*
X57141Y10833D01*
X57019Y10933D01*
X56875Y11056D01*
X56719Y11211D01*
X56575Y11400D01*
X56430Y11611D01*
Y11622D01*
X56419Y11633D01*
X56397Y11678D01*
X56375Y11722D01*
X56352Y11778D01*
X56319Y11844D01*
X56264Y12011D01*
X56197Y12222D01*
X56141Y12466D01*
X56097Y12744D01*
X56086Y13044D01*
Y13055D01*
Y13100D01*
Y13166D01*
X56097Y13255D01*
X56108Y13355D01*
X56119Y13477D01*
X56141Y13611D01*
X56175Y13766D01*
X56252Y14077D01*
X56319Y14244D01*
X56386Y14422D01*
X56463Y14589D01*
X56552Y14744D01*
X56664Y14911D01*
X56786Y15055D01*
X56797Y15066D01*
X56819Y15088D01*
X56863Y15122D01*
X56919Y15177D01*
X56986Y15233D01*
X57074Y15300D01*
X57174Y15366D01*
X57286Y15444D01*
X57408Y15511D01*
X57541Y15577D01*
X57697Y15644D01*
X57863Y15699D01*
X58030Y15755D01*
X58219Y15788D01*
X58419Y15811D01*
X58619Y15822D01*
X58719D01*
X58785Y15811D01*
D02*
G37*
G36*
X71940Y15066D02*
X71962Y15088D01*
X71984Y15122D01*
X72018Y15177D01*
X72118Y15300D01*
X72251Y15444D01*
X72429Y15577D01*
X72651Y15699D01*
X72773Y15755D01*
X72917Y15788D01*
X73062Y15811D01*
X73217Y15822D01*
X73306D01*
X73362Y15811D01*
X73440Y15800D01*
X73528Y15788D01*
X73728Y15733D01*
X73962Y15644D01*
X74084Y15588D01*
X74195Y15511D01*
X74317Y15433D01*
X74428Y15333D01*
X74539Y15222D01*
X74639Y15088D01*
X74651Y15077D01*
X74662Y15055D01*
X74684Y15011D01*
X74717Y14955D01*
X74762Y14877D01*
X74806Y14788D01*
X74850Y14688D01*
X74906Y14566D01*
X74950Y14433D01*
X74995Y14288D01*
X75039Y14122D01*
X75084Y13944D01*
X75117Y13755D01*
X75139Y13544D01*
X75162Y13333D01*
Y13100D01*
Y13089D01*
Y13044D01*
Y12978D01*
X75151Y12900D01*
Y12789D01*
X75128Y12678D01*
X75117Y12544D01*
X75095Y12400D01*
X75028Y12078D01*
X74928Y11755D01*
X74873Y11589D01*
X74795Y11433D01*
X74717Y11278D01*
X74617Y11133D01*
X74606Y11122D01*
X74595Y11100D01*
X74562Y11067D01*
X74517Y11022D01*
X74462Y10955D01*
X74395Y10900D01*
X74317Y10833D01*
X74228Y10767D01*
X74117Y10689D01*
X74006Y10622D01*
X73884Y10567D01*
X73739Y10511D01*
X73595Y10456D01*
X73428Y10422D01*
X73262Y10400D01*
X73073Y10389D01*
X72984D01*
X72895Y10400D01*
X72773Y10411D01*
X72640Y10433D01*
X72495Y10467D01*
X72351Y10511D01*
X72217Y10567D01*
X72206Y10578D01*
X72162Y10600D01*
X72095Y10655D01*
X72006Y10722D01*
X71906Y10822D01*
X71795Y10944D01*
X71673Y11100D01*
X71551Y11289D01*
X71540Y11278D01*
X71529Y11255D01*
X71495Y11211D01*
X71451Y11133D01*
X71406Y11033D01*
X71351Y10900D01*
X71284Y10722D01*
X71251Y10611D01*
X71218Y10500D01*
X70395D01*
Y17555D01*
X71940D01*
Y15066D01*
D02*
G37*
G36*
X38954Y15811D02*
X39032Y15800D01*
X39221Y15777D01*
X39432Y15744D01*
X39654Y15677D01*
X39865Y15599D01*
X40065Y15488D01*
X40076D01*
X40087Y15477D01*
X40143Y15422D01*
X40243Y15344D01*
X40354Y15233D01*
X40476Y15088D01*
X40598Y14911D01*
X40721Y14700D01*
X40832Y14444D01*
X39710Y14155D01*
Y14166D01*
X39698Y14188D01*
X39687Y14222D01*
X39665Y14266D01*
X39599Y14377D01*
X39510Y14511D01*
X39376Y14644D01*
X39287Y14700D01*
X39198Y14755D01*
X39087Y14800D01*
X38965Y14833D01*
X38832Y14855D01*
X38688Y14866D01*
X38621D01*
X38565Y14855D01*
X38443Y14844D01*
X38310Y14811D01*
X38165Y14755D01*
X38043Y14666D01*
X37988Y14611D01*
X37954Y14544D01*
X37932Y14477D01*
X37921Y14389D01*
Y14377D01*
Y14355D01*
X37932Y14322D01*
X37943Y14277D01*
X37976Y14177D01*
X38010Y14133D01*
X38054Y14088D01*
X38065D01*
X38087Y14066D01*
X38132Y14044D01*
X38199Y14022D01*
X38299Y13988D01*
X38432Y13966D01*
X38599Y13933D01*
X38799Y13900D01*
X38843D01*
X38888Y13889D01*
X38943Y13877D01*
X39021Y13866D01*
X39099Y13855D01*
X39298Y13822D01*
X39510Y13777D01*
X39732Y13733D01*
X39932Y13678D01*
X40110Y13622D01*
X40132Y13611D01*
X40176Y13589D01*
X40265Y13555D01*
X40354Y13500D01*
X40465Y13433D01*
X40587Y13344D01*
X40698Y13233D01*
X40798Y13111D01*
X40810Y13100D01*
X40843Y13044D01*
X40876Y12966D01*
X40932Y12855D01*
X40976Y12733D01*
X41010Y12578D01*
X41043Y12400D01*
X41054Y12200D01*
Y12189D01*
Y12167D01*
Y12122D01*
X41043Y12066D01*
X41032Y12000D01*
X41021Y11922D01*
X40976Y11733D01*
X40898Y11533D01*
X40787Y11311D01*
X40721Y11200D01*
X40643Y11089D01*
X40543Y10989D01*
X40432Y10889D01*
X40421D01*
X40398Y10867D01*
X40365Y10844D01*
X40321Y10811D01*
X40254Y10778D01*
X40176Y10733D01*
X40087Y10689D01*
X39987Y10644D01*
X39876Y10589D01*
X39754Y10544D01*
X39610Y10500D01*
X39454Y10467D01*
X39298Y10433D01*
X39121Y10411D01*
X38932Y10400D01*
X38732Y10389D01*
X38643D01*
X38543Y10400D01*
X38410Y10411D01*
X38254Y10433D01*
X38076Y10467D01*
X37887Y10522D01*
X37688Y10578D01*
X37477Y10667D01*
X37277Y10767D01*
X37077Y10889D01*
X36888Y11033D01*
X36710Y11211D01*
X36566Y11411D01*
X36443Y11655D01*
X36354Y11922D01*
X37643Y12122D01*
Y12111D01*
X37654Y12089D01*
X37665Y12055D01*
X37688Y12011D01*
X37743Y11900D01*
X37788Y11833D01*
X37843Y11778D01*
X37910Y11711D01*
X37999Y11644D01*
X38087Y11589D01*
X38199Y11533D01*
X38321Y11489D01*
X38465Y11456D01*
X38621Y11433D01*
X38799Y11422D01*
X38865D01*
X38932Y11433D01*
X39021Y11444D01*
X39121Y11456D01*
X39232Y11478D01*
X39343Y11511D01*
X39443Y11556D01*
X39454Y11567D01*
X39487Y11578D01*
X39532Y11611D01*
X39576Y11655D01*
X39621Y11700D01*
X39665Y11767D01*
X39698Y11844D01*
X39710Y11922D01*
Y11933D01*
X39698Y11978D01*
X39676Y12033D01*
X39632Y12111D01*
X39565Y12178D01*
X39454Y12255D01*
X39387Y12278D01*
X39310Y12311D01*
X39221Y12333D01*
X39121Y12344D01*
X39099D01*
X39054Y12355D01*
X38976Y12366D01*
X38865Y12378D01*
X38743Y12400D01*
X38599Y12433D01*
X38443Y12455D01*
X38265Y12500D01*
X37921Y12578D01*
X37576Y12689D01*
X37421Y12744D01*
X37277Y12811D01*
X37154Y12878D01*
X37043Y12955D01*
X37021Y12978D01*
X36965Y13033D01*
X36888Y13122D01*
X36799Y13255D01*
X36710Y13411D01*
X36632Y13611D01*
X36577Y13844D01*
X36566Y13966D01*
X36554Y14100D01*
Y14111D01*
Y14133D01*
Y14177D01*
X36566Y14222D01*
X36577Y14288D01*
X36588Y14366D01*
X36632Y14533D01*
X36699Y14733D01*
X36799Y14933D01*
X36865Y15033D01*
X36943Y15144D01*
X37032Y15244D01*
X37132Y15333D01*
X37143Y15344D01*
X37154Y15355D01*
X37188Y15377D01*
X37243Y15411D01*
X37299Y15444D01*
X37365Y15488D01*
X37454Y15533D01*
X37554Y15577D01*
X37654Y15622D01*
X37776Y15666D01*
X37910Y15711D01*
X38054Y15744D01*
X38210Y15777D01*
X38376Y15800D01*
X38554Y15822D01*
X38876D01*
X38954Y15811D01*
D02*
G37*
G36*
X43476Y16144D02*
X41932D01*
Y17688D01*
X43476D01*
Y16144D01*
D02*
G37*
G36*
X89841Y6366D02*
X89932Y6356D01*
X90034Y6335D01*
X90156Y6315D01*
X90278Y6285D01*
X90411Y6244D01*
X90553Y6203D01*
X90696Y6142D01*
X90838Y6071D01*
X90971Y5989D01*
X91113Y5888D01*
X91235Y5786D01*
X91357Y5653D01*
X91368Y5643D01*
X91388Y5623D01*
X91419Y5582D01*
X91459Y5521D01*
X91500Y5460D01*
X91551Y5368D01*
X91612Y5277D01*
X91673Y5165D01*
X91724Y5043D01*
X91785Y4910D01*
X91836Y4758D01*
X91887Y4605D01*
X91917Y4432D01*
X91948Y4259D01*
X91968Y4065D01*
X91979Y3872D01*
Y3862D01*
Y3821D01*
Y3770D01*
X91968Y3699D01*
X91958Y3607D01*
X91948Y3495D01*
X91928Y3383D01*
X91897Y3251D01*
X91826Y2966D01*
X91775Y2823D01*
X91704Y2671D01*
X91632Y2528D01*
X91551Y2376D01*
X91449Y2233D01*
X91337Y2101D01*
X91327Y2090D01*
X91307Y2070D01*
X91276Y2039D01*
X91225Y1989D01*
X91154Y1938D01*
X91083Y1877D01*
X90991Y1816D01*
X90889Y1754D01*
X90777Y1683D01*
X90645Y1622D01*
X90513Y1561D01*
X90360Y1510D01*
X90197Y1459D01*
X90024Y1429D01*
X89841Y1408D01*
X89647Y1398D01*
X89546D01*
X89474Y1408D01*
X89393Y1419D01*
X89291Y1439D01*
X89179Y1459D01*
X89067Y1490D01*
X88802Y1571D01*
X88670Y1622D01*
X88528Y1693D01*
X88395Y1775D01*
X88263Y1867D01*
X88141Y1968D01*
X88019Y2090D01*
X88008Y2101D01*
X87988Y2121D01*
X87957Y2162D01*
X87927Y2223D01*
X87876Y2284D01*
X87825Y2376D01*
X87774Y2467D01*
X87713Y2579D01*
X87652Y2701D01*
X87601Y2844D01*
X87550Y2986D01*
X87499Y3149D01*
X87469Y3322D01*
X87438Y3495D01*
X87418Y3689D01*
X87408Y3892D01*
Y3903D01*
Y3923D01*
Y3964D01*
Y4025D01*
X87418Y4086D01*
Y4167D01*
X87438Y4340D01*
X87479Y4544D01*
X87520Y4758D01*
X87591Y4982D01*
X87682Y5185D01*
Y5195D01*
X87693Y5206D01*
X87713Y5236D01*
X87733Y5277D01*
X87795Y5368D01*
X87876Y5491D01*
X87988Y5623D01*
X88120Y5765D01*
X88263Y5908D01*
X88436Y6040D01*
X88446D01*
X88456Y6050D01*
X88487Y6071D01*
X88528Y6091D01*
X88629Y6142D01*
X88772Y6213D01*
X88945Y6274D01*
X89159Y6325D01*
X89393Y6366D01*
X89657Y6376D01*
X89759D01*
X89841Y6366D01*
D02*
G37*
G36*
X49797Y16588D02*
X49953Y16566D01*
Y15588D01*
X49942D01*
X49909Y15599D01*
X49864Y15611D01*
X49809Y15622D01*
X49675Y15633D01*
X49542Y15644D01*
X49520D01*
X49464Y15633D01*
X49375Y15622D01*
X49275Y15588D01*
X49164Y15533D01*
X49064Y15455D01*
X48986Y15344D01*
X48942Y15188D01*
X48964Y15166D01*
X49009Y15111D01*
X49075Y15022D01*
X49153Y14900D01*
X49231Y14755D01*
X49297Y14589D01*
X49342Y14400D01*
X49364Y14200D01*
Y14188D01*
Y14166D01*
Y14133D01*
X49353Y14077D01*
X49342Y14011D01*
X49331Y13944D01*
X49286Y13777D01*
X49209Y13589D01*
X49097Y13389D01*
X49031Y13289D01*
X48953Y13200D01*
X48853Y13111D01*
X48742Y13022D01*
X48731D01*
X48709Y13000D01*
X48675Y12978D01*
X48631Y12955D01*
X48564Y12922D01*
X48487Y12889D01*
X48398Y12844D01*
X48287Y12811D01*
X48164Y12766D01*
X48031Y12722D01*
X47886Y12689D01*
X47731Y12655D01*
X47553Y12633D01*
X47376Y12611D01*
X47175Y12589D01*
X46809D01*
X46709Y12600D01*
X46587Y12611D01*
X46453Y12622D01*
X46153Y12666D01*
X46142Y12655D01*
X46109Y12644D01*
X46076Y12600D01*
X46031Y12555D01*
X45976Y12500D01*
X45942Y12433D01*
X45909Y12355D01*
X45898Y12267D01*
Y12255D01*
Y12222D01*
X45909Y12178D01*
X45920Y12122D01*
X45953Y12066D01*
X45987Y12000D01*
X46042Y11955D01*
X46109Y11911D01*
X46120D01*
X46153Y11900D01*
X46220Y11878D01*
X46331Y11867D01*
X46398Y11855D01*
X46476Y11844D01*
X46553Y11833D01*
X46653Y11822D01*
X46764Y11811D01*
X46898Y11800D01*
X47031D01*
X47187Y11789D01*
X47242D01*
X47298Y11778D01*
X47387D01*
X47475Y11767D01*
X47587D01*
X47842Y11744D01*
X48120Y11722D01*
X48386Y11700D01*
X48520Y11678D01*
X48642Y11666D01*
X48753Y11655D01*
X48842Y11633D01*
X48864D01*
X48920Y11611D01*
X48998Y11589D01*
X49109Y11544D01*
X49231Y11489D01*
X49353Y11422D01*
X49486Y11322D01*
X49609Y11211D01*
X49620Y11200D01*
X49653Y11156D01*
X49709Y11078D01*
X49764Y10978D01*
X49820Y10867D01*
X49875Y10722D01*
X49909Y10555D01*
X49920Y10378D01*
Y10367D01*
Y10345D01*
Y10311D01*
X49909Y10256D01*
X49898Y10200D01*
X49886Y10122D01*
X49842Y9956D01*
X49753Y9767D01*
X49709Y9667D01*
X49642Y9567D01*
X49564Y9467D01*
X49475Y9367D01*
X49375Y9267D01*
X49253Y9167D01*
X49242D01*
X49220Y9145D01*
X49175Y9122D01*
X49120Y9089D01*
X49042Y9056D01*
X48953Y9011D01*
X48842Y8967D01*
X48709Y8922D01*
X48553Y8867D01*
X48386Y8822D01*
X48198Y8778D01*
X47975Y8745D01*
X47742Y8711D01*
X47487Y8689D01*
X47198Y8678D01*
X46898Y8667D01*
X46753D01*
X46642Y8678D01*
X46509D01*
X46365Y8689D01*
X46209Y8700D01*
X46031Y8711D01*
X45676Y8756D01*
X45320Y8811D01*
X45153Y8856D01*
X45009Y8900D01*
X44865Y8956D01*
X44754Y9011D01*
X44742D01*
X44731Y9022D01*
X44665Y9078D01*
X44587Y9145D01*
X44487Y9256D01*
X44387Y9378D01*
X44298Y9522D01*
X44231Y9700D01*
X44220Y9789D01*
X44209Y9889D01*
Y9900D01*
Y9922D01*
X44220Y9956D01*
Y10000D01*
X44254Y10111D01*
X44320Y10256D01*
X44365Y10333D01*
X44431Y10411D01*
X44498Y10489D01*
X44587Y10567D01*
X44687Y10633D01*
X44809Y10700D01*
X44942Y10756D01*
X45098Y10811D01*
X45087D01*
X45065Y10822D01*
X45042Y10844D01*
X44998Y10878D01*
X44887Y10944D01*
X44776Y11056D01*
X44653Y11189D01*
X44542Y11344D01*
X44498Y11433D01*
X44476Y11533D01*
X44454Y11633D01*
X44442Y11744D01*
Y11755D01*
Y11778D01*
X44454Y11811D01*
X44465Y11867D01*
X44476Y11933D01*
X44498Y12000D01*
X44531Y12078D01*
X44576Y12167D01*
X44631Y12267D01*
X44698Y12355D01*
X44787Y12455D01*
X44887Y12555D01*
X44998Y12644D01*
X45142Y12744D01*
X45298Y12833D01*
X45487Y12911D01*
X45476D01*
X45442Y12933D01*
X45398Y12955D01*
X45342Y12989D01*
X45198Y13078D01*
X45031Y13211D01*
X44853Y13389D01*
X44776Y13489D01*
X44709Y13611D01*
X44653Y13733D01*
X44609Y13877D01*
X44576Y14022D01*
X44565Y14188D01*
Y14200D01*
Y14222D01*
Y14255D01*
X44576Y14311D01*
X44587Y14366D01*
X44598Y14444D01*
X44642Y14611D01*
X44720Y14788D01*
X44776Y14888D01*
X44831Y14988D01*
X44909Y15088D01*
X44987Y15188D01*
X45087Y15277D01*
X45198Y15366D01*
X45209D01*
X45231Y15388D01*
X45265Y15411D01*
X45320Y15433D01*
X45376Y15477D01*
X45454Y15511D01*
X45553Y15555D01*
X45653Y15599D01*
X45776Y15633D01*
X45909Y15677D01*
X46053Y15722D01*
X46209Y15755D01*
X46376Y15777D01*
X46553Y15800D01*
X46753Y15822D01*
X47076D01*
X47142Y15811D01*
X47220D01*
X47398Y15788D01*
X47609Y15766D01*
X47842Y15722D01*
X48087Y15666D01*
X48342Y15588D01*
Y15611D01*
X48353Y15666D01*
X48364Y15744D01*
X48386Y15844D01*
X48420Y15966D01*
X48464Y16088D01*
X48531Y16210D01*
X48598Y16322D01*
X48609Y16333D01*
X48642Y16366D01*
X48698Y16410D01*
X48787Y16466D01*
X48909Y16522D01*
X49075Y16566D01*
X49264Y16599D01*
X49386Y16611D01*
X49653D01*
X49797Y16588D01*
D02*
G37*
G36*
X53586Y15811D02*
X53653D01*
X53719Y15800D01*
X53897Y15766D01*
X54086Y15722D01*
X54286Y15644D01*
X54486Y15544D01*
X54664Y15411D01*
X54686Y15388D01*
X54708Y15366D01*
X54730Y15333D01*
X54775Y15277D01*
X54808Y15222D01*
X54852Y15155D01*
X54897Y15066D01*
X54930Y14966D01*
X54975Y14855D01*
X55019Y14722D01*
X55053Y14577D01*
X55075Y14422D01*
X55097Y14244D01*
X55119Y14055D01*
Y13844D01*
Y10500D01*
X53575D01*
Y13422D01*
Y13433D01*
Y13444D01*
Y13511D01*
Y13600D01*
Y13711D01*
X53564Y13833D01*
X53553Y13955D01*
X53541Y14055D01*
X53530Y14144D01*
Y14155D01*
X53519Y14177D01*
X53508Y14211D01*
X53486Y14266D01*
X53430Y14366D01*
X53330Y14477D01*
X53319Y14489D01*
X53308Y14500D01*
X53264Y14522D01*
X53219Y14555D01*
X53164Y14577D01*
X53097Y14600D01*
X53019Y14611D01*
X52930Y14622D01*
X52897D01*
X52853Y14611D01*
X52808Y14600D01*
X52675Y14555D01*
X52608Y14522D01*
X52530Y14477D01*
X52453Y14411D01*
X52386Y14333D01*
X52319Y14233D01*
X52253Y14111D01*
X52208Y13977D01*
X52164Y13822D01*
X52142Y13633D01*
X52131Y13422D01*
Y10500D01*
X50586D01*
Y15722D01*
X52020D01*
Y14844D01*
X52031Y14855D01*
X52053Y14888D01*
X52086Y14933D01*
X52153Y15044D01*
X52242Y15166D01*
X52342Y15300D01*
X52464Y15433D01*
X52586Y15544D01*
X52719Y15633D01*
X52731Y15644D01*
X52775Y15666D01*
X52853Y15688D01*
X52942Y15733D01*
X53053Y15766D01*
X53175Y15788D01*
X53319Y15811D01*
X53464Y15822D01*
X53530D01*
X53586Y15811D01*
D02*
G37*
G36*
X66485Y10500D02*
X65063D01*
Y11311D01*
X65052Y11300D01*
X65040Y11267D01*
X65007Y11222D01*
X64963Y11167D01*
X64907Y11100D01*
X64851Y11022D01*
X64774Y10933D01*
X64685Y10855D01*
X64474Y10678D01*
X64229Y10533D01*
X64085Y10478D01*
X63941Y10433D01*
X63785Y10400D01*
X63618Y10389D01*
X63541D01*
X63474Y10400D01*
X63407Y10411D01*
X63318Y10422D01*
X63118Y10478D01*
X62907Y10555D01*
X62785Y10622D01*
X62674Y10689D01*
X62563Y10767D01*
X62452Y10855D01*
X62352Y10967D01*
X62252Y11089D01*
Y11100D01*
X62230Y11122D01*
X62207Y11167D01*
X62174Y11222D01*
X62141Y11289D01*
X62096Y11378D01*
X62052Y11478D01*
X62007Y11600D01*
X61963Y11733D01*
X61918Y11878D01*
X61874Y12033D01*
X61841Y12211D01*
X61807Y12400D01*
X61785Y12600D01*
X61774Y12811D01*
X61763Y13044D01*
Y13055D01*
Y13100D01*
Y13166D01*
X61774Y13255D01*
Y13366D01*
X61785Y13500D01*
X61807Y13633D01*
X61830Y13789D01*
X61885Y14111D01*
X61974Y14455D01*
X62096Y14777D01*
X62174Y14933D01*
X62263Y15077D01*
X62274Y15088D01*
X62285Y15111D01*
X62318Y15144D01*
X62352Y15200D01*
X62407Y15255D01*
X62474Y15311D01*
X62541Y15377D01*
X62629Y15455D01*
X62841Y15588D01*
X63085Y15711D01*
X63218Y15755D01*
X63374Y15788D01*
X63541Y15811D01*
X63707Y15822D01*
X63785D01*
X63841Y15811D01*
X63918Y15800D01*
X63996Y15788D01*
X64185Y15744D01*
X64385Y15655D01*
X64496Y15611D01*
X64607Y15544D01*
X64707Y15466D01*
X64807Y15377D01*
X64907Y15277D01*
X64996Y15155D01*
Y17555D01*
X66485D01*
Y10500D01*
D02*
G37*
G36*
X266087Y72000D02*
X263514D01*
Y80700D01*
X266087D01*
Y72000D01*
D02*
G37*
G36*
X314398D02*
X311825D01*
Y83754D01*
X314398D01*
Y72000D01*
D02*
G37*
G36*
X257998Y83735D02*
X258146D01*
X258498Y83717D01*
X258868Y83680D01*
X259256Y83606D01*
X259645Y83532D01*
X259978Y83421D01*
X259997D01*
X260015Y83402D01*
X260126Y83365D01*
X260274Y83273D01*
X260478Y83143D01*
X260700Y82976D01*
X260959Y82773D01*
X261218Y82532D01*
X261459Y82236D01*
Y82218D01*
X261496Y82199D01*
X261515Y82143D01*
X261570Y82088D01*
X261663Y81903D01*
X261792Y81662D01*
X261903Y81348D01*
X262014Y80996D01*
X262088Y80589D01*
X262107Y80144D01*
Y80126D01*
Y80107D01*
Y79996D01*
X262088Y79830D01*
X262070Y79608D01*
X262014Y79348D01*
X261959Y79052D01*
X261866Y78756D01*
X261755Y78442D01*
X261737Y78404D01*
X261700Y78312D01*
X261607Y78145D01*
X261496Y77960D01*
X261367Y77757D01*
X261200Y77535D01*
X260996Y77331D01*
X260774Y77127D01*
X260756Y77109D01*
X260663Y77053D01*
X260552Y76979D01*
X260404Y76887D01*
X260219Y76776D01*
X260015Y76683D01*
X259793Y76591D01*
X259571Y76516D01*
X259553D01*
X259460Y76498D01*
X259312Y76479D01*
X259127Y76442D01*
X258868Y76424D01*
X258535Y76387D01*
X258164Y76368D01*
X255795D01*
Y72000D01*
X253000D01*
Y83754D01*
X257868D01*
X257998Y83735D01*
D02*
G37*
G36*
X287262Y80848D02*
X287429Y80829D01*
X287614Y80792D01*
X287836Y80755D01*
X288058Y80700D01*
X288299Y80626D01*
X288558Y80552D01*
X288817Y80441D01*
X289076Y80311D01*
X289317Y80163D01*
X289576Y79978D01*
X289798Y79793D01*
X290020Y79552D01*
X290038Y79534D01*
X290075Y79497D01*
X290131Y79422D01*
X290205Y79312D01*
X290279Y79200D01*
X290372Y79034D01*
X290483Y78867D01*
X290594Y78664D01*
X290686Y78442D01*
X290797Y78201D01*
X290890Y77923D01*
X290983Y77646D01*
X291038Y77331D01*
X291094Y77016D01*
X291131Y76665D01*
X291149Y76313D01*
Y76294D01*
Y76220D01*
Y76128D01*
X291131Y75998D01*
X291112Y75832D01*
X291094Y75628D01*
X291057Y75424D01*
X291001Y75184D01*
X290872Y74665D01*
X290779Y74406D01*
X290649Y74129D01*
X290520Y73870D01*
X290372Y73592D01*
X290187Y73333D01*
X289983Y73092D01*
X289965Y73074D01*
X289927Y73037D01*
X289872Y72981D01*
X289779Y72888D01*
X289650Y72796D01*
X289520Y72685D01*
X289354Y72574D01*
X289169Y72463D01*
X288965Y72333D01*
X288724Y72222D01*
X288484Y72111D01*
X288206Y72018D01*
X287910Y71926D01*
X287595Y71870D01*
X287262Y71833D01*
X286910Y71815D01*
X286725D01*
X286596Y71833D01*
X286448Y71852D01*
X286262Y71889D01*
X286059Y71926D01*
X285855Y71982D01*
X285374Y72130D01*
X285133Y72222D01*
X284874Y72352D01*
X284634Y72500D01*
X284393Y72666D01*
X284171Y72852D01*
X283949Y73074D01*
X283930Y73092D01*
X283893Y73129D01*
X283838Y73203D01*
X283782Y73314D01*
X283690Y73425D01*
X283597Y73592D01*
X283505Y73759D01*
X283393Y73962D01*
X283282Y74184D01*
X283190Y74443D01*
X283097Y74703D01*
X283005Y74999D01*
X282949Y75313D01*
X282894Y75628D01*
X282857Y75980D01*
X282838Y76350D01*
Y76368D01*
Y76405D01*
Y76479D01*
Y76591D01*
X282857Y76701D01*
Y76850D01*
X282894Y77164D01*
X282968Y77535D01*
X283042Y77923D01*
X283171Y78330D01*
X283338Y78701D01*
Y78719D01*
X283356Y78738D01*
X283393Y78793D01*
X283430Y78867D01*
X283541Y79034D01*
X283690Y79256D01*
X283893Y79497D01*
X284134Y79756D01*
X284393Y80015D01*
X284708Y80256D01*
X284726D01*
X284745Y80274D01*
X284800Y80311D01*
X284874Y80348D01*
X285059Y80441D01*
X285318Y80570D01*
X285633Y80681D01*
X286022Y80774D01*
X286448Y80848D01*
X286929Y80866D01*
X287114D01*
X287262Y80848D01*
D02*
G37*
G36*
X320413D02*
X320580Y80829D01*
X320765Y80792D01*
X320987Y80755D01*
X321209Y80700D01*
X321450Y80626D01*
X321709Y80552D01*
X321968Y80441D01*
X322227Y80311D01*
X322468Y80163D01*
X322727Y79978D01*
X322949Y79793D01*
X323171Y79552D01*
X323190Y79534D01*
X323227Y79497D01*
X323283Y79422D01*
X323357Y79312D01*
X323430Y79200D01*
X323523Y79034D01*
X323634Y78867D01*
X323745Y78664D01*
X323838Y78442D01*
X323949Y78201D01*
X324041Y77923D01*
X324134Y77646D01*
X324189Y77331D01*
X324245Y77016D01*
X324282Y76665D01*
X324301Y76313D01*
Y76294D01*
Y76220D01*
Y76128D01*
X324282Y75998D01*
X324264Y75832D01*
X324245Y75628D01*
X324208Y75424D01*
X324152Y75184D01*
X324023Y74665D01*
X323930Y74406D01*
X323801Y74129D01*
X323671Y73870D01*
X323523Y73592D01*
X323338Y73333D01*
X323134Y73092D01*
X323116Y73074D01*
X323079Y73037D01*
X323023Y72981D01*
X322931Y72888D01*
X322801Y72796D01*
X322672Y72685D01*
X322505Y72574D01*
X322320Y72463D01*
X322116Y72333D01*
X321876Y72222D01*
X321635Y72111D01*
X321357Y72018D01*
X321061Y71926D01*
X320747Y71870D01*
X320413Y71833D01*
X320062Y71815D01*
X319877D01*
X319747Y71833D01*
X319599Y71852D01*
X319414Y71889D01*
X319210Y71926D01*
X319007Y71982D01*
X318525Y72130D01*
X318285Y72222D01*
X318026Y72352D01*
X317785Y72500D01*
X317544Y72666D01*
X317322Y72852D01*
X317100Y73074D01*
X317082Y73092D01*
X317045Y73129D01*
X316989Y73203D01*
X316933Y73314D01*
X316841Y73425D01*
X316748Y73592D01*
X316656Y73759D01*
X316545Y73962D01*
X316434Y74184D01*
X316341Y74443D01*
X316249Y74703D01*
X316156Y74999D01*
X316101Y75313D01*
X316045Y75628D01*
X316008Y75980D01*
X315989Y76350D01*
Y76368D01*
Y76405D01*
Y76479D01*
Y76591D01*
X316008Y76701D01*
Y76850D01*
X316045Y77164D01*
X316119Y77535D01*
X316193Y77923D01*
X316323Y78330D01*
X316489Y78701D01*
Y78719D01*
X316508Y78738D01*
X316545Y78793D01*
X316582Y78867D01*
X316693Y79034D01*
X316841Y79256D01*
X317045Y79497D01*
X317285Y79756D01*
X317544Y80015D01*
X317859Y80256D01*
X317878D01*
X317896Y80274D01*
X317952Y80311D01*
X318026Y80348D01*
X318211Y80441D01*
X318470Y80570D01*
X318784Y80681D01*
X319173Y80774D01*
X319599Y80848D01*
X320080Y80866D01*
X320265D01*
X320413Y80848D01*
D02*
G37*
G36*
X309715Y72000D02*
X307327D01*
Y73444D01*
X307290Y73388D01*
X307253Y73314D01*
X307197Y73203D01*
X307105Y73074D01*
X307012Y72944D01*
X306883Y72796D01*
X306753Y72648D01*
X306587Y72481D01*
X306401Y72333D01*
X306179Y72204D01*
X305957Y72074D01*
X305698Y71963D01*
X305402Y71889D01*
X305087Y71833D01*
X304754Y71815D01*
X304587D01*
X304421Y71833D01*
X304199Y71852D01*
X303958Y71907D01*
X303699Y71963D01*
X303458Y72056D01*
X303236Y72167D01*
X303218Y72185D01*
X303144Y72241D01*
X303069Y72315D01*
X302958Y72426D01*
X302829Y72574D01*
X302699Y72740D01*
X302588Y72944D01*
X302496Y73166D01*
Y73203D01*
X302459Y73296D01*
X302422Y73425D01*
X302385Y73647D01*
X302348Y73906D01*
X302311Y74221D01*
X302292Y74573D01*
X302274Y74999D01*
Y80700D01*
X304754D01*
Y74999D01*
Y74980D01*
Y74943D01*
Y74888D01*
X304772Y74813D01*
X304809Y74628D01*
X304884Y74425D01*
X304995Y74203D01*
X305161Y74018D01*
X305272Y73944D01*
X305402Y73888D01*
X305550Y73851D01*
X305716Y73832D01*
X305790D01*
X305883Y73851D01*
X306013Y73870D01*
X306142Y73906D01*
X306272Y73944D01*
X306420Y74018D01*
X306568Y74110D01*
X306587Y74129D01*
X306624Y74166D01*
X306698Y74221D01*
X306771Y74295D01*
X306920Y74480D01*
X306994Y74591D01*
X307031Y74703D01*
Y74721D01*
X307049Y74758D01*
X307068Y74850D01*
X307086Y74962D01*
X307105Y75110D01*
X307123Y75295D01*
X307142Y75517D01*
Y75795D01*
Y80700D01*
X309715D01*
Y72000D01*
D02*
G37*
G36*
X266087Y81403D02*
X263514D01*
Y83976D01*
X266087D01*
Y81403D01*
D02*
G37*
G36*
X33677Y15811D02*
X33766Y15800D01*
X33866Y15788D01*
X33977Y15766D01*
X34110Y15733D01*
X34377Y15644D01*
X34521Y15588D01*
X34666Y15522D01*
X34810Y15444D01*
X34966Y15344D01*
X35110Y15233D01*
X35243Y15111D01*
X35254Y15100D01*
X35277Y15077D01*
X35310Y15033D01*
X35355Y14977D01*
X35410Y14900D01*
X35477Y14800D01*
X35532Y14688D01*
X35610Y14566D01*
X35677Y14411D01*
X35732Y14244D01*
X35799Y14055D01*
X35854Y13855D01*
X35899Y13633D01*
X35932Y13389D01*
X35954Y13122D01*
X35965Y12844D01*
X32599D01*
Y12833D01*
Y12822D01*
Y12755D01*
Y12678D01*
Y12600D01*
Y12589D01*
Y12578D01*
Y12511D01*
X32610Y12411D01*
X32632Y12289D01*
X32666Y12155D01*
X32721Y12011D01*
X32788Y11878D01*
X32888Y11755D01*
X32899Y11744D01*
X32944Y11711D01*
X33010Y11666D01*
X33088Y11622D01*
X33199Y11567D01*
X33310Y11522D01*
X33455Y11489D01*
X33599Y11478D01*
X33632D01*
X33677Y11489D01*
X33721D01*
X33855Y11522D01*
X34010Y11578D01*
X34088Y11622D01*
X34166Y11678D01*
X34244Y11744D01*
X34321Y11822D01*
X34388Y11922D01*
X34444Y12033D01*
X34499Y12155D01*
X34532Y12300D01*
X35932Y12189D01*
X35921Y12167D01*
X35899Y12111D01*
X35866Y12022D01*
X35810Y11911D01*
X35743Y11767D01*
X35654Y11622D01*
X35543Y11456D01*
X35410Y11289D01*
X35266Y11122D01*
X35088Y10955D01*
X34899Y10811D01*
X34677Y10667D01*
X34444Y10555D01*
X34166Y10467D01*
X33877Y10411D01*
X33555Y10389D01*
X33421D01*
X33355Y10400D01*
X33277Y10411D01*
X33099Y10433D01*
X32888Y10467D01*
X32666Y10522D01*
X32444Y10600D01*
X32221Y10700D01*
X32210D01*
X32199Y10711D01*
X32133Y10756D01*
X32033Y10833D01*
X31910Y10933D01*
X31766Y11056D01*
X31610Y11211D01*
X31466Y11400D01*
X31321Y11611D01*
Y11622D01*
X31310Y11633D01*
X31288Y11678D01*
X31266Y11722D01*
X31244Y11778D01*
X31210Y11844D01*
X31155Y12011D01*
X31088Y12222D01*
X31033Y12466D01*
X30988Y12744D01*
X30977Y13044D01*
Y13055D01*
Y13100D01*
Y13166D01*
X30988Y13255D01*
X30999Y13355D01*
X31010Y13477D01*
X31033Y13611D01*
X31066Y13766D01*
X31144Y14077D01*
X31210Y14244D01*
X31277Y14422D01*
X31355Y14589D01*
X31444Y14744D01*
X31555Y14911D01*
X31677Y15055D01*
X31688Y15066D01*
X31710Y15088D01*
X31755Y15122D01*
X31810Y15177D01*
X31877Y15233D01*
X31966Y15300D01*
X32066Y15366D01*
X32177Y15444D01*
X32299Y15511D01*
X32432Y15577D01*
X32588Y15644D01*
X32755Y15699D01*
X32921Y15755D01*
X33110Y15788D01*
X33310Y15811D01*
X33510Y15822D01*
X33610D01*
X33677Y15811D01*
D02*
G37*
G36*
X300164Y72000D02*
X297794D01*
Y73351D01*
X297776Y73333D01*
X297757Y73277D01*
X297702Y73203D01*
X297628Y73111D01*
X297535Y73000D01*
X297443Y72870D01*
X297313Y72722D01*
X297165Y72592D01*
X296813Y72296D01*
X296406Y72056D01*
X296165Y71963D01*
X295925Y71889D01*
X295666Y71833D01*
X295388Y71815D01*
X295258D01*
X295147Y71833D01*
X295036Y71852D01*
X294888Y71870D01*
X294555Y71963D01*
X294203Y72093D01*
X294000Y72204D01*
X293815Y72315D01*
X293629Y72444D01*
X293444Y72592D01*
X293278Y72777D01*
X293111Y72981D01*
Y73000D01*
X293074Y73037D01*
X293037Y73111D01*
X292982Y73203D01*
X292926Y73314D01*
X292852Y73462D01*
X292778Y73629D01*
X292704Y73832D01*
X292630Y74055D01*
X292556Y74295D01*
X292482Y74554D01*
X292426Y74850D01*
X292371Y75165D01*
X292334Y75498D01*
X292315Y75850D01*
X292297Y76239D01*
Y76257D01*
Y76331D01*
Y76442D01*
X292315Y76591D01*
Y76776D01*
X292334Y76998D01*
X292371Y77220D01*
X292408Y77479D01*
X292500Y78016D01*
X292648Y78590D01*
X292852Y79126D01*
X292982Y79386D01*
X293130Y79626D01*
X293148Y79645D01*
X293167Y79682D01*
X293222Y79737D01*
X293278Y79830D01*
X293370Y79922D01*
X293481Y80015D01*
X293592Y80126D01*
X293741Y80256D01*
X294092Y80478D01*
X294499Y80681D01*
X294722Y80755D01*
X294981Y80811D01*
X295258Y80848D01*
X295536Y80866D01*
X295666D01*
X295758Y80848D01*
X295888Y80829D01*
X296017Y80811D01*
X296332Y80737D01*
X296665Y80589D01*
X296850Y80515D01*
X297035Y80404D01*
X297202Y80274D01*
X297369Y80126D01*
X297535Y79959D01*
X297683Y79756D01*
Y83754D01*
X300164D01*
Y72000D01*
D02*
G37*
G36*
X281117D02*
X278340D01*
Y81570D01*
X275379Y72000D01*
X273472D01*
X270621Y81570D01*
Y72000D01*
X268308D01*
Y83754D01*
X272602D01*
X274638Y76701D01*
X276804Y83754D01*
X281117D01*
Y72000D01*
D02*
G37*
G36*
X329280Y80848D02*
X329409Y80829D01*
X329724Y80792D01*
X330076Y80737D01*
X330446Y80626D01*
X330798Y80496D01*
X331131Y80311D01*
X331149D01*
X331168Y80292D01*
X331260Y80200D01*
X331427Y80070D01*
X331612Y79885D01*
X331816Y79645D01*
X332019Y79348D01*
X332223Y78997D01*
X332408Y78571D01*
X330538Y78090D01*
Y78108D01*
X330520Y78145D01*
X330501Y78201D01*
X330464Y78275D01*
X330353Y78460D01*
X330205Y78682D01*
X329983Y78904D01*
X329835Y78997D01*
X329687Y79089D01*
X329502Y79163D01*
X329298Y79219D01*
X329076Y79256D01*
X328836Y79274D01*
X328724D01*
X328632Y79256D01*
X328428Y79237D01*
X328206Y79182D01*
X327965Y79089D01*
X327762Y78941D01*
X327669Y78849D01*
X327614Y78738D01*
X327577Y78627D01*
X327558Y78478D01*
Y78460D01*
Y78423D01*
X327577Y78367D01*
X327595Y78293D01*
X327651Y78127D01*
X327706Y78053D01*
X327780Y77979D01*
X327799D01*
X327836Y77942D01*
X327910Y77905D01*
X328021Y77868D01*
X328188Y77812D01*
X328410Y77775D01*
X328687Y77720D01*
X329021Y77664D01*
X329095D01*
X329169Y77646D01*
X329261Y77627D01*
X329391Y77609D01*
X329520Y77590D01*
X329854Y77535D01*
X330205Y77460D01*
X330575Y77386D01*
X330909Y77294D01*
X331205Y77201D01*
X331242Y77183D01*
X331316Y77146D01*
X331464Y77090D01*
X331612Y76998D01*
X331797Y76887D01*
X332001Y76739D01*
X332186Y76553D01*
X332352Y76350D01*
X332371Y76331D01*
X332426Y76239D01*
X332482Y76109D01*
X332575Y75924D01*
X332648Y75721D01*
X332704Y75461D01*
X332760Y75165D01*
X332778Y74832D01*
Y74813D01*
Y74777D01*
Y74703D01*
X332760Y74610D01*
X332741Y74499D01*
X332723Y74369D01*
X332648Y74055D01*
X332519Y73721D01*
X332334Y73351D01*
X332223Y73166D01*
X332093Y72981D01*
X331927Y72814D01*
X331741Y72648D01*
X331723D01*
X331686Y72611D01*
X331630Y72574D01*
X331556Y72518D01*
X331445Y72463D01*
X331316Y72389D01*
X331168Y72315D01*
X331001Y72241D01*
X330816Y72148D01*
X330612Y72074D01*
X330372Y72000D01*
X330113Y71944D01*
X329854Y71889D01*
X329557Y71852D01*
X329243Y71833D01*
X328909Y71815D01*
X328761D01*
X328595Y71833D01*
X328373Y71852D01*
X328114Y71889D01*
X327817Y71944D01*
X327503Y72037D01*
X327170Y72130D01*
X326818Y72278D01*
X326485Y72444D01*
X326151Y72648D01*
X325837Y72888D01*
X325541Y73185D01*
X325300Y73518D01*
X325097Y73925D01*
X324948Y74369D01*
X327096Y74703D01*
Y74684D01*
X327114Y74647D01*
X327133Y74591D01*
X327170Y74517D01*
X327262Y74332D01*
X327336Y74221D01*
X327429Y74129D01*
X327540Y74018D01*
X327688Y73906D01*
X327836Y73814D01*
X328021Y73721D01*
X328225Y73647D01*
X328465Y73592D01*
X328724Y73555D01*
X329021Y73536D01*
X329132D01*
X329243Y73555D01*
X329391Y73573D01*
X329557Y73592D01*
X329743Y73629D01*
X329928Y73684D01*
X330094Y73759D01*
X330113Y73777D01*
X330168Y73795D01*
X330242Y73851D01*
X330316Y73925D01*
X330390Y73999D01*
X330464Y74110D01*
X330520Y74240D01*
X330538Y74369D01*
Y74388D01*
X330520Y74462D01*
X330483Y74554D01*
X330409Y74684D01*
X330298Y74795D01*
X330113Y74925D01*
X330002Y74962D01*
X329872Y75017D01*
X329724Y75054D01*
X329557Y75073D01*
X329520D01*
X329446Y75091D01*
X329317Y75110D01*
X329132Y75128D01*
X328928Y75165D01*
X328687Y75221D01*
X328428Y75258D01*
X328132Y75332D01*
X327558Y75461D01*
X326985Y75647D01*
X326725Y75739D01*
X326485Y75850D01*
X326281Y75961D01*
X326096Y76091D01*
X326059Y76128D01*
X325966Y76220D01*
X325837Y76368D01*
X325689Y76591D01*
X325541Y76850D01*
X325411Y77183D01*
X325319Y77571D01*
X325300Y77775D01*
X325282Y77997D01*
Y78016D01*
Y78053D01*
Y78127D01*
X325300Y78201D01*
X325319Y78312D01*
X325337Y78442D01*
X325411Y78719D01*
X325522Y79052D01*
X325689Y79386D01*
X325800Y79552D01*
X325929Y79737D01*
X326078Y79904D01*
X326244Y80052D01*
X326263Y80070D01*
X326281Y80089D01*
X326337Y80126D01*
X326429Y80181D01*
X326522Y80237D01*
X326633Y80311D01*
X326781Y80385D01*
X326947Y80459D01*
X327114Y80533D01*
X327318Y80607D01*
X327540Y80681D01*
X327780Y80737D01*
X328040Y80792D01*
X328317Y80829D01*
X328613Y80866D01*
X329150D01*
X329280Y80848D01*
D02*
G37*
G36*
X94462Y6285D02*
X95491D01*
Y5185D01*
X94462D01*
Y3159D01*
Y3139D01*
Y3098D01*
X94473Y3037D01*
Y2956D01*
X94513Y2783D01*
X94534Y2711D01*
X94574Y2650D01*
X94585D01*
X94595Y2630D01*
X94635Y2610D01*
X94686Y2589D01*
X94758Y2569D01*
X94849Y2548D01*
X94961Y2538D01*
X95104Y2528D01*
X95379D01*
X95552Y2538D01*
Y1500D01*
X95521D01*
X95491Y1490D01*
X95450Y1480D01*
X95338Y1469D01*
X95206Y1449D01*
X95063Y1429D01*
X94920Y1419D01*
X94778Y1398D01*
X94585D01*
X94524Y1408D01*
X94452D01*
X94371Y1419D01*
X94177Y1439D01*
X93974Y1480D01*
X93760Y1541D01*
X93577Y1622D01*
X93485Y1673D01*
X93414Y1734D01*
X93393Y1754D01*
X93353Y1805D01*
X93302Y1887D01*
X93261Y1948D01*
X93231Y2009D01*
X93200Y2090D01*
X93159Y2182D01*
X93129Y2284D01*
X93108Y2396D01*
X93078Y2518D01*
X93068Y2650D01*
X93047Y2793D01*
Y2956D01*
Y5185D01*
X92294D01*
Y6285D01*
X93129D01*
X93241Y7689D01*
X94462Y7791D01*
Y6285D01*
D02*
G37*
G36*
X84415Y7954D02*
X84486D01*
X84669Y7944D01*
X84873Y7924D01*
X85076Y7883D01*
X85280Y7842D01*
X85474Y7781D01*
X85484D01*
X85494Y7771D01*
X85555Y7740D01*
X85646Y7700D01*
X85748Y7628D01*
X85881Y7537D01*
X86013Y7415D01*
X86145Y7272D01*
X86268Y7099D01*
Y7089D01*
X86278Y7079D01*
X86298Y7048D01*
X86318Y7018D01*
X86369Y6916D01*
X86430Y6783D01*
X86481Y6621D01*
X86532Y6437D01*
X86573Y6234D01*
X86583Y6020D01*
Y6010D01*
Y5969D01*
X86573Y5908D01*
X86563Y5827D01*
X86553Y5735D01*
X86522Y5623D01*
X86492Y5501D01*
X86441Y5368D01*
X86379Y5236D01*
X86308Y5094D01*
X86217Y4951D01*
X86115Y4819D01*
X85983Y4686D01*
X85830Y4554D01*
X85657Y4442D01*
X85463Y4340D01*
X86654Y1500D01*
X84985D01*
X83987Y4055D01*
X82908D01*
Y1500D01*
X81381D01*
Y7964D01*
X84343D01*
X84415Y7954D01*
D02*
G37*
G36*
X45008Y6366D02*
X45120Y6356D01*
X45242Y6325D01*
X45385Y6295D01*
X45517Y6244D01*
X45649Y6173D01*
X45670Y6162D01*
X45710Y6142D01*
X45772Y6091D01*
X45843Y6040D01*
X45924Y5959D01*
X46006Y5877D01*
X46077Y5776D01*
X46138Y5664D01*
X46148Y5653D01*
X46158Y5602D01*
X46189Y5531D01*
X46219Y5419D01*
X46240Y5267D01*
X46270Y5083D01*
X46281Y4982D01*
Y4859D01*
X46291Y4737D01*
Y4595D01*
Y1500D01*
X44876D01*
Y4137D01*
Y4147D01*
Y4157D01*
Y4188D01*
Y4228D01*
Y4320D01*
Y4442D01*
X44866Y4564D01*
X44855Y4676D01*
X44845Y4778D01*
X44835Y4859D01*
Y4870D01*
X44825Y4890D01*
X44815Y4921D01*
X44804Y4961D01*
X44754Y5053D01*
X44713Y5104D01*
X44662Y5144D01*
X44652Y5155D01*
X44642Y5165D01*
X44611Y5185D01*
X44570Y5206D01*
X44509Y5226D01*
X44448Y5236D01*
X44377Y5256D01*
X44245D01*
X44194Y5246D01*
X44143Y5236D01*
X44061Y5216D01*
X43990Y5185D01*
X43898Y5144D01*
X43807Y5083D01*
X43797Y5073D01*
X43766Y5043D01*
X43736Y4992D01*
X43695Y4900D01*
X43664Y4849D01*
X43644Y4778D01*
X43624Y4707D01*
X43613Y4615D01*
X43593Y4513D01*
X43583Y4401D01*
X43573Y4279D01*
Y4137D01*
Y1500D01*
X42158D01*
Y4137D01*
Y4147D01*
Y4157D01*
Y4188D01*
Y4228D01*
Y4330D01*
X42147Y4442D01*
Y4564D01*
X42137Y4686D01*
X42117Y4788D01*
X42096Y4870D01*
Y4880D01*
X42086Y4900D01*
X42076Y4931D01*
X42056Y4971D01*
X41995Y5063D01*
X41903Y5144D01*
X41893Y5155D01*
X41883Y5165D01*
X41842Y5185D01*
X41801Y5206D01*
X41750Y5226D01*
X41689Y5236D01*
X41618Y5256D01*
X41475D01*
X41414Y5246D01*
X41333Y5226D01*
X41241Y5195D01*
X41150Y5155D01*
X41068Y5104D01*
X40997Y5022D01*
X40987Y5012D01*
X40966Y4971D01*
X40946Y4910D01*
X40916Y4829D01*
X40875Y4707D01*
X40854Y4554D01*
X40834Y4361D01*
X40824Y4137D01*
Y1500D01*
X39460D01*
Y6285D01*
X40783D01*
Y5552D01*
X40804Y5582D01*
X40824Y5623D01*
X40854Y5674D01*
X40895Y5735D01*
X40946Y5806D01*
X41007Y5877D01*
X41078Y5959D01*
X41160Y6040D01*
X41262Y6112D01*
X41374Y6183D01*
X41496Y6244D01*
X41628Y6295D01*
X41781Y6346D01*
X41944Y6366D01*
X42127Y6376D01*
X42168D01*
X42219Y6366D01*
X42280D01*
X42351Y6356D01*
X42443Y6335D01*
X42636Y6274D01*
X42748Y6224D01*
X42850Y6173D01*
X42962Y6101D01*
X43074Y6020D01*
X43176Y5928D01*
X43277Y5816D01*
X43369Y5684D01*
X43450Y5542D01*
Y5552D01*
X43471Y5582D01*
X43491Y5623D01*
X43532Y5674D01*
X43573Y5735D01*
X43624Y5806D01*
X43695Y5877D01*
X43776Y5959D01*
X43858Y6040D01*
X43959Y6112D01*
X44082Y6183D01*
X44204Y6244D01*
X44336Y6295D01*
X44489Y6346D01*
X44662Y6366D01*
X44835Y6376D01*
X44916D01*
X45008Y6366D01*
D02*
G37*
G36*
X33046Y1500D02*
X31743D01*
Y2243D01*
X31733Y2233D01*
X31723Y2202D01*
X31692Y2162D01*
X31652Y2111D01*
X31601Y2050D01*
X31550Y1979D01*
X31479Y1897D01*
X31397Y1826D01*
X31204Y1663D01*
X30980Y1531D01*
X30848Y1480D01*
X30715Y1439D01*
X30573Y1408D01*
X30420Y1398D01*
X30349D01*
X30288Y1408D01*
X30227Y1419D01*
X30145Y1429D01*
X29962Y1480D01*
X29768Y1551D01*
X29656Y1612D01*
X29555Y1673D01*
X29453Y1744D01*
X29351Y1826D01*
X29259Y1928D01*
X29168Y2039D01*
Y2050D01*
X29147Y2070D01*
X29127Y2111D01*
X29097Y2162D01*
X29066Y2223D01*
X29025Y2304D01*
X28985Y2396D01*
X28944Y2508D01*
X28903Y2630D01*
X28863Y2762D01*
X28822Y2905D01*
X28791Y3068D01*
X28761Y3241D01*
X28740Y3424D01*
X28730Y3617D01*
X28720Y3831D01*
Y3841D01*
Y3882D01*
Y3943D01*
X28730Y4025D01*
Y4126D01*
X28740Y4249D01*
X28761Y4371D01*
X28781Y4513D01*
X28832Y4809D01*
X28913Y5124D01*
X29025Y5419D01*
X29097Y5562D01*
X29178Y5694D01*
X29188Y5704D01*
X29198Y5725D01*
X29229Y5755D01*
X29259Y5806D01*
X29310Y5857D01*
X29372Y5908D01*
X29433Y5969D01*
X29514Y6040D01*
X29707Y6162D01*
X29931Y6274D01*
X30054Y6315D01*
X30196Y6346D01*
X30349Y6366D01*
X30501Y6376D01*
X30573D01*
X30624Y6366D01*
X30695Y6356D01*
X30766Y6346D01*
X30939Y6305D01*
X31122Y6224D01*
X31224Y6183D01*
X31326Y6122D01*
X31418Y6050D01*
X31509Y5969D01*
X31601Y5877D01*
X31682Y5765D01*
Y7964D01*
X33046D01*
Y1500D01*
D02*
G37*
G36*
X52775D02*
X51147D01*
X49222Y7964D01*
X50831D01*
X52114Y3332D01*
X53468Y7964D01*
X54730D01*
X52775Y1500D01*
D02*
G37*
G36*
X80607Y3444D02*
X78347D01*
Y4473D01*
X80607D01*
Y3444D01*
D02*
G37*
G36*
X97639Y5633D02*
X97659Y5653D01*
X97679Y5694D01*
X97710Y5745D01*
X97761Y5796D01*
X97812Y5857D01*
X97873Y5928D01*
X97944Y6000D01*
X98025Y6071D01*
X98127Y6142D01*
X98229Y6203D01*
X98351Y6254D01*
X98473Y6305D01*
X98616Y6346D01*
X98769Y6366D01*
X98931Y6376D01*
X99013D01*
X99104Y6366D01*
X99217Y6346D01*
X99339Y6325D01*
X99481Y6285D01*
X99624Y6234D01*
X99756Y6162D01*
X99776Y6152D01*
X99817Y6122D01*
X99878Y6081D01*
X99949Y6010D01*
X100031Y5939D01*
X100112Y5837D01*
X100184Y5735D01*
X100245Y5613D01*
X100255Y5602D01*
X100265Y5552D01*
X100285Y5480D01*
X100316Y5368D01*
X100347Y5236D01*
X100367Y5063D01*
X100377Y4870D01*
X100387Y4646D01*
Y1500D01*
X98972D01*
Y4188D01*
Y4198D01*
Y4208D01*
Y4269D01*
Y4350D01*
Y4452D01*
X98952Y4666D01*
X98942Y4768D01*
X98931Y4849D01*
Y4859D01*
X98921Y4880D01*
X98911Y4910D01*
X98891Y4961D01*
X98840Y5053D01*
X98758Y5155D01*
X98748Y5165D01*
X98738Y5175D01*
X98707Y5195D01*
X98667Y5216D01*
X98565Y5256D01*
X98494Y5277D01*
X98382D01*
X98321Y5267D01*
X98260Y5246D01*
X98178Y5226D01*
X98087Y5185D01*
X97995Y5134D01*
X97893Y5063D01*
X97883Y5053D01*
X97852Y5022D01*
X97812Y4961D01*
X97771Y4880D01*
X97720Y4758D01*
X97679Y4605D01*
X97659Y4513D01*
X97649Y4422D01*
X97639Y4310D01*
Y4188D01*
Y1500D01*
X96275D01*
Y7964D01*
X97639D01*
Y5633D01*
D02*
G37*
G36*
X64584Y1500D02*
X63281D01*
Y2243D01*
X63271Y2233D01*
X63261Y2202D01*
X63230Y2162D01*
X63190Y2111D01*
X63139Y2050D01*
X63088Y1979D01*
X63016Y1897D01*
X62935Y1826D01*
X62742Y1663D01*
X62518Y1531D01*
X62385Y1480D01*
X62253Y1439D01*
X62110Y1408D01*
X61958Y1398D01*
X61886D01*
X61825Y1408D01*
X61764Y1419D01*
X61683Y1429D01*
X61500Y1480D01*
X61306Y1551D01*
X61194Y1612D01*
X61092Y1673D01*
X60991Y1744D01*
X60889Y1826D01*
X60797Y1928D01*
X60706Y2039D01*
Y2050D01*
X60685Y2070D01*
X60665Y2111D01*
X60634Y2162D01*
X60604Y2223D01*
X60563Y2304D01*
X60522Y2396D01*
X60482Y2508D01*
X60441Y2630D01*
X60400Y2762D01*
X60359Y2905D01*
X60329Y3068D01*
X60298Y3241D01*
X60278Y3424D01*
X60268Y3617D01*
X60258Y3831D01*
Y3841D01*
Y3882D01*
Y3943D01*
X60268Y4025D01*
Y4126D01*
X60278Y4249D01*
X60298Y4371D01*
X60319Y4513D01*
X60370Y4809D01*
X60451Y5124D01*
X60563Y5419D01*
X60634Y5562D01*
X60716Y5694D01*
X60726Y5704D01*
X60736Y5725D01*
X60767Y5755D01*
X60797Y5806D01*
X60848Y5857D01*
X60909Y5908D01*
X60970Y5969D01*
X61052Y6040D01*
X61245Y6162D01*
X61469Y6274D01*
X61591Y6315D01*
X61734Y6346D01*
X61886Y6366D01*
X62039Y6376D01*
X62110D01*
X62161Y6366D01*
X62233Y6356D01*
X62304Y6346D01*
X62477Y6305D01*
X62660Y6224D01*
X62762Y6183D01*
X62864Y6122D01*
X62955Y6050D01*
X63047Y5969D01*
X63139Y5877D01*
X63220Y5765D01*
Y7964D01*
X64584D01*
Y1500D01*
D02*
G37*
G36*
X57519Y6366D02*
X57641D01*
X57784Y6346D01*
X57937Y6325D01*
X58100Y6295D01*
X58262Y6254D01*
X58283D01*
X58334Y6234D01*
X58415Y6203D01*
X58507Y6173D01*
X58619Y6122D01*
X58731Y6061D01*
X58832Y6000D01*
X58934Y5918D01*
X58944Y5908D01*
X58975Y5877D01*
X59016Y5837D01*
X59067Y5776D01*
X59118Y5704D01*
X59179Y5623D01*
X59219Y5531D01*
X59260Y5440D01*
Y5429D01*
X59270Y5389D01*
X59290Y5328D01*
X59311Y5236D01*
X59321Y5114D01*
X59341Y4961D01*
X59352Y4778D01*
Y4554D01*
Y2386D01*
Y2376D01*
Y2355D01*
Y2325D01*
Y2284D01*
Y2172D01*
X59362Y2039D01*
X59372Y1897D01*
X59382Y1754D01*
X59403Y1612D01*
X59433Y1500D01*
X58069D01*
Y1510D01*
X58059Y1551D01*
X58049Y1612D01*
X58038Y1693D01*
X58018Y1795D01*
X58008Y1928D01*
X57998Y2070D01*
Y2223D01*
X57977Y2213D01*
X57937Y2152D01*
X57865Y2060D01*
X57774Y1958D01*
X57662Y1846D01*
X57540Y1734D01*
X57407Y1632D01*
X57275Y1561D01*
X57254Y1551D01*
X57214Y1541D01*
X57143Y1510D01*
X57041Y1480D01*
X56919Y1449D01*
X56786Y1429D01*
X56634Y1408D01*
X56471Y1398D01*
X56410D01*
X56359Y1408D01*
X56298D01*
X56236Y1419D01*
X56084Y1439D01*
X55911Y1490D01*
X55727Y1551D01*
X55544Y1632D01*
X55381Y1754D01*
X55361Y1775D01*
X55320Y1826D01*
X55249Y1907D01*
X55178Y2019D01*
X55107Y2152D01*
X55035Y2325D01*
X54995Y2518D01*
X54974Y2732D01*
Y2742D01*
Y2752D01*
Y2813D01*
X54984Y2895D01*
X55005Y3007D01*
X55035Y3139D01*
X55076Y3281D01*
X55127Y3424D01*
X55208Y3567D01*
X55218Y3587D01*
X55259Y3628D01*
X55310Y3699D01*
X55402Y3780D01*
X55504Y3872D01*
X55636Y3974D01*
X55799Y4075D01*
X55982Y4157D01*
X55992D01*
X56013Y4167D01*
X56043Y4177D01*
X56084Y4188D01*
X56155Y4208D01*
X56226Y4228D01*
X56318Y4249D01*
X56430Y4279D01*
X56552Y4299D01*
X56695Y4330D01*
X56858Y4361D01*
X57031Y4381D01*
X57234Y4411D01*
X57448Y4432D01*
X57682Y4462D01*
X57937Y4483D01*
Y4747D01*
Y4758D01*
Y4778D01*
Y4809D01*
X57926Y4859D01*
X57896Y4971D01*
X57845Y5104D01*
X57814Y5165D01*
X57763Y5226D01*
X57713Y5287D01*
X57641Y5338D01*
X57560Y5389D01*
X57468Y5419D01*
X57356Y5440D01*
X57234Y5450D01*
X57163D01*
X57122Y5440D01*
X57000Y5409D01*
X56858Y5368D01*
X56715Y5277D01*
X56644Y5226D01*
X56583Y5155D01*
X56522Y5083D01*
X56481Y4982D01*
X56440Y4880D01*
X56420Y4758D01*
X55117Y4880D01*
Y4890D01*
X55127Y4921D01*
X55137Y4961D01*
X55147Y5012D01*
X55168Y5083D01*
X55188Y5155D01*
X55259Y5328D01*
X55361Y5521D01*
X55493Y5704D01*
X55575Y5796D01*
X55666Y5888D01*
X55768Y5959D01*
X55880Y6030D01*
X55890D01*
X55911Y6040D01*
X55941Y6061D01*
X55992Y6081D01*
X56053Y6112D01*
X56135Y6142D01*
X56216Y6173D01*
X56308Y6203D01*
X56522Y6264D01*
X56776Y6325D01*
X57051Y6366D01*
X57346Y6376D01*
X57428D01*
X57519Y6366D01*
D02*
G37*
G36*
X36467D02*
X36589D01*
X36732Y6346D01*
X36884Y6325D01*
X37047Y6295D01*
X37210Y6254D01*
X37231D01*
X37281Y6234D01*
X37363Y6203D01*
X37454Y6173D01*
X37566Y6122D01*
X37678Y6061D01*
X37780Y6000D01*
X37882Y5918D01*
X37892Y5908D01*
X37923Y5877D01*
X37963Y5837D01*
X38014Y5776D01*
X38065Y5704D01*
X38126Y5623D01*
X38167Y5531D01*
X38208Y5440D01*
Y5429D01*
X38218Y5389D01*
X38238Y5328D01*
X38259Y5236D01*
X38269Y5114D01*
X38289Y4961D01*
X38299Y4778D01*
Y4554D01*
Y2386D01*
Y2376D01*
Y2355D01*
Y2325D01*
Y2284D01*
Y2172D01*
X38309Y2039D01*
X38320Y1897D01*
X38330Y1754D01*
X38350Y1612D01*
X38381Y1500D01*
X37017D01*
Y1510D01*
X37007Y1551D01*
X36996Y1612D01*
X36986Y1693D01*
X36966Y1795D01*
X36956Y1928D01*
X36945Y2070D01*
Y2223D01*
X36925Y2213D01*
X36884Y2152D01*
X36813Y2060D01*
X36722Y1958D01*
X36610Y1846D01*
X36487Y1734D01*
X36355Y1632D01*
X36223Y1561D01*
X36202Y1551D01*
X36162Y1541D01*
X36090Y1510D01*
X35989Y1480D01*
X35866Y1449D01*
X35734Y1429D01*
X35581Y1408D01*
X35418Y1398D01*
X35357D01*
X35306Y1408D01*
X35245D01*
X35184Y1419D01*
X35032Y1439D01*
X34859Y1490D01*
X34675Y1551D01*
X34492Y1632D01*
X34329Y1754D01*
X34309Y1775D01*
X34268Y1826D01*
X34197Y1907D01*
X34126Y2019D01*
X34054Y2152D01*
X33983Y2325D01*
X33942Y2518D01*
X33922Y2732D01*
Y2742D01*
Y2752D01*
Y2813D01*
X33932Y2895D01*
X33953Y3007D01*
X33983Y3139D01*
X34024Y3281D01*
X34075Y3424D01*
X34156Y3567D01*
X34166Y3587D01*
X34207Y3628D01*
X34258Y3699D01*
X34350Y3780D01*
X34451Y3872D01*
X34584Y3974D01*
X34747Y4075D01*
X34930Y4157D01*
X34940D01*
X34960Y4167D01*
X34991Y4177D01*
X35032Y4188D01*
X35103Y4208D01*
X35174Y4228D01*
X35266Y4249D01*
X35378Y4279D01*
X35500Y4299D01*
X35642Y4330D01*
X35805Y4361D01*
X35978Y4381D01*
X36182Y4411D01*
X36396Y4432D01*
X36630Y4462D01*
X36884Y4483D01*
Y4747D01*
Y4758D01*
Y4778D01*
Y4809D01*
X36874Y4859D01*
X36844Y4971D01*
X36793Y5104D01*
X36762Y5165D01*
X36711Y5226D01*
X36660Y5287D01*
X36589Y5338D01*
X36508Y5389D01*
X36416Y5419D01*
X36304Y5440D01*
X36182Y5450D01*
X36111D01*
X36070Y5440D01*
X35948Y5409D01*
X35805Y5368D01*
X35663Y5277D01*
X35592Y5226D01*
X35530Y5155D01*
X35469Y5083D01*
X35429Y4982D01*
X35388Y4880D01*
X35368Y4758D01*
X34064Y4880D01*
Y4890D01*
X34075Y4921D01*
X34085Y4961D01*
X34095Y5012D01*
X34115Y5083D01*
X34136Y5155D01*
X34207Y5328D01*
X34309Y5521D01*
X34441Y5704D01*
X34523Y5796D01*
X34614Y5888D01*
X34716Y5959D01*
X34828Y6030D01*
X34838D01*
X34859Y6040D01*
X34889Y6061D01*
X34940Y6081D01*
X35001Y6112D01*
X35083Y6142D01*
X35164Y6173D01*
X35256Y6203D01*
X35469Y6264D01*
X35724Y6325D01*
X35999Y6366D01*
X36294Y6376D01*
X36375D01*
X36467Y6366D01*
D02*
G37*
G36*
X28343Y1500D02*
X26715D01*
X26318Y2834D01*
X24231D01*
X23823Y1500D01*
X22500D01*
X24556Y7964D01*
X26318D01*
X28343Y1500D01*
D02*
G37*
G36*
X68005Y6366D02*
X68127D01*
X68269Y6346D01*
X68422Y6325D01*
X68585Y6295D01*
X68748Y6254D01*
X68768D01*
X68819Y6234D01*
X68900Y6203D01*
X68992Y6173D01*
X69104Y6122D01*
X69216Y6061D01*
X69318Y6000D01*
X69420Y5918D01*
X69430Y5908D01*
X69460Y5877D01*
X69501Y5837D01*
X69552Y5776D01*
X69603Y5704D01*
X69664Y5623D01*
X69705Y5531D01*
X69745Y5440D01*
Y5429D01*
X69756Y5389D01*
X69776Y5328D01*
X69796Y5236D01*
X69806Y5114D01*
X69827Y4961D01*
X69837Y4778D01*
Y4554D01*
Y2386D01*
Y2376D01*
Y2355D01*
Y2325D01*
Y2284D01*
Y2172D01*
X69847Y2039D01*
X69857Y1897D01*
X69867Y1754D01*
X69888Y1612D01*
X69918Y1500D01*
X68554D01*
Y1510D01*
X68544Y1551D01*
X68534Y1612D01*
X68524Y1693D01*
X68503Y1795D01*
X68493Y1928D01*
X68483Y2070D01*
Y2223D01*
X68463Y2213D01*
X68422Y2152D01*
X68351Y2060D01*
X68259Y1958D01*
X68147Y1846D01*
X68025Y1734D01*
X67893Y1632D01*
X67760Y1561D01*
X67740Y1551D01*
X67699Y1541D01*
X67628Y1510D01*
X67526Y1480D01*
X67404Y1449D01*
X67272Y1429D01*
X67119Y1408D01*
X66956Y1398D01*
X66895D01*
X66844Y1408D01*
X66783D01*
X66722Y1419D01*
X66569Y1439D01*
X66396Y1490D01*
X66213Y1551D01*
X66030Y1632D01*
X65867Y1754D01*
X65846Y1775D01*
X65806Y1826D01*
X65734Y1907D01*
X65663Y2019D01*
X65592Y2152D01*
X65521Y2325D01*
X65480Y2518D01*
X65460Y2732D01*
Y2742D01*
Y2752D01*
Y2813D01*
X65470Y2895D01*
X65490Y3007D01*
X65521Y3139D01*
X65561Y3281D01*
X65612Y3424D01*
X65694Y3567D01*
X65704Y3587D01*
X65745Y3628D01*
X65795Y3699D01*
X65887Y3780D01*
X65989Y3872D01*
X66121Y3974D01*
X66284Y4075D01*
X66467Y4157D01*
X66478D01*
X66498Y4167D01*
X66528Y4177D01*
X66569Y4188D01*
X66641Y4208D01*
X66712Y4228D01*
X66803Y4249D01*
X66915Y4279D01*
X67037Y4299D01*
X67180Y4330D01*
X67343Y4361D01*
X67516Y4381D01*
X67720Y4411D01*
X67933Y4432D01*
X68168Y4462D01*
X68422Y4483D01*
Y4747D01*
Y4758D01*
Y4778D01*
Y4809D01*
X68412Y4859D01*
X68381Y4971D01*
X68330Y5104D01*
X68300Y5165D01*
X68249Y5226D01*
X68198Y5287D01*
X68127Y5338D01*
X68045Y5389D01*
X67954Y5419D01*
X67842Y5440D01*
X67720Y5450D01*
X67648D01*
X67608Y5440D01*
X67485Y5409D01*
X67343Y5368D01*
X67200Y5277D01*
X67129Y5226D01*
X67068Y5155D01*
X67007Y5083D01*
X66966Y4982D01*
X66926Y4880D01*
X66905Y4758D01*
X65602Y4880D01*
Y4890D01*
X65612Y4921D01*
X65623Y4961D01*
X65633Y5012D01*
X65653Y5083D01*
X65673Y5155D01*
X65745Y5328D01*
X65846Y5521D01*
X65979Y5704D01*
X66060Y5796D01*
X66152Y5888D01*
X66254Y5959D01*
X66366Y6030D01*
X66376D01*
X66396Y6040D01*
X66427Y6061D01*
X66478Y6081D01*
X66539Y6112D01*
X66620Y6142D01*
X66702Y6173D01*
X66793Y6203D01*
X67007Y6264D01*
X67261Y6325D01*
X67536Y6366D01*
X67831Y6376D01*
X67913D01*
X68005Y6366D01*
D02*
G37*
G36*
X72413Y1500D02*
X70998D01*
Y7964D01*
X72413D01*
Y1500D01*
D02*
G37*
G36*
X75823Y6366D02*
X75945D01*
X76087Y6346D01*
X76240Y6325D01*
X76403Y6295D01*
X76566Y6254D01*
X76586D01*
X76637Y6234D01*
X76719Y6203D01*
X76810Y6173D01*
X76922Y6122D01*
X77034Y6061D01*
X77136Y6000D01*
X77238Y5918D01*
X77248Y5908D01*
X77279Y5877D01*
X77319Y5837D01*
X77370Y5776D01*
X77421Y5704D01*
X77482Y5623D01*
X77523Y5531D01*
X77564Y5440D01*
Y5429D01*
X77574Y5389D01*
X77594Y5328D01*
X77614Y5236D01*
X77625Y5114D01*
X77645Y4961D01*
X77655Y4778D01*
Y4554D01*
Y2386D01*
Y2376D01*
Y2355D01*
Y2325D01*
Y2284D01*
Y2172D01*
X77665Y2039D01*
X77676Y1897D01*
X77686Y1754D01*
X77706Y1612D01*
X77737Y1500D01*
X76373D01*
Y1510D01*
X76362Y1551D01*
X76352Y1612D01*
X76342Y1693D01*
X76322Y1795D01*
X76311Y1928D01*
X76301Y2070D01*
Y2223D01*
X76281Y2213D01*
X76240Y2152D01*
X76169Y2060D01*
X76077Y1958D01*
X75965Y1846D01*
X75843Y1734D01*
X75711Y1632D01*
X75578Y1561D01*
X75558Y1551D01*
X75517Y1541D01*
X75446Y1510D01*
X75344Y1480D01*
X75222Y1449D01*
X75090Y1429D01*
X74937Y1408D01*
X74774Y1398D01*
X74713D01*
X74662Y1408D01*
X74601D01*
X74540Y1419D01*
X74388Y1439D01*
X74214Y1490D01*
X74031Y1551D01*
X73848Y1632D01*
X73685Y1754D01*
X73665Y1775D01*
X73624Y1826D01*
X73553Y1907D01*
X73481Y2019D01*
X73410Y2152D01*
X73339Y2325D01*
X73298Y2518D01*
X73278Y2732D01*
Y2742D01*
Y2752D01*
Y2813D01*
X73288Y2895D01*
X73308Y3007D01*
X73339Y3139D01*
X73380Y3281D01*
X73431Y3424D01*
X73512Y3567D01*
X73522Y3587D01*
X73563Y3628D01*
X73614Y3699D01*
X73705Y3780D01*
X73807Y3872D01*
X73940Y3974D01*
X74102Y4075D01*
X74286Y4157D01*
X74296D01*
X74316Y4167D01*
X74347Y4177D01*
X74388Y4188D01*
X74459Y4208D01*
X74530Y4228D01*
X74622Y4249D01*
X74734Y4279D01*
X74856Y4299D01*
X74998Y4330D01*
X75161Y4361D01*
X75334Y4381D01*
X75538Y4411D01*
X75752Y4432D01*
X75986Y4462D01*
X76240Y4483D01*
Y4747D01*
Y4758D01*
Y4778D01*
Y4809D01*
X76230Y4859D01*
X76200Y4971D01*
X76149Y5104D01*
X76118Y5165D01*
X76067Y5226D01*
X76016Y5287D01*
X75945Y5338D01*
X75864Y5389D01*
X75772Y5419D01*
X75660Y5440D01*
X75538Y5450D01*
X75467D01*
X75426Y5440D01*
X75304Y5409D01*
X75161Y5368D01*
X75019Y5277D01*
X74947Y5226D01*
X74886Y5155D01*
X74825Y5083D01*
X74784Y4982D01*
X74744Y4880D01*
X74723Y4758D01*
X73420Y4880D01*
Y4890D01*
X73431Y4921D01*
X73441Y4961D01*
X73451Y5012D01*
X73471Y5083D01*
X73492Y5155D01*
X73563Y5328D01*
X73665Y5521D01*
X73797Y5704D01*
X73879Y5796D01*
X73970Y5888D01*
X74072Y5959D01*
X74184Y6030D01*
X74194D01*
X74214Y6040D01*
X74245Y6061D01*
X74296Y6081D01*
X74357Y6112D01*
X74438Y6142D01*
X74520Y6173D01*
X74611Y6203D01*
X74825Y6264D01*
X75080Y6325D01*
X75355Y6366D01*
X75650Y6376D01*
X75731D01*
X75823Y6366D01*
D02*
G37*
%LPC*%
G36*
X257461Y81625D02*
X255702D01*
Y78497D01*
X257646D01*
X257831Y78515D01*
X258035Y78553D01*
X258275Y78608D01*
X258516Y78701D01*
X258720Y78812D01*
X258905Y78960D01*
X258923Y78978D01*
X258979Y79052D01*
X259034Y79145D01*
X259127Y79274D01*
X259201Y79441D01*
X259256Y79626D01*
X259312Y79830D01*
X259330Y80052D01*
Y80089D01*
Y80163D01*
X259312Y80311D01*
X259275Y80459D01*
X259219Y80644D01*
X259127Y80848D01*
X259016Y81033D01*
X258868Y81200D01*
X258849Y81218D01*
X258775Y81274D01*
X258664Y81329D01*
X258516Y81422D01*
X258312Y81496D01*
X258072Y81551D01*
X257794Y81607D01*
X257461Y81625D01*
D02*
G37*
G36*
X62528Y5399D02*
X62497D01*
X62457Y5389D01*
X62406Y5379D01*
X62334Y5348D01*
X62273Y5317D01*
X62192Y5267D01*
X62121Y5195D01*
X62049Y5114D01*
X61968Y5012D01*
X61907Y4880D01*
X61846Y4727D01*
X61785Y4544D01*
X61744Y4330D01*
X61724Y4086D01*
X61713Y3801D01*
Y3780D01*
Y3740D01*
X61724Y3668D01*
Y3577D01*
X61734Y3475D01*
X61754Y3353D01*
X61805Y3098D01*
X61846Y2966D01*
X61897Y2844D01*
X61958Y2722D01*
X62039Y2620D01*
X62121Y2528D01*
X62222Y2457D01*
X62344Y2416D01*
X62477Y2396D01*
X62528D01*
X62579Y2406D01*
X62650Y2426D01*
X62731Y2457D01*
X62823Y2508D01*
X62915Y2569D01*
X62996Y2650D01*
X63006Y2661D01*
X63027Y2701D01*
X63067Y2752D01*
X63108Y2834D01*
X63149Y2935D01*
X63190Y3068D01*
X63210Y3210D01*
X63220Y3373D01*
Y4269D01*
Y4279D01*
Y4320D01*
Y4371D01*
X63210Y4442D01*
X63200Y4534D01*
X63179Y4625D01*
X63139Y4839D01*
X63047Y5043D01*
X62996Y5134D01*
X62925Y5226D01*
X62853Y5297D01*
X62752Y5348D01*
X62650Y5389D01*
X62528Y5399D01*
D02*
G37*
G36*
X296425Y79089D02*
X296369D01*
X296295Y79071D01*
X296202Y79052D01*
X296073Y78997D01*
X295962Y78941D01*
X295814Y78849D01*
X295684Y78719D01*
X295554Y78571D01*
X295406Y78386D01*
X295295Y78145D01*
X295184Y77868D01*
X295073Y77535D01*
X294999Y77146D01*
X294962Y76701D01*
X294944Y76183D01*
Y76146D01*
Y76072D01*
X294962Y75943D01*
Y75776D01*
X294981Y75591D01*
X295018Y75369D01*
X295110Y74906D01*
X295184Y74665D01*
X295277Y74443D01*
X295388Y74221D01*
X295536Y74036D01*
X295684Y73870D01*
X295869Y73740D01*
X296091Y73666D01*
X296332Y73629D01*
X296425D01*
X296517Y73647D01*
X296647Y73684D01*
X296795Y73740D01*
X296961Y73832D01*
X297128Y73944D01*
X297276Y74092D01*
X297294Y74110D01*
X297331Y74184D01*
X297406Y74277D01*
X297480Y74425D01*
X297554Y74610D01*
X297628Y74850D01*
X297665Y75110D01*
X297683Y75406D01*
Y77035D01*
Y77053D01*
Y77127D01*
Y77220D01*
X297665Y77349D01*
X297646Y77516D01*
X297609Y77683D01*
X297535Y78071D01*
X297369Y78442D01*
X297276Y78608D01*
X297146Y78775D01*
X297017Y78904D01*
X296832Y78997D01*
X296647Y79071D01*
X296425Y79089D01*
D02*
G37*
G36*
X25279Y6285D02*
X24587Y4025D01*
X25961D01*
X25279Y6285D01*
D02*
G37*
G36*
X83977Y6804D02*
X82908D01*
Y5155D01*
X83987D01*
X84089Y5165D01*
X84303Y5185D01*
X84405Y5195D01*
X84486Y5216D01*
X84496D01*
X84527Y5226D01*
X84567Y5246D01*
X84618Y5277D01*
X84669Y5307D01*
X84741Y5358D01*
X84802Y5419D01*
X84863Y5491D01*
X84873Y5501D01*
X84893Y5531D01*
X84914Y5572D01*
X84944Y5643D01*
X84975Y5714D01*
X85005Y5796D01*
X85015Y5898D01*
X85026Y6000D01*
Y6010D01*
Y6050D01*
X85015Y6101D01*
X85005Y6162D01*
X84985Y6244D01*
X84954Y6325D01*
X84914Y6407D01*
X84863Y6488D01*
X84852Y6498D01*
X84832Y6519D01*
X84802Y6560D01*
X84761Y6600D01*
X84649Y6692D01*
X84578Y6722D01*
X84506Y6753D01*
X84496D01*
X84466Y6763D01*
X84425Y6773D01*
X84354Y6783D01*
X84252D01*
X84130Y6794D01*
X83977Y6804D01*
D02*
G37*
G36*
X320154Y79182D02*
X320025D01*
X319895Y79145D01*
X319747Y79108D01*
X319562Y79034D01*
X319377Y78941D01*
X319192Y78793D01*
X319044Y78608D01*
X319025Y78590D01*
X318988Y78497D01*
X318933Y78349D01*
X318896Y78238D01*
X318877Y78127D01*
X318840Y77979D01*
X318803Y77812D01*
X318766Y77627D01*
X318747Y77423D01*
X318729Y77201D01*
X318710Y76942D01*
X318692Y76665D01*
Y76368D01*
Y76350D01*
Y76294D01*
Y76220D01*
Y76128D01*
X318710Y75998D01*
Y75850D01*
X318729Y75517D01*
X318766Y75165D01*
X318840Y74795D01*
X318914Y74443D01*
X318970Y74295D01*
X319025Y74166D01*
X319044Y74129D01*
X319099Y74055D01*
X319173Y73962D01*
X319303Y73832D01*
X319451Y73703D01*
X319636Y73610D01*
X319877Y73536D01*
X320136Y73499D01*
X320173D01*
X320247Y73518D01*
X320358Y73536D01*
X320506Y73573D01*
X320673Y73629D01*
X320858Y73740D01*
X321024Y73870D01*
X321191Y74055D01*
X321209Y74092D01*
X321246Y74166D01*
X321320Y74314D01*
X321357Y74425D01*
X321394Y74536D01*
X321431Y74684D01*
X321468Y74832D01*
X321505Y75017D01*
X321543Y75221D01*
X321561Y75443D01*
X321580Y75683D01*
X321598Y75943D01*
Y76239D01*
Y76257D01*
Y76313D01*
Y76405D01*
Y76516D01*
X321580Y76665D01*
Y76813D01*
X321561Y77183D01*
X321505Y77571D01*
X321450Y77942D01*
X321357Y78293D01*
X321302Y78442D01*
X321228Y78571D01*
X321209Y78590D01*
X321154Y78664D01*
X321080Y78756D01*
X320969Y78886D01*
X320821Y78997D01*
X320636Y79089D01*
X320413Y79163D01*
X320154Y79182D01*
D02*
G37*
G36*
X287003D02*
X286873D01*
X286744Y79145D01*
X286596Y79108D01*
X286411Y79034D01*
X286226Y78941D01*
X286040Y78793D01*
X285892Y78608D01*
X285874Y78590D01*
X285837Y78497D01*
X285781Y78349D01*
X285744Y78238D01*
X285726Y78127D01*
X285689Y77979D01*
X285652Y77812D01*
X285615Y77627D01*
X285596Y77423D01*
X285578Y77201D01*
X285559Y76942D01*
X285541Y76665D01*
Y76368D01*
Y76350D01*
Y76294D01*
Y76220D01*
Y76128D01*
X285559Y75998D01*
Y75850D01*
X285578Y75517D01*
X285615Y75165D01*
X285689Y74795D01*
X285763Y74443D01*
X285818Y74295D01*
X285874Y74166D01*
X285892Y74129D01*
X285948Y74055D01*
X286022Y73962D01*
X286151Y73832D01*
X286299Y73703D01*
X286485Y73610D01*
X286725Y73536D01*
X286984Y73499D01*
X287021D01*
X287095Y73518D01*
X287207Y73536D01*
X287355Y73573D01*
X287521Y73629D01*
X287706Y73740D01*
X287873Y73870D01*
X288039Y74055D01*
X288058Y74092D01*
X288095Y74166D01*
X288169Y74314D01*
X288206Y74425D01*
X288243Y74536D01*
X288280Y74684D01*
X288317Y74832D01*
X288354Y75017D01*
X288391Y75221D01*
X288410Y75443D01*
X288428Y75683D01*
X288447Y75943D01*
Y76239D01*
Y76257D01*
Y76313D01*
Y76405D01*
Y76516D01*
X288428Y76665D01*
Y76813D01*
X288410Y77183D01*
X288354Y77571D01*
X288299Y77942D01*
X288206Y78293D01*
X288151Y78442D01*
X288076Y78571D01*
X288058Y78590D01*
X288002Y78664D01*
X287928Y78756D01*
X287817Y78886D01*
X287669Y78997D01*
X287484Y79089D01*
X287262Y79163D01*
X287003Y79182D01*
D02*
G37*
G36*
X30990Y5399D02*
X30960D01*
X30919Y5389D01*
X30868Y5379D01*
X30797Y5348D01*
X30736Y5317D01*
X30654Y5267D01*
X30583Y5195D01*
X30512Y5114D01*
X30430Y5012D01*
X30369Y4880D01*
X30308Y4727D01*
X30247Y4544D01*
X30206Y4330D01*
X30186Y4086D01*
X30176Y3801D01*
Y3780D01*
Y3740D01*
X30186Y3668D01*
Y3577D01*
X30196Y3475D01*
X30216Y3353D01*
X30267Y3098D01*
X30308Y2966D01*
X30359Y2844D01*
X30420Y2722D01*
X30501Y2620D01*
X30583Y2528D01*
X30685Y2457D01*
X30807Y2416D01*
X30939Y2396D01*
X30990D01*
X31041Y2406D01*
X31112Y2426D01*
X31194Y2457D01*
X31285Y2508D01*
X31377Y2569D01*
X31458Y2650D01*
X31469Y2661D01*
X31489Y2701D01*
X31530Y2752D01*
X31570Y2834D01*
X31611Y2935D01*
X31652Y3068D01*
X31672Y3210D01*
X31682Y3373D01*
Y4269D01*
Y4279D01*
Y4320D01*
Y4371D01*
X31672Y4442D01*
X31662Y4534D01*
X31642Y4625D01*
X31601Y4839D01*
X31509Y5043D01*
X31458Y5134D01*
X31387Y5226D01*
X31316Y5297D01*
X31214Y5348D01*
X31112Y5389D01*
X30990Y5399D01*
D02*
G37*
G36*
X26811Y16255D02*
X26122D01*
Y11822D01*
X26889D01*
X26944Y11833D01*
X27022Y11844D01*
X27111Y11855D01*
X27300Y11911D01*
X27522Y11989D01*
X27633Y12044D01*
X27744Y12100D01*
X27844Y12178D01*
X27955Y12267D01*
X28044Y12366D01*
X28133Y12489D01*
Y12500D01*
X28155Y12522D01*
X28177Y12555D01*
X28200Y12611D01*
X28233Y12678D01*
X28277Y12755D01*
X28311Y12844D01*
X28355Y12944D01*
X28433Y13178D01*
X28511Y13444D01*
X28555Y13744D01*
X28577Y14077D01*
Y14088D01*
Y14111D01*
Y14144D01*
Y14188D01*
X28566Y14311D01*
X28544Y14466D01*
X28511Y14655D01*
X28466Y14855D01*
X28411Y15055D01*
X28322Y15266D01*
Y15277D01*
X28311Y15288D01*
X28277Y15355D01*
X28222Y15455D01*
X28155Y15566D01*
X28066Y15688D01*
X27955Y15822D01*
X27833Y15933D01*
X27700Y16033D01*
X27689Y16044D01*
X27633Y16066D01*
X27555Y16099D01*
X27455Y16144D01*
X27322Y16188D01*
X27166Y16222D01*
X27000Y16244D01*
X26811Y16255D01*
D02*
G37*
G36*
X64240Y14755D02*
X64207D01*
X64163Y14744D01*
X64107Y14733D01*
X64029Y14700D01*
X63963Y14666D01*
X63874Y14611D01*
X63796Y14533D01*
X63718Y14444D01*
X63629Y14333D01*
X63563Y14188D01*
X63496Y14022D01*
X63429Y13822D01*
X63385Y13589D01*
X63363Y13322D01*
X63352Y13011D01*
Y12989D01*
Y12944D01*
X63363Y12866D01*
Y12766D01*
X63374Y12655D01*
X63396Y12522D01*
X63452Y12244D01*
X63496Y12100D01*
X63552Y11966D01*
X63618Y11833D01*
X63707Y11722D01*
X63796Y11622D01*
X63907Y11544D01*
X64040Y11500D01*
X64185Y11478D01*
X64240D01*
X64296Y11489D01*
X64374Y11511D01*
X64463Y11544D01*
X64563Y11600D01*
X64663Y11666D01*
X64751Y11755D01*
X64763Y11767D01*
X64785Y11811D01*
X64829Y11867D01*
X64874Y11955D01*
X64918Y12066D01*
X64963Y12211D01*
X64985Y12366D01*
X64996Y12544D01*
Y13522D01*
Y13533D01*
Y13577D01*
Y13633D01*
X64985Y13711D01*
X64974Y13811D01*
X64951Y13911D01*
X64907Y14144D01*
X64807Y14366D01*
X64751Y14466D01*
X64674Y14566D01*
X64596Y14644D01*
X64485Y14700D01*
X64374Y14744D01*
X64240Y14755D01*
D02*
G37*
G36*
X72751Y14788D02*
X72684D01*
X72617Y14777D01*
X72540Y14744D01*
X72440Y14711D01*
X72340Y14655D01*
X72240Y14577D01*
X72151Y14466D01*
X72140Y14455D01*
X72118Y14411D01*
X72084Y14333D01*
X72051Y14233D01*
X72006Y14100D01*
X71973Y13944D01*
X71951Y13766D01*
X71940Y13555D01*
Y12555D01*
Y12544D01*
Y12533D01*
Y12466D01*
X71951Y12366D01*
X71973Y12244D01*
X71995Y12111D01*
X72029Y11978D01*
X72084Y11844D01*
X72162Y11733D01*
X72173Y11722D01*
X72206Y11689D01*
X72251Y11644D01*
X72317Y11600D01*
X72395Y11544D01*
X72495Y11500D01*
X72595Y11467D01*
X72706Y11456D01*
X72729D01*
X72773Y11467D01*
X72840Y11478D01*
X72929Y11500D01*
X73028Y11533D01*
X73128Y11600D01*
X73229Y11678D01*
X73328Y11789D01*
X73340Y11800D01*
X73373Y11855D01*
X73406Y11944D01*
X73428Y12011D01*
X73462Y12078D01*
X73484Y12155D01*
X73506Y12255D01*
X73528Y12366D01*
X73540Y12478D01*
X73562Y12611D01*
X73573Y12766D01*
X73584Y12922D01*
Y13100D01*
Y13111D01*
Y13144D01*
Y13200D01*
Y13277D01*
X73573Y13366D01*
Y13466D01*
X73551Y13689D01*
X73517Y13933D01*
X73473Y14155D01*
X73451Y14266D01*
X73417Y14355D01*
X73373Y14433D01*
X73328Y14500D01*
X73317Y14511D01*
X73284Y14544D01*
X73229Y14589D01*
X73162Y14644D01*
X73073Y14700D01*
X72973Y14744D01*
X72873Y14777D01*
X72751Y14788D01*
D02*
G37*
G36*
X58674Y14811D02*
X58641D01*
X58597Y14800D01*
X58541D01*
X58397Y14755D01*
X58319Y14722D01*
X58230Y14677D01*
X58141Y14622D01*
X58063Y14544D01*
X57974Y14466D01*
X57897Y14355D01*
X57830Y14233D01*
X57775Y14088D01*
X57730Y13922D01*
X57708Y13733D01*
X59563D01*
Y13744D01*
Y13777D01*
X59552Y13833D01*
X59541Y13900D01*
X59519Y13988D01*
X59496Y14077D01*
X59419Y14277D01*
X59374Y14377D01*
X59308Y14466D01*
X59241Y14566D01*
X59152Y14644D01*
X59063Y14711D01*
X58941Y14766D01*
X58819Y14800D01*
X58674Y14811D01*
D02*
G37*
G36*
X33566D02*
X33532D01*
X33488Y14800D01*
X33432D01*
X33288Y14755D01*
X33210Y14722D01*
X33121Y14677D01*
X33033Y14622D01*
X32955Y14544D01*
X32866Y14466D01*
X32788Y14355D01*
X32721Y14233D01*
X32666Y14088D01*
X32621Y13922D01*
X32599Y13733D01*
X34455D01*
Y13744D01*
Y13777D01*
X34444Y13833D01*
X34432Y13900D01*
X34410Y13988D01*
X34388Y14077D01*
X34310Y14277D01*
X34266Y14377D01*
X34199Y14466D01*
X34132Y14566D01*
X34043Y14644D01*
X33955Y14711D01*
X33832Y14766D01*
X33710Y14800D01*
X33566Y14811D01*
D02*
G37*
G36*
X46953Y14988D02*
X46887D01*
X46820Y14977D01*
X46731Y14966D01*
X46631Y14933D01*
X46520Y14900D01*
X46420Y14844D01*
X46331Y14766D01*
X46320Y14755D01*
X46298Y14733D01*
X46264Y14677D01*
X46220Y14622D01*
X46176Y14533D01*
X46142Y14444D01*
X46120Y14333D01*
X46109Y14211D01*
Y14200D01*
Y14177D01*
X46120Y14133D01*
Y14088D01*
X46153Y13966D01*
X46220Y13822D01*
X46264Y13744D01*
X46320Y13666D01*
X46387Y13600D01*
X46464Y13544D01*
X46564Y13500D01*
X46676Y13455D01*
X46809Y13433D01*
X46953Y13422D01*
X47020D01*
X47098Y13433D01*
X47187Y13455D01*
X47287Y13477D01*
X47398Y13511D01*
X47509Y13566D01*
X47598Y13644D01*
X47609Y13655D01*
X47631Y13689D01*
X47675Y13733D01*
X47720Y13800D01*
X47764Y13889D01*
X47809Y13977D01*
X47831Y14088D01*
X47842Y14211D01*
Y14222D01*
Y14266D01*
X47831Y14322D01*
X47820Y14389D01*
X47787Y14477D01*
X47753Y14566D01*
X47698Y14655D01*
X47620Y14744D01*
X47609Y14755D01*
X47576Y14777D01*
X47531Y14822D01*
X47453Y14866D01*
X47364Y14911D01*
X47242Y14955D01*
X47109Y14977D01*
X46953Y14988D01*
D02*
G37*
G36*
X76240Y3791D02*
X76220D01*
X76179Y3780D01*
X76108Y3770D01*
X76006Y3760D01*
X75894Y3729D01*
X75772Y3699D01*
X75507Y3617D01*
X75232Y3506D01*
X75110Y3424D01*
X74998Y3343D01*
X74897Y3251D01*
X74825Y3139D01*
X74784Y3017D01*
X74764Y2884D01*
Y2874D01*
Y2844D01*
X74774Y2793D01*
X74784Y2732D01*
X74805Y2671D01*
X74825Y2589D01*
X74866Y2518D01*
X74917Y2447D01*
X74927Y2437D01*
X74947Y2416D01*
X74978Y2396D01*
X75029Y2365D01*
X75090Y2325D01*
X75171Y2304D01*
X75253Y2284D01*
X75355Y2274D01*
X75375D01*
X75416Y2284D01*
X75487Y2294D01*
X75578Y2314D01*
X75670Y2345D01*
X75782Y2406D01*
X75884Y2477D01*
X75986Y2579D01*
X75996Y2589D01*
X76026Y2640D01*
X76067Y2701D01*
X76118Y2793D01*
X76159Y2905D01*
X76200Y3037D01*
X76230Y3190D01*
X76240Y3353D01*
Y3791D01*
D02*
G37*
G36*
X45965Y10533D02*
X45898D01*
X45842Y10522D01*
X45776Y10489D01*
X45676Y10422D01*
X45653Y10400D01*
X45609Y10345D01*
X45565Y10244D01*
X45553Y10189D01*
X45542Y10122D01*
Y10111D01*
X45553Y10067D01*
X45565Y10000D01*
X45598Y9933D01*
X45653Y9856D01*
X45731Y9789D01*
X45842Y9722D01*
X45987Y9678D01*
X46009D01*
X46064Y9667D01*
X46165Y9656D01*
X46287Y9633D01*
X46442Y9622D01*
X46620Y9600D01*
X46820Y9589D01*
X47231D01*
X47309Y9600D01*
X47475D01*
X47664Y9622D01*
X47842Y9645D01*
X48009Y9667D01*
X48153Y9711D01*
X48164Y9722D01*
X48209Y9733D01*
X48253Y9767D01*
X48320Y9811D01*
X48375Y9856D01*
X48431Y9922D01*
X48464Y10011D01*
X48475Y10100D01*
Y10111D01*
Y10133D01*
X48464Y10167D01*
X48442Y10211D01*
X48409Y10267D01*
X48364Y10311D01*
X48298Y10367D01*
X48209Y10411D01*
X48198D01*
X48153Y10422D01*
X48109Y10433D01*
X48064Y10445D01*
X48009Y10456D01*
X47931Y10467D01*
X47842D01*
X47742Y10478D01*
X47631Y10489D01*
X47498Y10500D01*
X47342D01*
X47175Y10511D01*
X46787D01*
X46476Y10500D01*
X46187D01*
X46131Y10511D01*
X46076D01*
X46031Y10522D01*
X45965Y10533D01*
D02*
G37*
G36*
X89698Y5450D02*
X89627D01*
X89556Y5429D01*
X89474Y5409D01*
X89372Y5368D01*
X89271Y5317D01*
X89169Y5236D01*
X89087Y5134D01*
X89077Y5124D01*
X89057Y5073D01*
X89026Y4992D01*
X89006Y4931D01*
X88996Y4870D01*
X88975Y4788D01*
X88955Y4696D01*
X88935Y4595D01*
X88924Y4483D01*
X88914Y4361D01*
X88904Y4218D01*
X88894Y4065D01*
Y3903D01*
Y3892D01*
Y3862D01*
Y3821D01*
Y3770D01*
X88904Y3699D01*
Y3617D01*
X88914Y3434D01*
X88935Y3241D01*
X88975Y3037D01*
X89016Y2844D01*
X89047Y2762D01*
X89077Y2691D01*
X89087Y2671D01*
X89118Y2630D01*
X89159Y2579D01*
X89230Y2508D01*
X89311Y2437D01*
X89413Y2386D01*
X89546Y2345D01*
X89688Y2325D01*
X89708D01*
X89749Y2335D01*
X89810Y2345D01*
X89892Y2365D01*
X89983Y2396D01*
X90085Y2457D01*
X90177Y2528D01*
X90268Y2630D01*
X90278Y2650D01*
X90299Y2691D01*
X90339Y2772D01*
X90360Y2834D01*
X90380Y2895D01*
X90401Y2976D01*
X90421Y3057D01*
X90441Y3159D01*
X90462Y3271D01*
X90472Y3393D01*
X90482Y3526D01*
X90492Y3668D01*
Y3831D01*
Y3841D01*
Y3872D01*
Y3923D01*
Y3984D01*
X90482Y4065D01*
Y4147D01*
X90472Y4350D01*
X90441Y4564D01*
X90411Y4768D01*
X90360Y4961D01*
X90329Y5043D01*
X90289Y5114D01*
X90278Y5124D01*
X90248Y5165D01*
X90207Y5216D01*
X90146Y5287D01*
X90065Y5348D01*
X89963Y5399D01*
X89841Y5440D01*
X89698Y5450D01*
D02*
G37*
G36*
X36884Y3791D02*
X36864D01*
X36823Y3780D01*
X36752Y3770D01*
X36650Y3760D01*
X36538Y3729D01*
X36416Y3699D01*
X36151Y3617D01*
X35877Y3506D01*
X35754Y3424D01*
X35642Y3343D01*
X35541Y3251D01*
X35469Y3139D01*
X35429Y3017D01*
X35408Y2884D01*
Y2874D01*
Y2844D01*
X35418Y2793D01*
X35429Y2732D01*
X35449Y2671D01*
X35469Y2589D01*
X35510Y2518D01*
X35561Y2447D01*
X35571Y2437D01*
X35592Y2416D01*
X35622Y2396D01*
X35673Y2365D01*
X35734Y2325D01*
X35815Y2304D01*
X35897Y2284D01*
X35999Y2274D01*
X36019D01*
X36060Y2284D01*
X36131Y2294D01*
X36223Y2314D01*
X36314Y2345D01*
X36426Y2406D01*
X36528Y2477D01*
X36630Y2579D01*
X36640Y2589D01*
X36671Y2640D01*
X36711Y2701D01*
X36762Y2793D01*
X36803Y2905D01*
X36844Y3037D01*
X36874Y3190D01*
X36884Y3353D01*
Y3791D01*
D02*
G37*
G36*
X57937D02*
X57916D01*
X57876Y3780D01*
X57804Y3770D01*
X57702Y3760D01*
X57591Y3729D01*
X57468Y3699D01*
X57204Y3617D01*
X56929Y3506D01*
X56807Y3424D01*
X56695Y3343D01*
X56593Y3251D01*
X56522Y3139D01*
X56481Y3017D01*
X56460Y2884D01*
Y2874D01*
Y2844D01*
X56471Y2793D01*
X56481Y2732D01*
X56501Y2671D01*
X56522Y2589D01*
X56562Y2518D01*
X56613Y2447D01*
X56623Y2437D01*
X56644Y2416D01*
X56674Y2396D01*
X56725Y2365D01*
X56786Y2325D01*
X56868Y2304D01*
X56949Y2284D01*
X57051Y2274D01*
X57071D01*
X57112Y2284D01*
X57183Y2294D01*
X57275Y2314D01*
X57367Y2345D01*
X57478Y2406D01*
X57580Y2477D01*
X57682Y2579D01*
X57692Y2589D01*
X57723Y2640D01*
X57763Y2701D01*
X57814Y2793D01*
X57855Y2905D01*
X57896Y3037D01*
X57926Y3190D01*
X57937Y3353D01*
Y3791D01*
D02*
G37*
G36*
X68422D02*
X68402D01*
X68361Y3780D01*
X68290Y3770D01*
X68188Y3760D01*
X68076Y3729D01*
X67954Y3699D01*
X67689Y3617D01*
X67414Y3506D01*
X67292Y3424D01*
X67180Y3343D01*
X67078Y3251D01*
X67007Y3139D01*
X66966Y3017D01*
X66946Y2884D01*
Y2874D01*
Y2844D01*
X66956Y2793D01*
X66966Y2732D01*
X66987Y2671D01*
X67007Y2589D01*
X67048Y2518D01*
X67099Y2447D01*
X67109Y2437D01*
X67129Y2416D01*
X67160Y2396D01*
X67211Y2365D01*
X67272Y2325D01*
X67353Y2304D01*
X67435Y2284D01*
X67536Y2274D01*
X67557D01*
X67597Y2284D01*
X67669Y2294D01*
X67760Y2314D01*
X67852Y2345D01*
X67964Y2406D01*
X68066Y2477D01*
X68168Y2579D01*
X68178Y2589D01*
X68208Y2640D01*
X68249Y2701D01*
X68300Y2793D01*
X68340Y2905D01*
X68381Y3037D01*
X68412Y3190D01*
X68422Y3353D01*
Y3791D01*
D02*
G37*
%LPD*%
D17*
X200689Y60370D02*
Y67063D01*
Y60370D02*
X221555D01*
X224311Y63126D01*
Y67063D01*
X200689Y81630D02*
X221555D01*
X224311Y78874D01*
Y74937D02*
Y78874D01*
X200689Y74937D02*
Y81630D01*
X141689Y60370D02*
Y67063D01*
Y60370D02*
X162555D01*
X165311Y63126D01*
Y67063D01*
X141689Y81630D02*
X162555D01*
X165311Y78874D01*
Y74937D02*
Y78874D01*
X141689Y74937D02*
Y81630D01*
X332437Y42189D02*
X339130D01*
Y63055D01*
X336374Y65811D02*
X339130Y63055D01*
X332437Y65811D02*
X336374D01*
X317870Y42189D02*
Y63055D01*
X320626Y65811D01*
X324563D01*
X317870Y42189D02*
X324563D01*
X72437Y56689D02*
X79130D01*
Y77555D01*
X76374Y80311D02*
X79130Y77555D01*
X72437Y80311D02*
X76374D01*
X57870Y56689D02*
Y77555D01*
X60626Y80311D01*
X64563D01*
X57870Y56689D02*
X64563D01*
X72437Y24189D02*
X79130D01*
Y45055D01*
X76374Y47811D02*
X79130Y45055D01*
X72437Y47811D02*
X76374D01*
X57870Y24189D02*
Y45055D01*
X60626Y47811D01*
X64563D01*
X57870Y24189D02*
X64563D01*
D25*
X312405Y40795D02*
G03*
X312405Y25205I-5906J-7795D01*
G01*
X227906Y40795D02*
G03*
X227906Y25205I-5906J-7795D01*
G01*
X168405Y40795D02*
G03*
X168405Y25205I-5906J-7795D01*
G01*
X108405Y40795D02*
G03*
X108405Y25205I-5906J-7795D01*
G01*
X263425Y31953D02*
X266575D01*
X263425Y26047D02*
X266575D01*
X299453Y55425D02*
Y58575D01*
X293547Y55425D02*
Y58575D01*
X341500Y38000D02*
Y58000D01*
Y38000D02*
X351500D01*
Y58000D01*
X341500D02*
X351500D01*
X341500Y5000D02*
X351500D01*
X341500D02*
Y35000D01*
X351500D01*
Y5000D02*
Y35000D01*
X323000Y5500D02*
X333000D01*
X323000D02*
Y35500D01*
X333000D01*
Y5500D02*
Y35500D01*
X312405Y25205D02*
Y40795D01*
X289500Y44000D02*
Y54000D01*
X259500Y44000D02*
X289500D01*
X259500D02*
Y54000D01*
X289500D01*
Y60000D02*
Y70000D01*
X259500Y60000D02*
X289500D01*
X259500D02*
Y70000D01*
X289500D01*
X237000Y4000D02*
X247000D01*
X237000D02*
Y34000D01*
X247000D01*
Y4000D02*
Y34000D01*
X281925Y5547D02*
X285075D01*
X281925Y11453D02*
X285075D01*
X275000Y15500D02*
X295000D01*
Y25500D01*
X275000D02*
X295000D01*
X275000Y15500D02*
Y25500D01*
X263425Y23453D02*
X266575D01*
X263425Y17547D02*
X266575D01*
X14500Y61000D02*
Y81000D01*
Y61000D02*
X24500D01*
Y81000D01*
X14500D02*
X24500D01*
X37000Y61000D02*
X47000D01*
X37000D02*
Y81000D01*
X47000D01*
Y61000D02*
Y81000D01*
X227906Y25205D02*
Y40795D01*
X148925Y57453D02*
X152075D01*
X148925Y51547D02*
X152075D01*
X168405Y25205D02*
Y40795D01*
X37000Y24000D02*
X47000D01*
X37000D02*
Y54000D01*
X47000D01*
Y24000D02*
Y54000D01*
X14500Y24000D02*
X24500D01*
X14500D02*
Y54000D01*
X24500D01*
Y24000D02*
Y54000D01*
X134547Y33925D02*
Y37075D01*
X140453Y33925D02*
Y37075D01*
X120000Y6000D02*
Y26000D01*
X110000D02*
X120000D01*
X110000Y6000D02*
Y26000D01*
Y6000D02*
X120000D01*
X122500Y20000D02*
X132500D01*
X122500D02*
Y50000D01*
X132500D01*
Y20000D02*
Y50000D01*
X110425Y56453D02*
X113575D01*
X110425Y50547D02*
X113575D01*
X108405Y25205D02*
Y40795D01*
X89425Y56453D02*
X92575D01*
X89425Y50547D02*
X92575D01*
X183425Y35953D02*
X186575D01*
X183425Y30047D02*
X186575D01*
X181260Y52323D02*
Y67677D01*
X188740Y52323D02*
Y67677D01*
X181260D02*
X188740D01*
X177740Y52323D02*
Y67677D01*
X170260Y52323D02*
Y67677D01*
Y52323D02*
X177740D01*
X180000Y6000D02*
Y26000D01*
X170000D02*
X180000D01*
X170000Y6000D02*
Y26000D01*
Y6000D02*
X180000D01*
X207425Y57453D02*
X210575D01*
X207425Y51547D02*
X210575D01*
X240260Y52323D02*
Y67677D01*
X247740Y52323D02*
Y67677D01*
X240260D02*
X247740D01*
X236740Y52323D02*
Y67677D01*
X229260Y52323D02*
Y67677D01*
Y52323D02*
X236740D01*
D26*
X312307Y21858D02*
G03*
X312307Y21858I-492J0D01*
G01*
X227807D02*
G03*
X227807Y21858I-492J0D01*
G01*
X168307D02*
G03*
X168307Y21858I-492J0D01*
G01*
X108307D02*
G03*
X108307Y21858I-492J0D01*
G01*
D27*
X302520Y54602D02*
Y57358D01*
X307539Y54602D02*
Y57358D01*
X310520Y54602D02*
Y57358D01*
X315539Y54602D02*
Y57358D01*
X249461Y11142D02*
Y13898D01*
X254480Y11142D02*
Y13898D01*
X313520Y10602D02*
Y13358D01*
X318539Y10602D02*
Y13358D01*
X297520Y10602D02*
Y13358D01*
X302539Y10602D02*
Y13358D01*
X265602Y41480D02*
X268358D01*
X265602Y36461D02*
X268358D01*
X262642Y6020D02*
X265398D01*
X262642Y11039D02*
X265398D01*
X28020Y70102D02*
Y72858D01*
X33039Y70102D02*
Y72858D01*
X50520Y35602D02*
Y38358D01*
X55539Y35602D02*
Y38358D01*
X192520Y53602D02*
Y56358D01*
X197539Y53602D02*
Y56358D01*
X219520Y12102D02*
Y14858D01*
X224539Y12102D02*
Y14858D01*
X203020Y20602D02*
Y23358D01*
X208039Y20602D02*
Y23358D01*
X148142Y44020D02*
X150898D01*
X148142Y49039D02*
X150898D01*
X160020Y13602D02*
Y16358D01*
X165039Y13602D02*
Y16358D01*
X143020Y19102D02*
Y21858D01*
X148039Y19102D02*
Y21858D01*
X143020Y33602D02*
Y36358D01*
X148039Y33602D02*
Y36358D01*
X124520Y11102D02*
Y13858D01*
X129539Y11102D02*
Y13858D01*
X83520Y26102D02*
Y28858D01*
X88539Y26102D02*
Y28858D01*
X100020Y13602D02*
Y16358D01*
X105039Y13602D02*
Y16358D01*
X103980Y64142D02*
Y66898D01*
X98961Y64142D02*
Y66898D01*
X88642Y43020D02*
X91398D01*
X88642Y48039D02*
X91398D01*
X199642Y30520D02*
X202398D01*
X199642Y35539D02*
X202398D01*
X250020Y48602D02*
Y51358D01*
X255039Y48602D02*
Y51358D01*
X206642Y44020D02*
X209398D01*
X206642Y49039D02*
X209398D01*
D28*
X275499Y29499D02*
X274999Y29999D01*
X274000D01*
X273500Y29499D01*
Y27500D01*
X274000Y27000D01*
X274999D01*
X275499Y27500D01*
X276499D02*
X276999Y27000D01*
X277998D01*
X278498Y27500D01*
Y29499D01*
X277998Y29999D01*
X276999D01*
X276499Y29499D01*
Y28999D01*
X276999Y28499D01*
X278498D01*
X294999Y68499D02*
X294499Y68999D01*
X293500D01*
X293000Y68499D01*
Y66500D01*
X293500Y66000D01*
X294499D01*
X294999Y66500D01*
X295999Y68499D02*
X296499Y68999D01*
X297498D01*
X297998Y68499D01*
Y67999D01*
X297498Y67500D01*
X296999D01*
X297498D01*
X297998Y67000D01*
Y66500D01*
X297498Y66000D01*
X296499D01*
X295999Y66500D01*
X302000Y63000D02*
Y65999D01*
X303500D01*
X303999Y65499D01*
Y64499D01*
X303500Y64000D01*
X302000D01*
X303000D02*
X303999Y63000D01*
X304999Y65999D02*
X306998D01*
Y65499D01*
X304999Y63500D01*
Y63000D01*
X310000Y63500D02*
Y66499D01*
X311500D01*
X311999Y65999D01*
Y65000D01*
X311500Y64500D01*
X310000D01*
X311000D02*
X311999Y63500D01*
X314998Y66499D02*
X313999Y65999D01*
X312999Y65000D01*
Y64000D01*
X313499Y63500D01*
X314498D01*
X314998Y64000D01*
Y64500D01*
X314498Y65000D01*
X312999D01*
X195499Y81499D02*
X195000Y81999D01*
X194000D01*
X193500Y81499D01*
Y79500D01*
X194000Y79000D01*
X195000D01*
X195499Y79500D01*
X196499Y81999D02*
X198498D01*
Y81499D01*
X196499Y79500D01*
Y79000D01*
X136999Y81499D02*
X136500Y81999D01*
X135500D01*
X135000Y81499D01*
Y79500D01*
X135500Y79000D01*
X136500D01*
X136999Y79500D01*
X139998Y81999D02*
X138999Y81499D01*
X137999Y80500D01*
Y79500D01*
X138499Y79000D01*
X139499D01*
X139998Y79500D01*
Y80000D01*
X139499Y80500D01*
X137999D01*
X249500Y20000D02*
Y22999D01*
X250999D01*
X251499Y22499D01*
Y21499D01*
X250999Y21000D01*
X249500D01*
X250500D02*
X251499Y20000D01*
X252499D02*
X253499D01*
X252999D01*
Y22999D01*
X252499Y22499D01*
X352501Y39500D02*
Y38500D01*
X353001Y38000D01*
X355000D01*
X355500Y38500D01*
Y39500D01*
X355000Y39999D01*
X353001D01*
X352501Y39500D01*
Y40999D02*
X355000D01*
X355500Y41499D01*
Y42499D01*
X355000Y42998D01*
X352501D01*
Y43998D02*
Y45997D01*
Y44998D01*
X355500D01*
X356000Y46997D02*
Y48996D01*
X352501Y51995D02*
Y50996D01*
Y51496D01*
X355000D01*
X355500Y50996D01*
Y50496D01*
X355000Y49996D01*
X355500Y52995D02*
X353501D01*
X352501Y53995D01*
X353501Y54994D01*
X355500D01*
X354000D01*
Y52995D01*
X353001Y57994D02*
X352501Y57494D01*
Y56494D01*
X353001Y55994D01*
X355000D01*
X355500Y56494D01*
Y57494D01*
X355000Y57994D01*
X352501Y58993D02*
X355500D01*
X354500D01*
X352501Y60993D01*
X354000Y59493D01*
X355500Y60993D01*
X353501Y6999D02*
X353001Y6499D01*
Y5500D01*
X353501Y5000D01*
X354001D01*
X354501Y5500D01*
Y6499D01*
X355000Y6999D01*
X355500D01*
X356000Y6499D01*
Y5500D01*
X355500Y5000D01*
X353001Y7999D02*
X356000D01*
X355000Y8999D01*
X356000Y9998D01*
X353001D01*
X356500Y10998D02*
Y12997D01*
X356000Y13997D02*
X353001D01*
Y15497D01*
X353501Y15996D01*
X354501D01*
X355000Y15497D01*
Y13997D01*
X356000Y18995D02*
Y16996D01*
X354001Y18995D01*
X353501D01*
X353001Y18496D01*
Y17496D01*
X353501Y16996D01*
X334501Y5500D02*
X336500D01*
X337500Y6500D01*
X336500Y7499D01*
X334501D01*
Y9999D02*
Y8999D01*
X335001Y8499D01*
X337000D01*
X337500Y8999D01*
Y9999D01*
X337000Y10498D01*
X335001D01*
X334501Y9999D01*
Y11498D02*
X337500D01*
Y13497D01*
X334501Y14497D02*
X337000D01*
X337500Y14997D01*
Y15997D01*
X337000Y16496D01*
X334501D01*
X337500Y17496D02*
X334501D01*
X335501Y18496D01*
X334501Y19496D01*
X337500D01*
X334501Y22494D02*
Y20495D01*
X337500D01*
Y22494D01*
X336000Y20495D02*
Y21495D01*
X321499Y69499D02*
X321000Y69999D01*
X320000D01*
X319500Y69499D01*
Y67500D01*
X320000Y67000D01*
X321000D01*
X321499Y67500D01*
X324498Y67000D02*
X322499D01*
X324498Y68999D01*
Y69499D01*
X323998Y69999D01*
X322999D01*
X322499Y69499D01*
X314500Y19500D02*
Y22499D01*
X316000D01*
X316499Y21999D01*
Y21000D01*
X316000Y20500D01*
X314500D01*
X315500D02*
X316499Y19500D01*
X318999D02*
Y22499D01*
X317499Y21000D01*
X319498D01*
X297500Y1500D02*
Y4499D01*
X299000D01*
X299499Y3999D01*
Y2999D01*
X299000Y2500D01*
X297500D01*
X298500D02*
X299499Y1500D01*
X300499Y3999D02*
X300999Y4499D01*
X301998D01*
X302498Y3999D01*
Y3499D01*
X301998Y2999D01*
X301499D01*
X301998D01*
X302498Y2500D01*
Y2000D01*
X301998Y1500D01*
X300999D01*
X300499Y2000D01*
X315499Y38000D02*
Y39999D01*
X315000Y40499D01*
X314000D01*
X313500Y39999D01*
Y38000D01*
X314000Y37500D01*
X315000D01*
X314500Y38500D02*
X315499Y37500D01*
X315000D02*
X315499Y38000D01*
X316499Y37500D02*
X317499D01*
X316999D01*
Y40499D01*
X316499Y39999D01*
X278500Y42499D02*
X280499D01*
X279500D01*
Y39500D01*
X282998Y42499D02*
X281999D01*
X281499Y41999D01*
Y40000D01*
X281999Y39500D01*
X282998D01*
X283498Y40000D01*
Y41999D01*
X282998Y42499D01*
X284498Y39500D02*
Y42499D01*
X286497Y39500D01*
Y42499D01*
X289496D02*
X287497D01*
Y39500D01*
X289496D01*
X287497Y40999D02*
X288497D01*
X272500Y58499D02*
X274499D01*
X273500D01*
Y55500D01*
X275499D02*
Y58499D01*
X277498Y55500D01*
Y58499D01*
X278498Y55000D02*
X280497D01*
X283496Y57999D02*
X282997Y58499D01*
X281997D01*
X281497Y57999D01*
Y57499D01*
X281997Y56999D01*
X282997D01*
X283496Y56500D01*
Y56000D01*
X282997Y55500D01*
X281997D01*
X281497Y56000D01*
X284496Y58499D02*
Y55500D01*
X285496Y56500D01*
X286495Y55500D01*
Y58499D01*
X289494Y55500D02*
X287495D01*
X289494Y57499D01*
Y57999D01*
X288995Y58499D01*
X287995D01*
X287495Y57999D01*
X231501Y3500D02*
Y5499D01*
Y4500D01*
X234500D01*
Y6499D02*
X231501D01*
X234500Y8498D01*
X231501D01*
X235000Y9498D02*
Y11497D01*
X232001Y14496D02*
X231501Y13997D01*
Y12997D01*
X232001Y12497D01*
X232501D01*
X233000Y12997D01*
Y13997D01*
X233500Y14496D01*
X234000D01*
X234500Y13997D01*
Y12997D01*
X234000Y12497D01*
X231501Y15496D02*
X234500D01*
X233500Y16496D01*
X234500Y17495D01*
X231501D01*
X234500Y18495D02*
Y19495D01*
Y18995D01*
X231501D01*
X232001Y18495D01*
X255000Y39000D02*
Y41999D01*
X256500D01*
X256999Y41499D01*
Y40499D01*
X256500Y40000D01*
X255000D01*
X256000D02*
X256999Y39000D01*
X259998Y41999D02*
X257999D01*
Y40499D01*
X258999Y40999D01*
X259499D01*
X259998Y40499D01*
Y39500D01*
X259499Y39000D01*
X258499D01*
X257999Y39500D01*
X287999Y3499D02*
X287499Y3999D01*
X286500D01*
X286000Y3499D01*
Y1500D01*
X286500Y1000D01*
X287499D01*
X287999Y1500D01*
X288999Y3499D02*
X289499Y3999D01*
X290498D01*
X290998Y3499D01*
Y2999D01*
X290498Y2499D01*
X290998Y2000D01*
Y1500D01*
X290498Y1000D01*
X289499D01*
X288999Y1500D01*
Y2000D01*
X289499Y2499D01*
X288999Y2999D01*
Y3499D01*
X289499Y2499D02*
X290498D01*
X284000Y27000D02*
Y29999D01*
X285000Y28999D01*
X285999Y29999D01*
Y27000D01*
X286999Y29999D02*
X287999D01*
X287499D01*
Y27000D01*
X286999D01*
X287999D01*
X289498Y29999D02*
Y27000D01*
X290998D01*
X291498Y27500D01*
Y29499D01*
X290998Y29999D01*
X289498D01*
X294497Y29499D02*
X293997Y29999D01*
X292997D01*
X292497Y29499D01*
Y28999D01*
X292997Y28499D01*
X293997D01*
X294497Y28000D01*
Y27500D01*
X293997Y27000D01*
X292997D01*
X292497Y27500D01*
X257500Y1500D02*
Y4499D01*
X258999D01*
X259499Y3999D01*
Y2999D01*
X258999Y2500D01*
X257500D01*
X258500D02*
X259499Y1500D01*
X260499Y3999D02*
X260999Y4499D01*
X261999D01*
X262498Y3999D01*
Y3499D01*
X261999Y2999D01*
X262498Y2500D01*
Y2000D01*
X261999Y1500D01*
X260999D01*
X260499Y2000D01*
Y2500D01*
X260999Y2999D01*
X260499Y3499D01*
Y3999D01*
X260999Y2999D02*
X261999D01*
X259499Y15499D02*
X258999Y15999D01*
X258000D01*
X257500Y15499D01*
Y13500D01*
X258000Y13000D01*
X258999D01*
X259499Y13500D01*
X260499Y13000D02*
X261499D01*
X260999D01*
Y15999D01*
X260499Y15499D01*
X264998Y15999D02*
X262998D01*
Y14500D01*
X263998Y14999D01*
X264498D01*
X264998Y14500D01*
Y13500D01*
X264498Y13000D01*
X263498D01*
X262998Y13500D01*
X74999Y83999D02*
X74499Y84499D01*
X73500D01*
X73000Y83999D01*
Y82000D01*
X73500Y81500D01*
X74499D01*
X74999Y82000D01*
X75999Y81500D02*
X76999D01*
X76499D01*
Y84499D01*
X75999Y83999D01*
X79998Y81500D02*
Y84499D01*
X78498Y82999D01*
X80498D01*
X27500Y61500D02*
Y64499D01*
X29000D01*
X29499Y63999D01*
Y62999D01*
X29000Y62500D01*
X27500D01*
X28500D02*
X29499Y61500D01*
X32498D02*
X30499D01*
X32498Y63499D01*
Y63999D01*
X31999Y64499D01*
X30999D01*
X30499Y63999D01*
X33498Y64499D02*
X35497D01*
Y63999D01*
X33498Y62000D01*
Y61500D01*
X10001Y61000D02*
X13000D01*
Y62499D01*
X12500Y62999D01*
X10501D01*
X10001Y62499D01*
Y61000D01*
X10501Y65998D02*
X10001Y65499D01*
Y64499D01*
X10501Y63999D01*
X12500D01*
X13000Y64499D01*
Y65499D01*
X12500Y65998D01*
X13500Y66998D02*
Y68997D01*
X10001Y71996D02*
Y70997D01*
Y71497D01*
X12500D01*
X13000Y70997D01*
Y70497D01*
X12500Y69997D01*
X13000Y72996D02*
X11001D01*
X10001Y73996D01*
X11001Y74995D01*
X13000D01*
X11501D01*
Y72996D01*
X10501Y77995D02*
X10001Y77495D01*
Y76495D01*
X10501Y75995D01*
X12500D01*
X13000Y76495D01*
Y77495D01*
X12500Y77995D01*
X10001Y78994D02*
X13000D01*
X12000D01*
X10001Y80993D01*
X11501Y79494D01*
X13000Y80993D01*
X48501Y61000D02*
X51500D01*
Y62499D01*
X51000Y62999D01*
X50500D01*
X50001Y62499D01*
Y61000D01*
Y62499D01*
X49501Y62999D01*
X49001D01*
X48501Y62499D01*
Y61000D01*
X51500Y63999D02*
X49501D01*
X48501Y64999D01*
X49501Y65998D01*
X51500D01*
X50001D01*
Y63999D01*
X48501Y66998D02*
Y68997D01*
Y67998D01*
X51500D01*
X48501Y69997D02*
Y71996D01*
Y70997D01*
X51500D01*
X48501Y74995D02*
Y72996D01*
X51500D01*
Y74995D01*
X50001Y72996D02*
Y73996D01*
X51500Y75995D02*
X48501D01*
Y77495D01*
X49001Y77995D01*
X50001D01*
X50500Y77495D01*
Y75995D01*
Y76995D02*
X51500Y77995D01*
X48501Y78994D02*
X49001D01*
X50001Y79994D01*
X49001Y80993D01*
X48501D01*
X50001Y79994D02*
X51500D01*
X59999Y51999D02*
X59500Y52499D01*
X58500D01*
X58000Y51999D01*
Y50000D01*
X58500Y49500D01*
X59500D01*
X59999Y50000D01*
X60999Y49500D02*
X61999D01*
X61499D01*
Y52499D01*
X60999Y51999D01*
X50000Y44500D02*
Y47499D01*
X51499D01*
X51999Y46999D01*
Y46000D01*
X51499Y45500D01*
X50000D01*
X51000D02*
X51999Y44500D01*
X54998D02*
X52999D01*
X54998Y46499D01*
Y46999D01*
X54499Y47499D01*
X53499D01*
X52999Y46999D01*
X191000Y45000D02*
Y47999D01*
X192499D01*
X192999Y47499D01*
Y46499D01*
X192499Y46000D01*
X191000D01*
X192000D02*
X192999Y45000D01*
X193999D02*
X194999D01*
X194499D01*
Y47999D01*
X193999Y47499D01*
X196498D02*
X196998Y47999D01*
X197998D01*
X198498Y47499D01*
Y46999D01*
X197998Y46499D01*
X198498Y46000D01*
Y45500D01*
X197998Y45000D01*
X196998D01*
X196498Y45500D01*
Y46000D01*
X196998Y46499D01*
X196498Y46999D01*
Y47499D01*
X196998Y46499D02*
X197998D01*
X230999Y38000D02*
Y39999D01*
X230500Y40499D01*
X229500D01*
X229000Y39999D01*
Y38000D01*
X229500Y37500D01*
X230500D01*
X230000Y38500D02*
X230999Y37500D01*
X230500D02*
X230999Y38000D01*
X233998Y37500D02*
X231999D01*
X233998Y39499D01*
Y39999D01*
X233499Y40499D01*
X232499D01*
X231999Y39999D01*
X219000Y3000D02*
Y5999D01*
X220499D01*
X220999Y5499D01*
Y4499D01*
X220499Y4000D01*
X219000D01*
X220000D02*
X220999Y3000D01*
X221999D02*
X222999D01*
X222499D01*
Y5999D01*
X221999Y5499D01*
X224498D02*
X224998Y5999D01*
X225998D01*
X226498Y5499D01*
Y3500D01*
X225998Y3000D01*
X224998D01*
X224498Y3500D01*
Y5499D01*
X202500Y11500D02*
Y14499D01*
X203999D01*
X204499Y13999D01*
Y13000D01*
X203999Y12500D01*
X202500D01*
X203500D02*
X204499Y11500D01*
X205499D02*
X206499D01*
X205999D01*
Y14499D01*
X205499Y13999D01*
X209998Y14499D02*
X208998Y13999D01*
X207998Y13000D01*
Y12000D01*
X208498Y11500D01*
X209498D01*
X209998Y12000D01*
Y12500D01*
X209498Y13000D01*
X207998D01*
X161499Y56999D02*
X161000Y57499D01*
X160000D01*
X159500Y56999D01*
Y55000D01*
X160000Y54500D01*
X161000D01*
X161499Y55000D01*
X162499Y54500D02*
X163499D01*
X162999D01*
Y57499D01*
X162499Y56999D01*
X166998Y54500D02*
X164998D01*
X166998Y56499D01*
Y56999D01*
X166498Y57499D01*
X165498D01*
X164998Y56999D01*
X161500Y46500D02*
Y49499D01*
X162999D01*
X163499Y48999D01*
Y48000D01*
X162999Y47500D01*
X161500D01*
X162500D02*
X163499Y46500D01*
X164499D02*
X165499D01*
X164999D01*
Y49499D01*
X164499Y48999D01*
X166998Y49499D02*
X168998D01*
Y48999D01*
X166998Y47000D01*
Y46500D01*
X171499Y38000D02*
Y39999D01*
X171000Y40499D01*
X170000D01*
X169500Y39999D01*
Y38000D01*
X170000Y37500D01*
X171000D01*
X170500Y38500D02*
X171499Y37500D01*
X171000D02*
X171499Y38000D01*
X172499Y39999D02*
X172999Y40499D01*
X173999D01*
X174498Y39999D01*
Y39499D01*
X173999Y39000D01*
X173499D01*
X173999D01*
X174498Y38500D01*
Y38000D01*
X173999Y37500D01*
X172999D01*
X172499Y38000D01*
X159500Y4500D02*
Y7499D01*
X161000D01*
X161499Y6999D01*
Y5999D01*
X161000Y5500D01*
X159500D01*
X160500D02*
X161499Y4500D01*
X164498D02*
X162499D01*
X164498Y6499D01*
Y6999D01*
X163999Y7499D01*
X162999D01*
X162499Y6999D01*
X165498Y4500D02*
X166498D01*
X165998D01*
Y7499D01*
X165498Y6999D01*
X149500Y15500D02*
Y18499D01*
X150999D01*
X151499Y17999D01*
Y16999D01*
X150999Y16500D01*
X149500D01*
X150500D02*
X151499Y15500D01*
X154498D02*
X152499D01*
X154498Y17499D01*
Y17999D01*
X153999Y18499D01*
X152999D01*
X152499Y17999D01*
X155498D02*
X155998Y18499D01*
X156998D01*
X157497Y17999D01*
Y16000D01*
X156998Y15500D01*
X155998D01*
X155498Y16000D01*
Y17999D01*
X33001Y25999D02*
X32501Y25499D01*
Y24500D01*
X33001Y24000D01*
X33501D01*
X34001Y24500D01*
Y25499D01*
X34500Y25999D01*
X35000D01*
X35500Y25499D01*
Y24500D01*
X35000Y24000D01*
X32501Y26999D02*
X35500D01*
X34500Y27999D01*
X35500Y28998D01*
X32501D01*
X36000Y29998D02*
Y31997D01*
X35500Y32997D02*
X32501D01*
Y34497D01*
X33001Y34996D01*
X34001D01*
X34500Y34497D01*
Y32997D01*
X35500Y35996D02*
Y36996D01*
Y36496D01*
X32501D01*
X33001Y35996D01*
X10001Y23500D02*
Y24500D01*
Y24000D01*
X13000D01*
Y23500D01*
Y24500D01*
Y25999D02*
X10001D01*
X13000Y27999D01*
X10001D01*
X13500Y28998D02*
Y30998D01*
X10001Y33997D02*
Y32997D01*
Y33497D01*
X12500D01*
X13000Y32997D01*
Y32497D01*
X12500Y31997D01*
X13000Y34996D02*
X11001D01*
X10001Y35996D01*
X11001Y36996D01*
X13000D01*
X11501D01*
Y34996D01*
X10501Y39995D02*
X10001Y39495D01*
Y38495D01*
X10501Y37995D01*
X12500D01*
X13000Y38495D01*
Y39495D01*
X12500Y39995D01*
X10001Y40994D02*
X13000D01*
X12000D01*
X10001Y42994D01*
X11501Y41494D01*
X13000Y42994D01*
X152000Y28500D02*
X149001D01*
Y30000D01*
X149501Y30499D01*
X150501D01*
X151000Y30000D01*
Y28500D01*
Y29500D02*
X152000Y30499D01*
Y31499D02*
Y32499D01*
Y31999D01*
X149001D01*
X149501Y31499D01*
X151500Y33998D02*
X152000Y34498D01*
Y35498D01*
X151500Y35998D01*
X149501D01*
X149001Y35498D01*
Y34498D01*
X149501Y33998D01*
X150001D01*
X150501Y34498D01*
Y35998D01*
X135999Y25999D02*
X135500Y26499D01*
X134500D01*
X134000Y25999D01*
Y24000D01*
X134500Y23500D01*
X135500D01*
X135999Y24000D01*
X138998Y26499D02*
X136999D01*
Y24999D01*
X137999Y25499D01*
X138499D01*
X138998Y24999D01*
Y24000D01*
X138499Y23500D01*
X137499D01*
X136999Y24000D01*
X123500Y2000D02*
Y4999D01*
X124999D01*
X125499Y4499D01*
Y3500D01*
X124999Y3000D01*
X123500D01*
X124500D02*
X125499Y2000D01*
X128498D02*
X126499D01*
X128498Y3999D01*
Y4499D01*
X127999Y4999D01*
X126999D01*
X126499Y4499D01*
X129498D02*
X129998Y4999D01*
X130998D01*
X131497Y4499D01*
Y3999D01*
X130998Y3500D01*
X130498D01*
X130998D01*
X131497Y3000D01*
Y2500D01*
X130998Y2000D01*
X129998D01*
X129498Y2500D01*
X83000Y34500D02*
Y37499D01*
X84500D01*
X84999Y36999D01*
Y36000D01*
X84500Y35500D01*
X83000D01*
X84000D02*
X84999Y34500D01*
X85999D02*
X86999D01*
X86499D01*
Y37499D01*
X85999Y36999D01*
X89998Y34500D02*
Y37499D01*
X88498Y36000D01*
X90498D01*
X106499Y4499D02*
X104500D01*
Y1500D01*
X106499D01*
X104500Y2999D02*
X105500D01*
X107499Y1500D02*
Y4499D01*
X108499Y3499D01*
X109498Y4499D01*
Y1500D01*
X110498Y1000D02*
X112497D01*
X115496Y3999D02*
X114997Y4499D01*
X113997D01*
X113497Y3999D01*
Y3499D01*
X113997Y2999D01*
X114997D01*
X115496Y2500D01*
Y2000D01*
X114997Y1500D01*
X113997D01*
X113497Y2000D01*
X116496Y4499D02*
Y1500D01*
X117496Y2500D01*
X118496Y1500D01*
Y4499D01*
X119495Y1500D02*
X120495D01*
X119995D01*
Y4499D01*
X119495Y3999D01*
X99000Y9000D02*
X96001D01*
Y10499D01*
X96501Y10999D01*
X97500D01*
X98000Y10499D01*
Y9000D01*
Y10000D02*
X99000Y10999D01*
Y13998D02*
Y11999D01*
X97001Y13998D01*
X96501D01*
X96001Y13499D01*
Y12499D01*
X96501Y11999D01*
X99000Y16997D02*
Y14998D01*
X97001Y16997D01*
X96501D01*
X96001Y16498D01*
Y15498D01*
X96501Y14998D01*
X118501Y31499D02*
X118001Y30999D01*
Y30000D01*
X118501Y29500D01*
X119001D01*
X119501Y30000D01*
Y30999D01*
X120000Y31499D01*
X120500D01*
X121000Y30999D01*
Y30000D01*
X120500Y29500D01*
X118001Y32499D02*
X120500D01*
X121000Y32999D01*
Y33999D01*
X120500Y34498D01*
X118001D01*
X118501Y37497D02*
X118001Y36998D01*
Y35998D01*
X118501Y35498D01*
X119001D01*
X119501Y35998D01*
Y36998D01*
X120000Y37497D01*
X120500D01*
X121000Y36998D01*
Y35998D01*
X120500Y35498D01*
X118001Y38497D02*
Y40496D01*
Y39497D01*
X121000D01*
Y41496D02*
X119001D01*
X118001Y42496D01*
X119001Y43496D01*
X121000D01*
X119501D01*
Y41496D01*
X118001Y44495D02*
Y45495D01*
Y44995D01*
X121000D01*
Y44495D01*
Y45495D01*
Y46994D02*
X118001D01*
X121000Y48994D01*
X118001D01*
X105000Y59500D02*
Y62499D01*
X106500D01*
X106999Y61999D01*
Y61000D01*
X106500Y60500D01*
X105000D01*
X106000D02*
X106999Y59500D01*
X107999D02*
X108999D01*
X108499D01*
Y62499D01*
X107999Y61999D01*
X110498D02*
X110998Y62499D01*
X111998D01*
X112498Y61999D01*
Y61499D01*
X111998Y61000D01*
X111498D01*
X111998D01*
X112498Y60500D01*
Y60000D01*
X111998Y59500D01*
X110998D01*
X110498Y60000D01*
X121999Y55999D02*
X121500Y56499D01*
X120500D01*
X120000Y55999D01*
Y54000D01*
X120500Y53500D01*
X121500D01*
X121999Y54000D01*
X124499Y53500D02*
Y56499D01*
X122999Y55000D01*
X124998D01*
X111499Y38000D02*
Y39999D01*
X111000Y40499D01*
X110000D01*
X109500Y39999D01*
Y38000D01*
X110000Y37500D01*
X111000D01*
X110500Y38500D02*
X111499Y37500D01*
X111000D02*
X111499Y38000D01*
X113999Y37500D02*
Y40499D01*
X112499Y39000D01*
X114498D01*
X85499Y60499D02*
X85000Y60999D01*
X84000D01*
X83500Y60499D01*
Y58500D01*
X84000Y58000D01*
X85000D01*
X85499Y58500D01*
X86499Y58000D02*
X87499D01*
X86999D01*
Y60999D01*
X86499Y60499D01*
X88998D02*
X89498Y60999D01*
X90498D01*
X90998Y60499D01*
Y58500D01*
X90498Y58000D01*
X89498D01*
X88998Y58500D01*
Y60499D01*
X98000Y45500D02*
Y48499D01*
X99499D01*
X99999Y47999D01*
Y46999D01*
X99499Y46500D01*
X98000D01*
X99000D02*
X99999Y45500D01*
X100999Y46000D02*
X101499Y45500D01*
X102499D01*
X102998Y46000D01*
Y47999D01*
X102499Y48499D01*
X101499D01*
X100999Y47999D01*
Y47499D01*
X101499Y46999D01*
X102998D01*
X221999Y54499D02*
X221499Y54999D01*
X220500D01*
X220000Y54499D01*
Y52500D01*
X220500Y52000D01*
X221499D01*
X221999Y52500D01*
X222999Y52000D02*
X223999D01*
X223499D01*
Y54999D01*
X222999Y54499D01*
X225498Y52000D02*
X226498D01*
X225998D01*
Y54999D01*
X225498Y54499D01*
X179399Y41899D02*
X178900Y42399D01*
X177900D01*
X177400Y41899D01*
Y39900D01*
X177900Y39400D01*
X178900D01*
X179399Y39900D01*
X180399Y39400D02*
X181399D01*
X180899D01*
Y42399D01*
X180399Y41899D01*
X182898D02*
X183398Y42399D01*
X184398D01*
X184898Y41899D01*
Y41399D01*
X184398Y40900D01*
X183898D01*
X184398D01*
X184898Y40400D01*
Y39900D01*
X184398Y39400D01*
X183398D01*
X182898Y39900D01*
X230500Y81999D02*
Y79000D01*
X231999D01*
X232499Y79500D01*
Y81499D01*
X231999Y81999D01*
X230500D01*
X233499Y79000D02*
X234499D01*
X233999D01*
Y81999D01*
X233499Y81499D01*
X241500Y81999D02*
Y79000D01*
X243000D01*
X243499Y79500D01*
Y81499D01*
X243000Y81999D01*
X241500D01*
X246498Y79000D02*
X244499D01*
X246498Y80999D01*
Y81499D01*
X245999Y81999D01*
X244999D01*
X244499Y81499D01*
X170500Y82999D02*
Y80000D01*
X172000D01*
X172499Y80500D01*
Y82499D01*
X172000Y82999D01*
X170500D01*
X173499Y82499D02*
X173999Y82999D01*
X174999D01*
X175498Y82499D01*
Y81999D01*
X174999Y81499D01*
X174499D01*
X174999D01*
X175498Y81000D01*
Y80500D01*
X174999Y80000D01*
X173999D01*
X173499Y80500D01*
X181400Y82799D02*
Y79800D01*
X182899D01*
X183399Y80300D01*
Y82299D01*
X182899Y82799D01*
X181400D01*
X185899Y79800D02*
Y82799D01*
X184399Y81300D01*
X186398D01*
X181501Y7499D02*
Y5500D01*
X184500D01*
Y7499D01*
X183001Y5500D02*
Y6500D01*
X184500Y8499D02*
X181501D01*
X182501Y9499D01*
X181501Y10498D01*
X184500D01*
X185000Y11498D02*
Y13497D01*
X182001Y16496D02*
X181501Y15997D01*
Y14997D01*
X182001Y14497D01*
X182501D01*
X183001Y14997D01*
Y15997D01*
X183500Y16496D01*
X184000D01*
X184500Y15997D01*
Y14997D01*
X184000Y14497D01*
X181501Y17496D02*
X184500D01*
X183500Y18496D01*
X184500Y19496D01*
X181501D01*
X184500Y22494D02*
Y20495D01*
X182501Y22494D01*
X182001D01*
X181501Y21995D01*
Y20995D01*
X182001Y20495D01*
X249600Y59200D02*
Y62199D01*
X251099D01*
X251599Y61699D01*
Y60699D01*
X251099Y60200D01*
X249600D01*
X250600D02*
X251599Y59200D01*
X252599D02*
X253599D01*
X253099D01*
Y62199D01*
X252599Y61699D01*
X255098Y59200D02*
X256098D01*
X255598D01*
Y62199D01*
X255098Y61699D01*
X194800Y38900D02*
Y41899D01*
X196300D01*
X196799Y41399D01*
Y40400D01*
X196300Y39900D01*
X194800D01*
X195800D02*
X196799Y38900D01*
X197799D02*
X198799D01*
X198299D01*
Y41899D01*
X197799Y41399D01*
X202298Y38900D02*
X200298D01*
X202298Y40899D01*
Y41399D01*
X201798Y41899D01*
X200798D01*
X200298Y41399D01*
X216500Y45000D02*
Y47999D01*
X218000D01*
X218499Y47499D01*
Y46499D01*
X218000Y46000D01*
X216500D01*
X217500D02*
X218499Y45000D01*
X219499D02*
X220499D01*
X219999D01*
Y47999D01*
X219499Y47499D01*
X223998Y47999D02*
X221998D01*
Y46499D01*
X222998Y46999D01*
X223498D01*
X223998Y46499D01*
Y45500D01*
X223498Y45000D01*
X222498D01*
X221998Y45500D01*
D29*
X41991Y85449D02*
Y82431D01*
X43500Y83940D02*
X40483D01*
D30*
X185000Y53504D02*
D03*
X174000Y66496D02*
D03*
X244000Y53504D02*
D03*
X233001Y66496D02*
D03*
M02*
