M48
;Layer_Color=9474304
;FILE_FORMAT=2:5
INCH,LZ
;TYPE=PLATED
T1F00S00C0.02800
T2F00S00C0.03543
T3F00S00C0.11811
%
T01
X0198169Y0017669
X0214669Y0009169
X0254Y0029
X0257Y0036
X0273Y00135
X03065Y00075
X0155669Y0010669
X0138831Y0016169
X0133331Y0008169
X0091669Y0023169
X0075Y0061
T02
X03465Y001
Y002
Y003
Y0043
Y0053
X0328Y00305
Y00205
Y00105
X03065Y0028
Y0033
Y0038
X02845Y0049
X02745
X02645
Y0065
X02745
X02845
X028Y00205
X029
X0242Y0019
Y0029
X0244Y0046024
X0233
X0222Y0038
Y0033
Y0028
X0242Y0009
X0244Y0073976
X0233
X0185
Y0046024
X0174
X01625Y0038
Y0033
Y0028
X0175Y0021
Y0011
X0115
Y0021
X01275Y0025
Y0035
Y0045
X01025Y0038
Y0033
Y0028
X0042Y0029
Y0039
Y0049
Y0066
Y0076
X0174Y0073976
X00195Y0076
Y0066
Y0049
Y0039
Y0029
T03
X0345Y00725
X0015Y00125
M30
