%FSLAX23Y23*%
%MOIN*%
G70*
G01*
G75*
G04 Layer_Physical_Order=2*
G04 Layer_Color=16711680*
%ADD10R,0.043X0.067*%
%ADD11R,0.039X0.059*%
%ADD12R,0.059X0.039*%
%ADD13R,0.067X0.043*%
%ADD14R,0.055X0.118*%
%ADD15R,0.118X0.055*%
%ADD16C,0.025*%
%ADD17C,0.010*%
%ADD18R,0.059X0.059*%
%ADD19C,0.059*%
%ADD20O,0.079X0.039*%
%ADD21O,0.079X0.039*%
%ADD22R,0.059X0.059*%
%ADD23C,0.138*%
%ADD24C,0.050*%
G36*
X3564Y11D02*
X36D01*
Y839D01*
X3564D01*
Y11D01*
D02*
G37*
%LPC*%
G36*
X1977Y172D02*
X1947D01*
X1948Y168D01*
X1951Y159D01*
X1957Y152D01*
X1964Y146D01*
X1973Y143D01*
X1977Y142D01*
Y172D01*
D02*
G37*
G36*
X1423Y157D02*
X1393D01*
Y127D01*
X1397Y128D01*
X1406Y131D01*
X1413Y137D01*
X1419Y144D01*
X1422Y153D01*
X1423Y157D01*
D02*
G37*
G36*
X1383D02*
X1354D01*
X1354Y153D01*
X1358Y144D01*
X1363Y137D01*
X1371Y131D01*
X1379Y128D01*
X1383Y127D01*
Y157D01*
D02*
G37*
G36*
X3465Y236D02*
X3456Y235D01*
X3447Y231D01*
X3440Y225D01*
X3434Y218D01*
X3430Y209D01*
X3429Y200D01*
X3430Y191D01*
X3434Y182D01*
X3440Y175D01*
X3447Y169D01*
X3456Y165D01*
X3465Y164D01*
X3474Y165D01*
X3483Y169D01*
X3490Y175D01*
X3496Y182D01*
X3500Y191D01*
X3501Y200D01*
X3500Y209D01*
X3496Y218D01*
X3490Y225D01*
X3483Y231D01*
X3474Y235D01*
X3465Y236D01*
D02*
G37*
G36*
X2420Y226D02*
X2411Y225D01*
X2402Y221D01*
X2395Y215D01*
X2389Y208D01*
X2385Y199D01*
X2384Y190D01*
X2385Y181D01*
X2389Y172D01*
X2395Y165D01*
X2402Y159D01*
X2411Y155D01*
X2420Y154D01*
X2429Y155D01*
X2438Y159D01*
X2445Y165D01*
X2451Y172D01*
X2455Y181D01*
X2456Y190D01*
X2455Y199D01*
X2451Y208D01*
X2445Y215D01*
X2438Y221D01*
X2429Y225D01*
X2420Y226D01*
D02*
G37*
G36*
X2016Y172D02*
X1987D01*
Y142D01*
X1991Y143D01*
X1999Y146D01*
X2007Y152D01*
X2012Y159D01*
X2016Y168D01*
X2016Y172D01*
D02*
G37*
G36*
X1145Y149D02*
X1140Y149D01*
X1130Y145D01*
X1122Y138D01*
X1115Y130D01*
X1111Y120D01*
X1111Y115D01*
X1145D01*
Y149D01*
D02*
G37*
G36*
X1562Y141D02*
Y112D01*
X1591D01*
X1591Y116D01*
X1587Y124D01*
X1582Y132D01*
X1574Y137D01*
X1566Y141D01*
X1562Y141D01*
D02*
G37*
G36*
X1552D02*
X1548Y141D01*
X1539Y137D01*
X1532Y132D01*
X1526Y124D01*
X1523Y116D01*
X1522Y112D01*
X1552D01*
Y141D01*
D02*
G37*
G36*
X1755Y149D02*
Y115D01*
X1789D01*
X1789Y120D01*
X1785Y130D01*
X1778Y138D01*
X1770Y145D01*
X1760Y149D01*
X1755Y149D01*
D02*
G37*
G36*
X1745D02*
X1740Y149D01*
X1730Y145D01*
X1722Y138D01*
X1715Y130D01*
X1711Y120D01*
X1711Y115D01*
X1745D01*
Y149D01*
D02*
G37*
G36*
X1155D02*
Y115D01*
X1189D01*
X1189Y120D01*
X1185Y130D01*
X1178Y138D01*
X1170Y145D01*
X1160Y149D01*
X1155Y149D01*
D02*
G37*
G36*
X1383Y196D02*
X1379Y196D01*
X1371Y192D01*
X1363Y187D01*
X1358Y179D01*
X1354Y171D01*
X1354Y167D01*
X1383D01*
Y196D01*
D02*
G37*
G36*
X1311Y286D02*
X1239D01*
Y214D01*
X1311D01*
Y286D01*
D02*
G37*
G36*
X951Y227D02*
X922D01*
Y197D01*
X926Y198D01*
X934Y201D01*
X942Y207D01*
X947Y214D01*
X951Y223D01*
X951Y227D01*
D02*
G37*
G36*
X912D02*
X882D01*
X883Y223D01*
X886Y214D01*
X892Y207D01*
X899Y201D01*
X908Y198D01*
X912Y197D01*
Y227D01*
D02*
G37*
G36*
X922Y266D02*
Y237D01*
X951D01*
X951Y241D01*
X947Y249D01*
X942Y257D01*
X934Y262D01*
X926Y266D01*
X922Y266D01*
D02*
G37*
G36*
X912D02*
X908Y266D01*
X899Y262D01*
X892Y257D01*
X886Y249D01*
X883Y241D01*
X882Y237D01*
X912D01*
Y266D01*
D02*
G37*
G36*
X2881Y526D02*
X2809D01*
Y454D01*
X2826D01*
Y415D01*
X2826Y415D01*
X2826D01*
X2828Y408D01*
X2831Y402D01*
Y231D01*
X2826Y229D01*
X2825Y230D01*
X2818Y236D01*
X2809Y240D01*
X2800Y241D01*
X2791Y240D01*
X2782Y236D01*
X2775Y230D01*
X2769Y223D01*
X2765Y214D01*
X2764Y205D01*
X2765Y196D01*
X2769Y187D01*
X2775Y180D01*
X2782Y174D01*
X2791Y170D01*
X2800Y169D01*
X2807Y170D01*
X2809Y166D01*
X2797Y154D01*
X2755D01*
X2752Y157D01*
X2746Y162D01*
X2738Y165D01*
X2730Y166D01*
X2722Y165D01*
X2714Y162D01*
X2708Y157D01*
X2703Y151D01*
X2700Y143D01*
X2699Y135D01*
X2700Y127D01*
X2703Y119D01*
X2708Y113D01*
X2714Y108D01*
X2722Y105D01*
X2730Y104D01*
X2738Y105D01*
X2746Y108D01*
X2752Y113D01*
X2755Y116D01*
X2805D01*
X2812Y118D01*
X2818Y122D01*
X2863Y167D01*
X2865Y169D01*
X2936D01*
Y241D01*
X2869D01*
Y410D01*
X2867Y417D01*
X2864Y423D01*
Y454D01*
X2881D01*
Y526D01*
D02*
G37*
G36*
X1186Y246D02*
X1114D01*
Y174D01*
X1186D01*
Y246D01*
D02*
G37*
G36*
X3280Y241D02*
X3271Y240D01*
X3262Y236D01*
X3255Y230D01*
X3249Y223D01*
X3245Y214D01*
X3244Y205D01*
X3245Y196D01*
X3249Y187D01*
X3255Y180D01*
X3262Y174D01*
X3271Y170D01*
X3280Y169D01*
X3289Y170D01*
X3298Y174D01*
X3305Y180D01*
X3311Y187D01*
X3315Y196D01*
X3316Y205D01*
X3315Y214D01*
X3311Y223D01*
X3305Y230D01*
X3298Y236D01*
X3289Y240D01*
X3280Y241D01*
D02*
G37*
G36*
X1393Y196D02*
Y167D01*
X1423D01*
X1422Y171D01*
X1419Y179D01*
X1413Y187D01*
X1406Y192D01*
X1397Y196D01*
X1393Y196D01*
D02*
G37*
G36*
X1987Y211D02*
Y182D01*
X2016D01*
X2016Y186D01*
X2012Y194D01*
X2007Y202D01*
X1999Y207D01*
X1991Y211D01*
X1987Y211D01*
D02*
G37*
G36*
X1977D02*
X1973Y211D01*
X1964Y207D01*
X1957Y202D01*
X1951Y194D01*
X1948Y186D01*
X1947Y182D01*
X1977D01*
Y211D01*
D02*
G37*
G36*
X1786Y246D02*
X1714D01*
Y174D01*
X1786D01*
Y246D01*
D02*
G37*
G36*
X3501Y136D02*
X3429D01*
Y64D01*
X3501D01*
Y136D01*
D02*
G37*
G36*
X2181Y87D02*
X2152D01*
Y57D01*
X2156Y58D01*
X2164Y61D01*
X2172Y67D01*
X2177Y74D01*
X2181Y83D01*
X2181Y87D01*
D02*
G37*
G36*
X2142D02*
X2112D01*
X2113Y83D01*
X2116Y74D01*
X2122Y67D01*
X2129Y61D01*
X2138Y58D01*
X2142Y57D01*
Y87D01*
D02*
G37*
G36*
X1145Y105D02*
X1111D01*
X1111Y100D01*
X1115Y90D01*
X1122Y82D01*
X1130Y75D01*
X1140Y71D01*
X1145Y71D01*
Y105D01*
D02*
G37*
G36*
X3320Y100D02*
X3285D01*
Y65D01*
X3320D01*
Y100D01*
D02*
G37*
G36*
X3275D02*
X3240D01*
Y65D01*
X3275D01*
Y100D01*
D02*
G37*
G36*
X1328Y77D02*
X1299D01*
X1299Y73D01*
X1303Y64D01*
X1308Y57D01*
X1316Y51D01*
X1324Y48D01*
X1328Y47D01*
Y77D01*
D02*
G37*
G36*
X3100Y70D02*
X3070D01*
Y40D01*
X3074Y41D01*
X3083Y44D01*
X3090Y50D01*
X3096Y57D01*
X3099Y66D01*
X3100Y70D01*
D02*
G37*
G36*
X3060D02*
X3030D01*
X3031Y66D01*
X3034Y57D01*
X3040Y50D01*
X3047Y44D01*
X3056Y41D01*
X3060Y40D01*
Y70D01*
D02*
G37*
G36*
X2456Y126D02*
X2384D01*
Y54D01*
X2456D01*
Y126D01*
D02*
G37*
G36*
X150Y200D02*
X135Y199D01*
X121Y195D01*
X108Y188D01*
X97Y178D01*
X87Y167D01*
X80Y154D01*
X76Y140D01*
X75Y125D01*
X76Y110D01*
X80Y96D01*
X87Y83D01*
X97Y72D01*
X108Y62D01*
X121Y55D01*
X135Y51D01*
X150Y50D01*
X165Y51D01*
X179Y55D01*
X192Y62D01*
X203Y72D01*
X213Y83D01*
X220Y96D01*
X224Y110D01*
X225Y125D01*
X224Y140D01*
X220Y154D01*
X213Y167D01*
X203Y178D01*
X192Y188D01*
X179Y195D01*
X165Y199D01*
X150Y200D01*
D02*
G37*
G36*
X1368Y77D02*
X1338D01*
Y47D01*
X1342Y48D01*
X1351Y51D01*
X1358Y57D01*
X1364Y64D01*
X1367Y73D01*
X1368Y77D01*
D02*
G37*
G36*
X1189Y105D02*
X1155D01*
Y71D01*
X1160Y71D01*
X1170Y75D01*
X1178Y82D01*
X1185Y90D01*
X1189Y100D01*
X1189Y105D01*
D02*
G37*
G36*
X2142Y126D02*
X2138Y126D01*
X2129Y122D01*
X2122Y117D01*
X2116Y109D01*
X2113Y101D01*
X2112Y97D01*
X2142D01*
Y126D01*
D02*
G37*
G36*
X1338Y116D02*
Y87D01*
X1368D01*
X1367Y91D01*
X1364Y99D01*
X1358Y107D01*
X1351Y112D01*
X1342Y116D01*
X1338Y116D01*
D02*
G37*
G36*
X1328D02*
X1324Y116D01*
X1316Y112D01*
X1308Y107D01*
X1303Y99D01*
X1299Y91D01*
X1299Y87D01*
X1328D01*
Y116D01*
D02*
G37*
G36*
X3320Y145D02*
X3285D01*
Y110D01*
X3320D01*
Y145D01*
D02*
G37*
G36*
X3275D02*
X3240D01*
Y110D01*
X3275D01*
Y145D01*
D02*
G37*
G36*
X2152Y126D02*
Y97D01*
X2181D01*
X2181Y101D01*
X2177Y109D01*
X2172Y117D01*
X2164Y122D01*
X2156Y126D01*
X2152Y126D01*
D02*
G37*
G36*
X1552Y102D02*
X1522D01*
X1523Y98D01*
X1526Y89D01*
X1532Y82D01*
X1539Y76D01*
X1548Y73D01*
X1552Y72D01*
Y102D01*
D02*
G37*
G36*
X1789Y105D02*
X1755D01*
Y71D01*
X1760Y71D01*
X1770Y75D01*
X1778Y82D01*
X1785Y90D01*
X1789Y100D01*
X1789Y105D01*
D02*
G37*
G36*
X1745D02*
X1711D01*
X1711Y100D01*
X1715Y90D01*
X1722Y82D01*
X1730Y75D01*
X1740Y71D01*
X1745Y71D01*
Y105D01*
D02*
G37*
G36*
X3070Y110D02*
Y80D01*
X3100D01*
X3099Y84D01*
X3096Y93D01*
X3090Y100D01*
X3083Y106D01*
X3074Y109D01*
X3070Y110D01*
D02*
G37*
G36*
X3060D02*
X3056Y109D01*
X3047Y106D01*
X3040Y100D01*
X3034Y93D01*
X3031Y84D01*
X3030Y80D01*
X3060D01*
Y110D01*
D02*
G37*
G36*
X1591Y102D02*
X1562D01*
Y72D01*
X1566Y73D01*
X1574Y76D01*
X1582Y82D01*
X1587Y89D01*
X1591Y98D01*
X1591Y102D01*
D02*
G37*
G36*
X190Y285D02*
X155D01*
Y250D01*
X190D01*
Y285D01*
D02*
G37*
G36*
X2645Y686D02*
X2636Y685D01*
X2627Y681D01*
X2620Y675D01*
X2614Y668D01*
X2610Y659D01*
X2609Y650D01*
X2610Y641D01*
X2614Y632D01*
X2620Y625D01*
X2627Y619D01*
X2636Y615D01*
X2645Y614D01*
X2654Y615D01*
X2663Y619D01*
X2670Y625D01*
X2676Y632D01*
X2680Y641D01*
X2681Y650D01*
X2680Y659D01*
X2676Y668D01*
X2670Y675D01*
X2663Y681D01*
X2654Y685D01*
X2645Y686D01*
D02*
G37*
G36*
X785Y605D02*
X755D01*
Y575D01*
X759Y576D01*
X768Y579D01*
X775Y585D01*
X781Y592D01*
X784Y601D01*
X785Y605D01*
D02*
G37*
G36*
X745D02*
X715D01*
X716Y601D01*
X719Y592D01*
X725Y585D01*
X732Y579D01*
X741Y576D01*
X745Y575D01*
Y605D01*
D02*
G37*
G36*
Y645D02*
X741Y644D01*
X732Y641D01*
X725Y635D01*
X719Y628D01*
X716Y619D01*
X715Y615D01*
X745D01*
Y645D01*
D02*
G37*
G36*
X2881Y686D02*
X2809D01*
Y614D01*
X2881D01*
Y686D01*
D02*
G37*
G36*
X2745Y686D02*
X2736Y685D01*
X2727Y681D01*
X2720Y675D01*
X2714Y668D01*
X2710Y659D01*
X2709Y650D01*
X2710Y641D01*
X2714Y632D01*
X2720Y625D01*
X2727Y619D01*
X2736Y615D01*
X2745Y614D01*
X2754Y615D01*
X2763Y619D01*
X2770Y625D01*
X2776Y632D01*
X2780Y641D01*
X2781Y650D01*
X2780Y659D01*
X2776Y668D01*
X2770Y675D01*
X2763Y681D01*
X2754Y685D01*
X2745Y686D01*
D02*
G37*
G36*
X3460Y525D02*
X3426D01*
X3426Y520D01*
X3430Y510D01*
X3437Y502D01*
X3445Y495D01*
X3455Y491D01*
X3460Y491D01*
Y525D01*
D02*
G37*
G36*
X2745Y526D02*
X2736Y525D01*
X2727Y521D01*
X2720Y515D01*
X2714Y508D01*
X2710Y499D01*
X2709Y490D01*
X2710Y481D01*
X2714Y472D01*
X2720Y465D01*
X2727Y459D01*
X2736Y455D01*
X2745Y454D01*
X2754Y455D01*
X2763Y459D01*
X2770Y465D01*
X2776Y472D01*
X2780Y481D01*
X2781Y490D01*
X2780Y499D01*
X2776Y508D01*
X2770Y515D01*
X2763Y521D01*
X2754Y525D01*
X2745Y526D01*
D02*
G37*
G36*
X2645D02*
X2636Y525D01*
X2627Y521D01*
X2620Y515D01*
X2614Y508D01*
X2610Y499D01*
X2609Y490D01*
X2610Y481D01*
X2614Y472D01*
X2620Y465D01*
X2627Y459D01*
X2636Y455D01*
X2645Y454D01*
X2654Y455D01*
X2663Y459D01*
X2670Y465D01*
X2676Y472D01*
X2680Y481D01*
X2681Y490D01*
X2680Y499D01*
X2676Y508D01*
X2670Y515D01*
X2663Y521D01*
X2654Y525D01*
X2645Y526D01*
D02*
G37*
G36*
X3470Y569D02*
Y535D01*
X3504D01*
X3504Y540D01*
X3500Y550D01*
X3493Y558D01*
X3485Y565D01*
X3475Y569D01*
X3470Y569D01*
D02*
G37*
G36*
X3460D02*
X3455Y569D01*
X3445Y565D01*
X3437Y558D01*
X3430Y550D01*
X3426Y540D01*
X3426Y535D01*
X3460D01*
Y569D01*
D02*
G37*
G36*
X3504Y525D02*
X3470D01*
Y491D01*
X3475Y491D01*
X3485Y495D01*
X3493Y502D01*
X3500Y510D01*
X3504Y520D01*
X3504Y525D01*
D02*
G37*
G36*
X755Y645D02*
Y615D01*
X785D01*
X784Y619D01*
X781Y628D01*
X775Y635D01*
X768Y641D01*
X759Y644D01*
X755Y645D01*
D02*
G37*
G36*
X1776Y775D02*
X1704D01*
Y704D01*
X1776D01*
Y775D01*
D02*
G37*
G36*
X2440Y776D02*
X2431Y774D01*
X2422Y771D01*
X2415Y765D01*
X2409Y758D01*
X2405Y749D01*
X2404Y740D01*
X2405Y730D01*
X2409Y722D01*
X2415Y714D01*
X2422Y709D01*
X2431Y705D01*
X2440Y704D01*
X2449Y705D01*
X2458Y709D01*
X2465Y714D01*
X2471Y722D01*
X2475Y730D01*
X2476Y740D01*
X2475Y749D01*
X2471Y758D01*
X2465Y765D01*
X2458Y771D01*
X2449Y774D01*
X2440Y776D01*
D02*
G37*
G36*
X1850D02*
X1841Y774D01*
X1832Y771D01*
X1825Y765D01*
X1819Y758D01*
X1815Y749D01*
X1814Y740D01*
X1815Y730D01*
X1819Y722D01*
X1825Y714D01*
X1832Y709D01*
X1841Y705D01*
X1850Y704D01*
X1859Y705D01*
X1868Y709D01*
X1875Y714D01*
X1881Y722D01*
X1885Y730D01*
X1886Y740D01*
X1885Y749D01*
X1881Y758D01*
X1875Y765D01*
X1868Y771D01*
X1859Y774D01*
X1850Y776D01*
D02*
G37*
G36*
X456Y796D02*
X384D01*
Y724D01*
X456D01*
Y796D01*
D02*
G37*
G36*
X195Y796D02*
X186Y795D01*
X177Y791D01*
X170Y785D01*
X164Y778D01*
X160Y769D01*
X159Y760D01*
X160Y751D01*
X164Y742D01*
X170Y735D01*
X177Y729D01*
X186Y725D01*
X195Y724D01*
X204Y725D01*
X213Y729D01*
X220Y735D01*
X226Y742D01*
X230Y751D01*
X231Y760D01*
X230Y769D01*
X226Y778D01*
X220Y785D01*
X213Y791D01*
X204Y795D01*
X195Y796D01*
D02*
G37*
G36*
X2366Y775D02*
X2294D01*
Y704D01*
X2366D01*
Y775D01*
D02*
G37*
G36*
X420Y696D02*
X411Y695D01*
X402Y691D01*
X395Y685D01*
X389Y678D01*
X385Y669D01*
X384Y660D01*
X385Y651D01*
X389Y642D01*
X395Y635D01*
X402Y629D01*
X411Y625D01*
X420Y624D01*
X429Y625D01*
X438Y629D01*
X445Y635D01*
X451Y642D01*
X455Y651D01*
X456Y660D01*
X455Y669D01*
X451Y678D01*
X445Y685D01*
X438Y691D01*
X429Y695D01*
X420Y696D01*
D02*
G37*
G36*
X235Y655D02*
X200D01*
Y620D01*
X235D01*
Y655D01*
D02*
G37*
G36*
X190D02*
X155D01*
Y620D01*
X190D01*
Y655D01*
D02*
G37*
G36*
X235Y700D02*
X200D01*
Y665D01*
X235D01*
Y700D01*
D02*
G37*
G36*
X190D02*
X155D01*
Y665D01*
X190D01*
Y700D01*
D02*
G37*
G36*
X3450Y800D02*
X3435Y799D01*
X3421Y795D01*
X3408Y788D01*
X3397Y778D01*
X3387Y767D01*
X3380Y754D01*
X3376Y740D01*
X3375Y725D01*
X3376Y710D01*
X3380Y696D01*
X3387Y683D01*
X3397Y672D01*
X3408Y662D01*
X3421Y655D01*
X3435Y651D01*
X3450Y650D01*
X3465Y651D01*
X3479Y655D01*
X3492Y662D01*
X3503Y672D01*
X3513Y683D01*
X3520Y696D01*
X3524Y710D01*
X3525Y725D01*
X3524Y740D01*
X3520Y754D01*
X3513Y767D01*
X3503Y778D01*
X3492Y788D01*
X3479Y795D01*
X3465Y799D01*
X3450Y800D01*
D02*
G37*
G36*
X420Y526D02*
X411Y525D01*
X402Y521D01*
X395Y515D01*
X389Y508D01*
X385Y499D01*
X384Y490D01*
X385Y481D01*
X389Y472D01*
X395Y465D01*
X402Y459D01*
X411Y455D01*
X420Y454D01*
X429Y455D01*
X438Y459D01*
X445Y465D01*
X451Y472D01*
X455Y481D01*
X456Y490D01*
X455Y499D01*
X451Y508D01*
X445Y515D01*
X438Y521D01*
X429Y525D01*
X420Y526D01*
D02*
G37*
G36*
X3280Y341D02*
X3271Y340D01*
X3262Y336D01*
X3255Y330D01*
X3249Y323D01*
X3245Y314D01*
X3244Y305D01*
X3245Y296D01*
X3249Y287D01*
X3255Y280D01*
X3262Y274D01*
X3271Y270D01*
X3280Y269D01*
X3289Y270D01*
X3298Y274D01*
X3305Y280D01*
X3311Y287D01*
X3315Y296D01*
X3316Y305D01*
X3315Y314D01*
X3311Y323D01*
X3305Y330D01*
X3298Y336D01*
X3289Y340D01*
X3280Y341D01*
D02*
G37*
G36*
X3465Y336D02*
X3456Y335D01*
X3447Y331D01*
X3440Y325D01*
X3434Y318D01*
X3430Y309D01*
X3429Y300D01*
X3430Y291D01*
X3434Y282D01*
X3440Y275D01*
X3447Y269D01*
X3456Y265D01*
X3465Y264D01*
X3474Y265D01*
X3483Y269D01*
X3490Y275D01*
X3496Y282D01*
X3500Y291D01*
X3501Y300D01*
X3500Y309D01*
X3496Y318D01*
X3490Y325D01*
X3483Y331D01*
X3474Y335D01*
X3465Y336D01*
D02*
G37*
G36*
X2420Y326D02*
X2411Y325D01*
X2402Y321D01*
X2395Y315D01*
X2389Y308D01*
X2385Y299D01*
X2384Y290D01*
X2385Y281D01*
X2389Y272D01*
X2395Y265D01*
X2402Y259D01*
X2411Y255D01*
X2420Y254D01*
X2429Y255D01*
X2438Y259D01*
X2445Y265D01*
X2450Y271D01*
X2515D01*
X2518Y268D01*
X2524Y263D01*
X2532Y260D01*
X2540Y259D01*
X2548Y260D01*
X2556Y263D01*
X2562Y268D01*
X2567Y274D01*
X2570Y282D01*
X2571Y290D01*
X2570Y298D01*
X2567Y306D01*
X2562Y312D01*
X2556Y317D01*
X2548Y320D01*
X2540Y321D01*
X2532Y320D01*
X2524Y317D01*
X2518Y312D01*
X2515Y309D01*
X2450D01*
X2445Y315D01*
X2438Y321D01*
X2429Y325D01*
X2420Y326D01*
D02*
G37*
G36*
X1275Y386D02*
X1266Y385D01*
X1257Y381D01*
X1250Y375D01*
X1244Y368D01*
X1240Y359D01*
X1239Y350D01*
X1240Y341D01*
X1244Y332D01*
X1250Y325D01*
X1257Y319D01*
X1266Y315D01*
X1275Y314D01*
X1284Y315D01*
X1293Y319D01*
X1300Y325D01*
X1306Y332D01*
X1310Y341D01*
X1311Y350D01*
X1310Y359D01*
X1306Y368D01*
X1300Y375D01*
X1293Y381D01*
X1284Y385D01*
X1275Y386D01*
D02*
G37*
G36*
X235Y330D02*
X200D01*
Y295D01*
X235D01*
Y330D01*
D02*
G37*
G36*
X190D02*
X155D01*
Y295D01*
X190D01*
Y330D01*
D02*
G37*
G36*
X1645Y406D02*
X1605D01*
X1599Y405D01*
X1592Y402D01*
X1587Y398D01*
X1583Y393D01*
X1580Y387D01*
X1579Y380D01*
X1580Y373D01*
X1583Y367D01*
X1587Y362D01*
X1592Y358D01*
X1593Y357D01*
Y352D01*
X1592Y352D01*
X1587Y348D01*
X1583Y343D01*
X1580Y337D01*
X1579Y330D01*
X1580Y323D01*
X1583Y317D01*
X1587Y312D01*
X1592Y308D01*
X1593Y308D01*
Y303D01*
X1592Y302D01*
X1587Y298D01*
X1583Y293D01*
X1580Y287D01*
X1579Y280D01*
X1580Y273D01*
X1583Y267D01*
X1587Y262D01*
X1592Y258D01*
X1599Y255D01*
X1605Y254D01*
X1645D01*
X1651Y255D01*
X1658Y258D01*
X1663Y262D01*
X1667Y267D01*
X1670Y273D01*
X1671Y280D01*
X1670Y287D01*
X1667Y293D01*
X1663Y298D01*
X1658Y302D01*
X1657Y303D01*
Y308D01*
X1658Y308D01*
X1663Y312D01*
X1667Y317D01*
X1670Y323D01*
X1671Y330D01*
X1670Y337D01*
X1667Y343D01*
X1663Y348D01*
X1658Y352D01*
X1657Y352D01*
Y357D01*
X1658Y358D01*
X1663Y362D01*
X1667Y367D01*
X1670Y373D01*
X1671Y380D01*
X1670Y387D01*
X1667Y393D01*
X1663Y398D01*
X1658Y402D01*
X1651Y405D01*
X1645Y406D01*
D02*
G37*
G36*
X1045D02*
X1005D01*
X999Y405D01*
X992Y402D01*
X987Y398D01*
X983Y393D01*
X980Y387D01*
X979Y380D01*
X980Y373D01*
X983Y367D01*
X987Y362D01*
X992Y358D01*
X993Y357D01*
Y352D01*
X992Y352D01*
X987Y348D01*
X983Y343D01*
X980Y337D01*
X979Y330D01*
X980Y323D01*
X983Y317D01*
X987Y312D01*
X992Y308D01*
X993Y308D01*
Y303D01*
X992Y302D01*
X987Y298D01*
X983Y293D01*
X980Y287D01*
X979Y280D01*
X980Y273D01*
X983Y267D01*
X987Y262D01*
X992Y258D01*
X999Y255D01*
X1005Y254D01*
X1045D01*
X1051Y255D01*
X1058Y258D01*
X1063Y262D01*
X1067Y267D01*
X1070Y273D01*
X1071Y280D01*
X1070Y287D01*
X1067Y293D01*
X1063Y298D01*
X1058Y302D01*
X1057Y303D01*
Y308D01*
X1058Y308D01*
X1063Y312D01*
X1067Y317D01*
X1070Y323D01*
X1071Y330D01*
X1070Y337D01*
X1067Y343D01*
X1063Y348D01*
X1058Y352D01*
X1057Y352D01*
Y357D01*
X1058Y358D01*
X1063Y362D01*
X1067Y367D01*
X1070Y373D01*
X1071Y380D01*
X1070Y387D01*
X1067Y393D01*
X1063Y398D01*
X1058Y402D01*
X1051Y405D01*
X1045Y406D01*
D02*
G37*
G36*
X235Y285D02*
X200D01*
Y250D01*
X235D01*
Y285D01*
D02*
G37*
G36*
X456Y326D02*
X384D01*
Y254D01*
X456D01*
Y326D01*
D02*
G37*
G36*
X3085Y406D02*
X3045D01*
X3039Y405D01*
X3032Y402D01*
X3027Y398D01*
X3023Y393D01*
X3020Y387D01*
X3019Y380D01*
X3020Y373D01*
X3023Y367D01*
X3027Y362D01*
X3032Y358D01*
X3033Y357D01*
Y352D01*
X3032Y352D01*
X3027Y348D01*
X3023Y343D01*
X3020Y337D01*
X3019Y330D01*
X3020Y323D01*
X3023Y317D01*
X3027Y312D01*
X3032Y308D01*
X3033Y308D01*
Y303D01*
X3032Y302D01*
X3027Y298D01*
X3023Y293D01*
X3020Y287D01*
X3019Y280D01*
X3020Y273D01*
X3023Y267D01*
X3027Y262D01*
X3032Y258D01*
X3039Y255D01*
X3045Y254D01*
X3085D01*
X3091Y255D01*
X3098Y258D01*
X3103Y262D01*
X3107Y267D01*
X3110Y273D01*
X3111Y280D01*
X3110Y287D01*
X3107Y293D01*
X3103Y298D01*
X3098Y302D01*
X3097Y303D01*
Y308D01*
X3098Y308D01*
X3103Y312D01*
X3107Y317D01*
X3110Y323D01*
X3111Y330D01*
X3110Y337D01*
X3107Y343D01*
X3103Y348D01*
X3098Y352D01*
X3097Y352D01*
Y357D01*
X3098Y358D01*
X3103Y362D01*
X3107Y367D01*
X3110Y373D01*
X3111Y380D01*
X3110Y387D01*
X3107Y393D01*
X3103Y398D01*
X3098Y402D01*
X3091Y405D01*
X3085Y406D01*
D02*
G37*
G36*
X2240D02*
X2200D01*
X2194Y405D01*
X2187Y402D01*
X2182Y398D01*
X2178Y393D01*
X2175Y387D01*
X2174Y380D01*
X2175Y373D01*
X2178Y367D01*
X2182Y362D01*
X2187Y358D01*
X2188Y357D01*
Y352D01*
X2187Y352D01*
X2182Y348D01*
X2178Y343D01*
X2175Y337D01*
X2174Y330D01*
X2175Y323D01*
X2178Y317D01*
X2182Y312D01*
X2187Y308D01*
X2188Y308D01*
Y303D01*
X2187Y302D01*
X2182Y298D01*
X2178Y293D01*
X2175Y287D01*
X2174Y280D01*
X2175Y273D01*
X2178Y267D01*
X2182Y262D01*
X2187Y258D01*
X2194Y255D01*
X2200Y254D01*
X2240D01*
X2246Y255D01*
X2253Y258D01*
X2258Y262D01*
X2262Y267D01*
X2265Y273D01*
X2266Y280D01*
X2265Y287D01*
X2262Y293D01*
X2258Y298D01*
X2253Y302D01*
X2252Y303D01*
Y308D01*
X2253Y308D01*
X2258Y312D01*
X2262Y317D01*
X2265Y323D01*
X2266Y330D01*
X2265Y337D01*
X2262Y343D01*
X2258Y348D01*
X2253Y352D01*
X2252Y352D01*
Y357D01*
X2253Y358D01*
X2258Y362D01*
X2262Y367D01*
X2265Y373D01*
X2266Y380D01*
X2265Y387D01*
X2262Y393D01*
X2258Y398D01*
X2253Y402D01*
X2246Y405D01*
X2240Y406D01*
D02*
G37*
G36*
X2565Y355D02*
X2535D01*
X2536Y351D01*
X2539Y342D01*
X2545Y335D01*
X2552Y329D01*
X2561Y326D01*
X2565Y325D01*
Y355D01*
D02*
G37*
G36*
X2330Y496D02*
X2321Y495D01*
X2312Y491D01*
X2305Y486D01*
X2299Y478D01*
X2295Y470D01*
X2294Y460D01*
X2295Y451D01*
X2299Y442D01*
X2305Y435D01*
X2312Y429D01*
X2321Y426D01*
X2330Y424D01*
X2339Y426D01*
X2348Y429D01*
X2355Y435D01*
X2361Y442D01*
X2365Y451D01*
X2366Y460D01*
X2365Y470D01*
X2361Y478D01*
X2355Y486D01*
X2348Y491D01*
X2339Y495D01*
X2330Y496D01*
D02*
G37*
G36*
X1740D02*
X1731Y495D01*
X1722Y491D01*
X1715Y486D01*
X1709Y478D01*
X1705Y470D01*
X1704Y460D01*
X1705Y451D01*
X1709Y442D01*
X1715Y435D01*
X1722Y429D01*
X1731Y426D01*
X1740Y424D01*
X1749Y426D01*
X1758Y429D01*
X1765Y435D01*
X1771Y442D01*
X1775Y451D01*
X1776Y460D01*
X1775Y470D01*
X1771Y478D01*
X1765Y486D01*
X1758Y491D01*
X1749Y495D01*
X1740Y496D01*
D02*
G37*
G36*
X1275Y486D02*
X1266Y485D01*
X1257Y481D01*
X1250Y475D01*
X1244Y468D01*
X1240Y459D01*
X1239Y450D01*
X1240Y441D01*
X1244Y432D01*
X1250Y425D01*
X1257Y419D01*
X1266Y415D01*
X1275Y414D01*
X1284Y415D01*
X1293Y419D01*
X1300Y425D01*
X1306Y432D01*
X1310Y441D01*
X1311Y450D01*
X1310Y459D01*
X1306Y468D01*
X1300Y475D01*
X1293Y481D01*
X1284Y485D01*
X1275Y486D01*
D02*
G37*
G36*
X195Y526D02*
X186Y525D01*
X177Y521D01*
X170Y515D01*
X164Y508D01*
X160Y499D01*
X159Y490D01*
X160Y481D01*
X164Y472D01*
X170Y465D01*
X177Y459D01*
X186Y455D01*
X195Y454D01*
X204Y455D01*
X213Y459D01*
X220Y465D01*
X226Y472D01*
X230Y481D01*
X231Y490D01*
X230Y499D01*
X226Y508D01*
X220Y515D01*
X213Y521D01*
X204Y525D01*
X195Y526D01*
D02*
G37*
G36*
X2476Y496D02*
X2404D01*
Y425D01*
X2476D01*
Y496D01*
D02*
G37*
G36*
X1886D02*
X1814D01*
Y425D01*
X1886D01*
Y496D01*
D02*
G37*
G36*
X420Y426D02*
X411Y425D01*
X402Y421D01*
X395Y415D01*
X389Y408D01*
X385Y399D01*
X384Y390D01*
X385Y381D01*
X389Y372D01*
X395Y365D01*
X402Y359D01*
X411Y355D01*
X420Y354D01*
X429Y355D01*
X438Y359D01*
X445Y365D01*
X451Y372D01*
X455Y381D01*
X456Y390D01*
X455Y399D01*
X451Y408D01*
X445Y415D01*
X438Y421D01*
X429Y425D01*
X420Y426D01*
D02*
G37*
G36*
X195D02*
X186Y425D01*
X177Y421D01*
X170Y415D01*
X164Y408D01*
X160Y399D01*
X159Y390D01*
X160Y381D01*
X164Y372D01*
X170Y365D01*
X177Y359D01*
X186Y355D01*
X195Y354D01*
X204Y355D01*
X213Y359D01*
X220Y365D01*
X226Y372D01*
X230Y381D01*
X231Y390D01*
X230Y399D01*
X226Y408D01*
X220Y415D01*
X213Y421D01*
X204Y425D01*
X195Y426D01*
D02*
G37*
G36*
X2605Y355D02*
X2575D01*
Y325D01*
X2579Y326D01*
X2588Y329D01*
X2595Y335D01*
X2601Y342D01*
X2604Y351D01*
X2605Y355D01*
D02*
G37*
G36*
X3501Y466D02*
X3429D01*
Y394D01*
X3501D01*
Y466D01*
D02*
G37*
G36*
X2575Y395D02*
Y365D01*
X2605D01*
X2604Y369D01*
X2601Y378D01*
X2595Y385D01*
X2588Y391D01*
X2579Y394D01*
X2575Y395D01*
D02*
G37*
G36*
X2565D02*
X2561Y394D01*
X2552Y391D01*
X2545Y385D01*
X2539Y378D01*
X2536Y369D01*
X2535Y365D01*
X2565D01*
Y395D01*
D02*
G37*
%LPD*%
D16*
X2420Y290D02*
X2540D01*
X2730Y135D02*
X2805D01*
X2850Y180D01*
Y410D01*
X2845Y415D02*
X2850Y410D01*
X2845Y415D02*
Y490D01*
D18*
X2330Y740D02*
D03*
X2440Y460D02*
D03*
X1750Y210D02*
D03*
X1740Y740D02*
D03*
X1850Y460D02*
D03*
X1275Y250D02*
D03*
X1150Y210D02*
D03*
X195Y290D02*
D03*
X420D02*
D03*
Y760D02*
D03*
X195Y660D02*
D03*
X2420Y90D02*
D03*
X3280Y105D02*
D03*
X3465Y100D02*
D03*
Y430D02*
D03*
D19*
X2330Y460D02*
D03*
X2440Y740D02*
D03*
X1750Y110D02*
D03*
X1740Y460D02*
D03*
X1850Y740D02*
D03*
X1275Y350D02*
D03*
Y450D02*
D03*
X1150Y110D02*
D03*
X195Y390D02*
D03*
Y490D02*
D03*
X420Y390D02*
D03*
Y490D02*
D03*
Y660D02*
D03*
X195Y760D02*
D03*
X2800Y205D02*
D03*
X2420Y190D02*
D03*
Y290D02*
D03*
X2745Y650D02*
D03*
X2645D02*
D03*
X2745Y490D02*
D03*
X2645D02*
D03*
X3280Y205D02*
D03*
Y305D02*
D03*
X3465Y200D02*
D03*
Y300D02*
D03*
Y530D02*
D03*
D20*
X1025Y380D02*
D03*
Y280D02*
D03*
X1625Y380D02*
D03*
Y280D02*
D03*
X2220Y380D02*
D03*
Y280D02*
D03*
X3065Y380D02*
D03*
Y280D02*
D03*
D21*
X1025Y330D02*
D03*
X1625D02*
D03*
X2220D02*
D03*
X3065D02*
D03*
D22*
X2900Y205D02*
D03*
X2845Y650D02*
D03*
Y490D02*
D03*
D23*
X150Y125D02*
D03*
X3450Y725D02*
D03*
D24*
X2540Y290D02*
D03*
X2730Y135D02*
D03*
X917Y232D02*
D03*
X1388Y162D02*
D03*
X1333Y82D02*
D03*
X1557Y107D02*
D03*
X1982Y177D02*
D03*
X2147Y92D02*
D03*
X2570Y360D02*
D03*
X3065Y75D02*
D03*
X750Y610D02*
D03*
M02*
