%FSLAX25Y25*%
%MOIN*%
G70*
G01*
G75*
G04 Layer_Color=16711935*
%ADD10R,0.04331X0.06693*%
%ADD11R,0.06693X0.04331*%
%ADD12R,0.05906X0.03937*%
%ADD13R,0.11811X0.05512*%
%ADD14R,0.05512X0.11811*%
%ADD15R,0.03937X0.05906*%
%ADD16C,0.02500*%
%ADD17C,0.01000*%
%ADD18C,0.13780*%
%ADD19C,0.05906*%
%ADD20R,0.05906X0.05906*%
%ADD21O,0.07874X0.03937*%
%ADD22O,0.07874X0.03937*%
%ADD23R,0.05906X0.05906*%
%ADD24C,0.05000*%
%ADD25C,0.00787*%
%ADD26C,0.00984*%
%ADD27C,0.00800*%
%ADD28C,0.00500*%
%ADD29C,0.00591*%
%ADD30R,0.07480X0.03150*%
%ADD31R,0.05131X0.07493*%
%ADD32R,0.07493X0.05131*%
%ADD33R,0.06706X0.04737*%
%ADD34R,0.12611X0.06312*%
%ADD35R,0.06312X0.12611*%
%ADD36R,0.04737X0.06706*%
%ADD37C,0.14579*%
%ADD38C,0.06706*%
%ADD39R,0.06706X0.06706*%
%ADD40O,0.08674X0.04737*%
%ADD41O,0.08674X0.04737*%
%ADD42R,0.06706X0.06706*%
%ADD43C,0.05800*%
D37*
X345000Y72500D02*
D03*
X15000Y12500D02*
D03*
D38*
X346500Y53000D02*
D03*
Y30000D02*
D03*
Y20000D02*
D03*
X328000Y30500D02*
D03*
Y20500D02*
D03*
X264500Y49000D02*
D03*
X274500D02*
D03*
X264500Y65000D02*
D03*
X274500D02*
D03*
X242000Y29000D02*
D03*
Y19000D02*
D03*
X280000Y20500D02*
D03*
X19500Y76000D02*
D03*
X42000Y66000D02*
D03*
Y49000D02*
D03*
Y39000D02*
D03*
X19500Y49000D02*
D03*
Y39000D02*
D03*
X115000Y11000D02*
D03*
X127500Y45000D02*
D03*
Y35000D02*
D03*
X185000Y73976D02*
D03*
X174000Y46024D02*
D03*
X175000Y11000D02*
D03*
X244000Y73976D02*
D03*
X233000Y46024D02*
D03*
D39*
X346500Y43000D02*
D03*
Y10000D02*
D03*
X328000Y10500D02*
D03*
X242000Y9000D02*
D03*
X19500Y66000D02*
D03*
X42000Y76000D02*
D03*
Y29000D02*
D03*
X19500D02*
D03*
X115000Y21000D02*
D03*
X127500Y25000D02*
D03*
X185000Y46024D02*
D03*
X174000Y73976D02*
D03*
X175000Y21000D02*
D03*
X244000Y46024D02*
D03*
X233000Y73976D02*
D03*
D40*
X306500Y28000D02*
D03*
Y38000D02*
D03*
X222000Y28000D02*
D03*
Y38000D02*
D03*
X162500Y28000D02*
D03*
Y38000D02*
D03*
X102500Y28000D02*
D03*
Y38000D02*
D03*
D41*
X306500Y33000D02*
D03*
X222000D02*
D03*
X162500D02*
D03*
X102500D02*
D03*
D42*
X284500Y49000D02*
D03*
Y65000D02*
D03*
X290000Y20500D02*
D03*
D43*
X75000Y61000D02*
D03*
X306500Y7500D02*
D03*
X257000Y36000D02*
D03*
X214669Y9169D02*
D03*
X198169Y17669D02*
D03*
X155669Y10669D02*
D03*
X133331Y8169D02*
D03*
X138831Y16169D02*
D03*
X91669Y23169D02*
D03*
X273000Y13500D02*
D03*
X254000Y29000D02*
D03*
M02*
